<svg width="250" height="91" viewBox="0 0 250 91" fill="none" xmlns="http://www.w3.org/2000/svg">
<path d="M141.754 10.2873H153.78L128.91 44.669L123.244 52.6897L104.46 80.4686H92.4333L117.48 44.669L123.244 36.6483L141.754 10.2873ZM135.657 54.2547L154.143 80.4686H142.117L129.793 62.3732L135.657 54.2547ZM118.146 27.4046L112.282 35.523L94.4582 10.2874L106.164 10.2873L118.146 27.4046Z" fill="white" fill-opacity="0.9"/>
<path d="M141.754 10.2873H153.78L128.91 44.669L123.244 52.6897L104.46 80.4686H92.4333L117.48 44.669L123.244 36.6483L141.754 10.2873ZM135.657 54.2547L154.143 80.4686H142.117L129.793 62.3732L135.657 54.2547ZM118.146 27.4046L112.282 35.523L94.4582 10.2874L106.164 10.2873L118.146 27.4046Z" fill="url(#paint0_linear_104_677)"/>
<path d="M13.8444 50.9445C13.8444 51.3918 13.9722 51.8232 14.2278 52.2385C14.4835 52.622 14.819 52.9894 15.2343 53.3409C15.6817 53.6604 16.1929 53.916 16.768 54.1077C17.3751 54.2995 18.0142 54.3953 18.6852 54.3953H38.0003C39.0548 54.3953 39.9175 54.2196 40.5885 53.8681C41.2914 53.5166 41.8346 53.0693 42.218 52.5261C42.6334 51.9829 42.921 51.3918 43.0807 50.7528C43.2725 50.1137 43.3683 49.5066 43.3683 48.9315V40.4002C43.3683 39.7612 43.592 39.218 44.0393 38.7706C44.5186 38.3233 45.0618 38.0997 45.6689 38.0997C46.3079 38.0997 46.8511 38.3233 47.2984 38.7706C47.7458 39.218 47.9694 39.7612 47.9694 40.4002V48.548C47.9694 49.7622 47.7617 50.9924 47.3464 52.2385C46.931 53.4527 46.3239 54.571 45.5251 55.5935C44.7582 56.584 43.8156 57.3988 42.6973 58.0379C41.579 58.6769 40.3328 58.9964 38.9589 58.9964H17.2953C16.2089 58.9964 15.1704 58.7728 14.1799 58.3254C13.2213 57.8781 12.3746 57.287 11.6397 56.5521C10.9048 55.7852 10.3137 54.9225 9.86636 53.964C9.45098 52.9734 9.24329 51.9669 9.24329 50.9445C9.24329 50.3054 9.46695 49.7622 9.91428 49.3149C10.3936 48.8676 10.9368 48.6439 11.5438 48.6439C12.1829 48.6439 12.7261 48.8676 13.1734 49.3149C13.6207 49.7622 13.8444 50.3054 13.8444 50.9445Z" fill="white" fill-opacity="0.9"/>
<path d="M13.8444 50.9445C13.8444 51.3918 13.9722 51.8232 14.2278 52.2385C14.4835 52.622 14.819 52.9894 15.2343 53.3409C15.6817 53.6604 16.1929 53.916 16.768 54.1077C17.3751 54.2995 18.0142 54.3953 18.6852 54.3953H38.0003C39.0548 54.3953 39.9175 54.2196 40.5885 53.8681C41.2914 53.5166 41.8346 53.0693 42.218 52.5261C42.6334 51.9829 42.921 51.3918 43.0807 50.7528C43.2725 50.1137 43.3683 49.5066 43.3683 48.9315V40.4002C43.3683 39.7612 43.592 39.218 44.0393 38.7706C44.5186 38.3233 45.0618 38.0997 45.6689 38.0997C46.3079 38.0997 46.8511 38.3233 47.2984 38.7706C47.7458 39.218 47.9694 39.7612 47.9694 40.4002V48.548C47.9694 49.7622 47.7617 50.9924 47.3464 52.2385C46.931 53.4527 46.3239 54.571 45.5251 55.5935C44.7582 56.584 43.8156 57.3988 42.6973 58.0379C41.579 58.6769 40.3328 58.9964 38.9589 58.9964H17.2953C16.2089 58.9964 15.1704 58.7728 14.1799 58.3254C13.2213 57.8781 12.3746 57.287 11.6397 56.5521C10.9048 55.7852 10.3137 54.9225 9.86636 53.964C9.45098 52.9734 9.24329 51.9669 9.24329 50.9445C9.24329 50.3054 9.46695 49.7622 9.91428 49.3149C10.3936 48.8676 10.9368 48.6439 11.5438 48.6439C12.1829 48.6439 12.7261 48.8676 13.1734 49.3149C13.6207 49.7622 13.8444 50.3054 13.8444 50.9445Z" fill="url(#paint1_linear_104_677)"/>
<path d="M57.0668 58.1337C56.5876 58.7089 55.9964 58.9964 55.2935 58.9964C54.6544 58.9964 54.1113 58.7728 53.6639 58.3254C53.2166 57.8781 52.9929 57.3349 52.9929 56.6959C52.9929 56.1207 53.1527 55.6574 53.4722 55.306L65.1188 39.6334C65.662 38.8985 66.3809 38.3073 67.2756 37.86C68.1703 37.3807 69.1288 37.1411 70.1513 37.1411C71.1099 37.1411 72.0205 37.3488 72.8832 37.7642C73.7459 38.1795 74.4489 38.7547 74.9921 39.4896L86.6387 55.0663C86.8304 55.29 86.9902 55.5456 87.118 55.8332C87.2458 56.0888 87.3097 56.3764 87.3097 56.6959C87.3097 57.3349 87.086 57.8781 86.6387 58.3254C86.1913 58.7728 85.6482 58.9964 85.0091 58.9964C84.2423 58.9964 83.6352 58.6929 83.1878 58.0858L72.0205 43.1801C71.7968 42.9244 71.5093 42.6529 71.1578 42.3653C70.8383 42.0458 70.5028 41.886 70.1513 41.886C69.7998 41.886 69.4484 42.0458 69.0969 42.3653C68.7774 42.6529 68.5217 42.9244 68.33 43.1801L57.0668 58.1337Z" fill="white" fill-opacity="0.9"/>
<path d="M57.0668 58.1337C56.5876 58.7089 55.9964 58.9964 55.2935 58.9964C54.6544 58.9964 54.1113 58.7728 53.6639 58.3254C53.2166 57.8781 52.9929 57.3349 52.9929 56.6959C52.9929 56.1207 53.1527 55.6574 53.4722 55.306L65.1188 39.6334C65.662 38.8985 66.3809 38.3073 67.2756 37.86C68.1703 37.3807 69.1288 37.1411 70.1513 37.1411C71.1099 37.1411 72.0205 37.3488 72.8832 37.7642C73.7459 38.1795 74.4489 38.7547 74.9921 39.4896L86.6387 55.0663C86.8304 55.29 86.9902 55.5456 87.118 55.8332C87.2458 56.0888 87.3097 56.3764 87.3097 56.6959C87.3097 57.3349 87.086 57.8781 86.6387 58.3254C86.1913 58.7728 85.6482 58.9964 85.0091 58.9964C84.2423 58.9964 83.6352 58.6929 83.1878 58.0858L72.0205 43.1801C71.7968 42.9244 71.5093 42.6529 71.1578 42.3653C70.8383 42.0458 70.5028 41.886 70.1513 41.886C69.7998 41.886 69.4484 42.0458 69.0969 42.3653C68.7774 42.6529 68.5217 42.9244 68.33 43.1801L57.0668 58.1337Z" fill="url(#paint2_linear_104_677)"/>
<path d="M185.727 54.3953C186.814 54.3953 187.708 54.2036 188.411 53.8202C189.114 53.4048 189.657 52.9095 190.041 52.3344C190.456 51.7592 190.728 51.1362 190.856 50.4652C191.015 49.7622 191.095 49.1232 191.095 48.548C191.095 47.9729 191.015 47.3498 190.856 46.6788C190.728 45.9759 190.456 45.3368 190.041 44.7617C189.657 44.1866 189.114 43.7073 188.411 43.3238C187.708 42.9085 186.814 42.7008 185.727 42.7008H166.364C165.246 42.7008 164.335 42.9085 163.632 43.3238C162.961 43.7073 162.418 44.1866 162.003 44.7617C161.619 45.3368 161.348 45.9759 161.188 46.6788C161.06 47.3498 160.996 47.9729 160.996 48.548C160.996 49.1232 161.06 49.7622 161.188 50.4652C161.348 51.1362 161.619 51.7592 162.003 52.3344C162.418 52.9095 162.961 53.4048 163.632 53.8202C164.335 54.2036 165.246 54.3953 166.364 54.3953H185.727ZM195.553 48.548C195.553 49.7622 195.345 50.9924 194.93 52.2385C194.546 53.4527 193.971 54.571 193.204 55.5935C192.437 56.584 191.511 57.3988 190.424 58.0379C189.338 58.6769 188.108 58.9964 186.734 58.9964H164.878C163.568 58.9325 162.402 58.5811 161.38 57.942C160.357 57.271 159.478 56.4403 158.744 55.4497C158.041 54.4592 157.497 53.3569 157.114 52.1427C156.731 50.9285 156.539 49.7303 156.539 48.548C156.539 47.3339 156.731 46.1197 157.114 44.9055C157.529 43.6593 158.121 42.541 158.887 41.5505C159.654 40.528 160.581 39.6973 161.667 39.0582C162.754 38.4192 163.984 38.0997 165.358 38.0997H187.213C188.523 38.1636 189.689 38.531 190.712 39.202C191.734 39.8411 192.597 40.6558 193.3 41.6464C194.035 42.6369 194.594 43.7392 194.977 44.9534C195.361 46.1676 195.553 47.3658 195.553 48.548Z" fill="white" fill-opacity="0.9"/>
<path d="M185.727 54.3953C186.814 54.3953 187.708 54.2036 188.411 53.8202C189.114 53.4048 189.657 52.9095 190.041 52.3344C190.456 51.7592 190.728 51.1362 190.856 50.4652C191.015 49.7622 191.095 49.1232 191.095 48.548C191.095 47.9729 191.015 47.3498 190.856 46.6788C190.728 45.9759 190.456 45.3368 190.041 44.7617C189.657 44.1866 189.114 43.7073 188.411 43.3238C187.708 42.9085 186.814 42.7008 185.727 42.7008H166.364C165.246 42.7008 164.335 42.9085 163.632 43.3238C162.961 43.7073 162.418 44.1866 162.003 44.7617C161.619 45.3368 161.348 45.9759 161.188 46.6788C161.06 47.3498 160.996 47.9729 160.996 48.548C160.996 49.1232 161.06 49.7622 161.188 50.4652C161.348 51.1362 161.619 51.7592 162.003 52.3344C162.418 52.9095 162.961 53.4048 163.632 53.8202C164.335 54.2036 165.246 54.3953 166.364 54.3953H185.727ZM195.553 48.548C195.553 49.7622 195.345 50.9924 194.93 52.2385C194.546 53.4527 193.971 54.571 193.204 55.5935C192.437 56.584 191.511 57.3988 190.424 58.0379C189.338 58.6769 188.108 58.9964 186.734 58.9964H164.878C163.568 58.9325 162.402 58.5811 161.38 57.942C160.357 57.271 159.478 56.4403 158.744 55.4497C158.041 54.4592 157.497 53.3569 157.114 52.1427C156.731 50.9285 156.539 49.7303 156.539 48.548C156.539 47.3339 156.731 46.1197 157.114 44.9055C157.529 43.6593 158.121 42.541 158.887 41.5505C159.654 40.528 160.581 39.6973 161.667 39.0582C162.754 38.4192 163.984 38.0997 165.358 38.0997H187.213C188.523 38.1636 189.689 38.531 190.712 39.202C191.734 39.8411 192.597 40.6558 193.3 41.6464C194.035 42.6369 194.594 43.7392 194.977 44.9534C195.361 46.1676 195.553 47.3658 195.553 48.548Z" fill="url(#paint3_linear_104_677)"/>
<path d="M234.426 40.4002C234.426 39.7612 234.649 39.218 235.097 38.7706C235.544 38.3233 236.087 38.0997 236.726 38.0997C237.365 38.0997 237.908 38.3233 238.356 38.7706C238.803 39.218 239.027 39.7612 239.027 40.4002V54.3474C239.027 55.6574 238.579 56.7598 237.685 57.6544C236.822 58.5491 235.736 58.9964 234.426 58.9964C233.978 58.9964 233.531 58.9325 233.084 58.8047C232.668 58.6769 232.285 58.5012 231.933 58.2775L209.982 44.8576C209.375 44.5061 208.864 44.2345 208.448 44.0428C208.065 43.8191 207.745 43.7073 207.49 43.7073C207.01 43.7073 206.707 44.0108 206.579 44.6179C206.451 45.225 206.387 46.1037 206.387 47.254V56.6959C206.387 57.3349 206.164 57.8781 205.716 58.3254C205.269 58.7728 204.726 58.9964 204.087 58.9964C203.448 58.9964 202.905 58.7728 202.457 58.3254C202.01 57.8781 201.786 57.3349 201.786 56.6959V42.7487C201.786 41.4387 202.218 40.3363 203.08 39.4416C203.975 38.547 205.077 38.0997 206.387 38.0997C206.835 38.0997 207.266 38.1636 207.681 38.2914C208.129 38.4192 208.528 38.5949 208.88 38.8186L230.831 52.2385C231.438 52.59 231.933 52.8776 232.317 53.1012C232.732 53.293 233.068 53.3888 233.323 53.3888C233.802 53.3888 234.106 53.0853 234.234 52.4782C234.362 51.8711 234.426 50.9924 234.426 49.8421V40.4002Z" fill="white" fill-opacity="0.9"/>
<path d="M234.426 40.4002C234.426 39.7612 234.649 39.218 235.097 38.7706C235.544 38.3233 236.087 38.0997 236.726 38.0997C237.365 38.0997 237.908 38.3233 238.356 38.7706C238.803 39.218 239.027 39.7612 239.027 40.4002V54.3474C239.027 55.6574 238.579 56.7598 237.685 57.6544C236.822 58.5491 235.736 58.9964 234.426 58.9964C233.978 58.9964 233.531 58.9325 233.084 58.8047C232.668 58.6769 232.285 58.5012 231.933 58.2775L209.982 44.8576C209.375 44.5061 208.864 44.2345 208.448 44.0428C208.065 43.8191 207.745 43.7073 207.49 43.7073C207.01 43.7073 206.707 44.0108 206.579 44.6179C206.451 45.225 206.387 46.1037 206.387 47.254V56.6959C206.387 57.3349 206.164 57.8781 205.716 58.3254C205.269 58.7728 204.726 58.9964 204.087 58.9964C203.448 58.9964 202.905 58.7728 202.457 58.3254C202.01 57.8781 201.786 57.3349 201.786 56.6959V42.7487C201.786 41.4387 202.218 40.3363 203.08 39.4416C203.975 38.547 205.077 38.0997 206.387 38.0997C206.835 38.0997 207.266 38.1636 207.681 38.2914C208.129 38.4192 208.528 38.5949 208.88 38.8186L230.831 52.2385C231.438 52.59 231.933 52.8776 232.317 53.1012C232.732 53.293 233.068 53.3888 233.323 53.3888C233.802 53.3888 234.106 53.0853 234.234 52.4782C234.362 51.8711 234.426 50.9924 234.426 49.8421V40.4002Z" fill="url(#paint4_linear_104_677)"/>
<defs>
<linearGradient id="paint0_linear_104_677" x1="80.7085" y1="62.2144" x2="175.88" y2="62.3381" gradientUnits="userSpaceOnUse">
<stop stop-color="#4CFFD4"/>
<stop offset="1" stop-color="#4076FF"/>
</linearGradient>
<linearGradient id="paint1_linear_104_677" x1="-34.4156" y1="53.3119" x2="319.88" y2="58.8182" gradientUnits="userSpaceOnUse">
<stop stop-color="#4CFFD4"/>
<stop offset="1" stop-color="#4076FF"/>
</linearGradient>
<linearGradient id="paint2_linear_104_677" x1="-34.4156" y1="53.3119" x2="319.88" y2="58.8182" gradientUnits="userSpaceOnUse">
<stop stop-color="#4CFFD4"/>
<stop offset="1" stop-color="#4076FF"/>
</linearGradient>
<linearGradient id="paint3_linear_104_677" x1="-34.4156" y1="53.3119" x2="319.88" y2="58.8182" gradientUnits="userSpaceOnUse">
<stop stop-color="#4CFFD4"/>
<stop offset="1" stop-color="#4076FF"/>
</linearGradient>
<linearGradient id="paint4_linear_104_677" x1="-34.4156" y1="53.3119" x2="319.88" y2="58.8182" gradientUnits="userSpaceOnUse">
<stop stop-color="#4CFFD4"/>
<stop offset="1" stop-color="#4076FF"/>
</linearGradient>
</defs>
</svg>
