<svg height='300px' width='300px'  fill="#000000" xmlns="http://www.w3.org/2000/svg" viewBox="0 0 32 32" x="0px" y="0px"><title>Chart</title><g><path d="M27,26H6V5A1,1,0,0,0,4,5V27a1,1,0,0,0,1,1H27a1,1,0,0,0,0-2Z"></path><path d="M8.25,20A1,1,0,0,0,9,19.68l5.8-6.24L17,15.71a1,1,0,0,0,1.42,0L25,9.16V10a1,1,0,0,0,2,0V7a1,1,0,0,0-1-1l-.11,0-.14,0H23a1,1,0,0,0,0,2h.34l-5.59,5.59-2.29-2.3a1,1,0,0,0-.73-.29,1,1,0,0,0-.71.32l-6.5,7A1,1,0,0,0,8.25,20Z"></path><path d="M10,21v3a1,1,0,0,0,2,0V21a1,1,0,0,0-2,0Z"></path><path d="M14,18v6a1,1,0,0,0,2,0V18a1,1,0,0,0-2,0Z"></path><path d="M18,19v5a1,1,0,0,0,2,0V19a1,1,0,0,0-2,0Z"></path><path d="M22,14V24a1,1,0,0,0,2,0V14a1,1,0,0,0-2,0Z"></path></g></svg>