<?xml version="1.0" encoding="utf-8"?>
<!-- Generator: Adobe Illustrator 23.0.3, SVG Export Plug-In . SVG Version: 6.00 Build 0)  -->
<svg version="1.1" id="Layer_1" xmlns="http://www.w3.org/2000/svg" xmlns:xlink="http://www.w3.org/1999/xlink" x="0px" y="0px"
	 viewBox="0 0 300 455" style="enable-background:new 0 0 300 455;" xml:space="preserve">
<title>Chart</title>
<g>
	<path d="M263.1,235.8H45.8V18.4C45.8,12.6,41.1,8,35.4,8S25,12.6,25,18.4v227.8c0,5.7,4.6,10.4,10.4,10.4h227.8
		c5.7,0,10.4-4.6,10.4-10.4C273.5,240.4,268.9,235.8,263.1,235.8z"/>
	<path d="M69,173.7c3,0,5.7-1.1,7.7-3.3l60.1-64.6l22.8,23.5c4,4.1,10.6,4.1,14.7,0.1c0,0,0,0,0.1-0.1l68.1-67.8v8.7
		c0,5.7,4.6,10.4,10.4,10.4c5.7,0,10.4-4.6,10.4-10.4V39c0-5.7-4.6-10.4-10.4-10.4h-1.1h-1.4h-28.5c-5.7,0-10.4,4.6-10.4,10.4
		s4.6,10.4,10.4,10.4h3.5l-57.9,57.9l-23.7-23.9c-2-2-4.7-3.1-7.5-3c-2.8,0.1-5.4,1.2-7.4,3.3l-67.3,72.4
		c-3.9,4.2-3.6,10.7,0.6,14.6C63.9,172.7,66.4,173.7,69,173.7z"/>
	<path d="M87.2,184v31c0,5.7,4.6,10.4,10.4,10.4c5.7,0,10.4-4.6,10.4-10.4v-31c0-5.7-4.6-10.4-10.4-10.4
		C91.8,173.7,87.2,178.3,87.2,184z"/>
	<path d="M128.6,153v62.1c0,5.7,4.6,10.4,10.4,10.4c5.7,0,10.4-4.6,10.4-10.4v-62.2c0-5.7-4.6-10.4-10.4-10.4
		C133.2,142.5,128.6,147.3,128.6,153z"/>
	<path d="M170,163.3v51.8c0,5.7,4.6,10.4,10.4,10.4c5.7,0,10.4-4.6,10.4-10.4v-51.8c0-5.7-4.6-10.4-10.4-10.4
		C174.6,152.9,170,157.5,170,163.3z"/>
	<path d="M211.4,111.6v103.5c0,5.7,4.6,10.4,10.4,10.4c5.7,0,10.4-4.6,10.4-10.4V111.5c0-5.7-4.6-10.4-10.4-10.4
		C216.1,101.1,211.4,105.8,211.4,111.6z"/>
</g>
</svg>
