<?xml version="1.0" encoding="utf-8"?>
<!-- Generator: Adobe Illustrator 23.0.3, SVG Export Plug-In . SVG Version: 6.00 Build 0)  -->
<svg version="1.1" id="Layer_1" xmlns="http://www.w3.org/2000/svg" xmlns:xlink="http://www.w3.org/1999/xlink" x="0px" y="0px"
	 viewBox="0 0 300 300" style="enable-background:new 0 0 300 300;" xml:space="preserve">
<style type="text/css">
	.st0{fill:#4EC48F;}
</style>
<title>Artboard 11</title>
<g>
	<path class="st0" d="M88.6,173.7c-6.2-0.6-11.9-3.2-15.8-7.4c-5.6-5.5-7.2-13.2-4.3-19.9l11.3-25.3c2-4.5,5.2-8.4,9.4-11.5
		l135.3-98.4c10.1-7.4,25.4-6.1,34.2,2.8c0,0,0,0,0.1,0.1l18.9,19.3c4.2,4.3,6.5,9.7,6.3,15.3c-0.1,5.6-3,10.8-7.9,14.4L140.5,162
		c-4.2,3.1-9.3,5.2-14.7,6.1L95,173.4C92.9,173.8,90.7,173.9,88.6,173.7z M240.2,20.6c-1.7-0.2-3.3,0.3-4.6,1.2l-135.4,99
		c-2.1,1.5-3.7,3.5-4.7,5.8l-11.3,25.3c-0.7,1.8-0.2,3.8,1.4,5.3c1.4,1.5,3.6,2.3,5.8,2l30.8-5.3c2.7-0.5,5.2-1.5,7.4-3l135.3-98.6
		c1.3-1,2.1-2.4,2.1-3.9c0-1.9-0.8-3.8-2.4-5.3l-18.7-19.3c-1.5-1.5-3.6-2.5-5.9-2.7L240.2,20.6z"/>
	<polygon class="st0" points="190.9,42.3 204.1,33.6 242.5,76.8 229.3,85.5 	"/>
	<path class="st0" d="M219.9,294H46.2c-18.5,0-33.5-17.7-33.5-39.6V49c0-21.9,15-39.6,33.5-39.6h98.6c3.9,0,7.1,3.7,7.1,8.4l0,0
		c0,4.6-3.2,8.4-7.1,8.4H46.2c-10.4,0-18.9,10-18.9,22.3v205.4c0,12.3,8.5,22.3,18.9,22.3h173.6c10.4,0,18.9-10,18.9-22.3V137.7
		c0-4.6,3.2-8.4,7.1-8.4l0,0c3.9,0,7.1,3.7,7.1,8.4v116.6C252.9,276,238.2,293.7,219.9,294z"/>
	<path class="st0" d="M64.1,193h137.5c6.7,0,12.1,3.8,12.1,8.6l0,0c0,4.7-5.4,8.6-12.1,8.6H64.1c-6.7,0-12.1-3.8-12.1-8.6l0,0
		C51.9,196.9,57.4,193,64.1,193z"/>
	<path class="st0" d="M64.1,235h137.5c6.7,0,12.1,3.8,12.1,8.6l0,0c0,4.7-5.4,8.6-12.1,8.6H64.1c-6.7,0-12.1-3.8-12.1-8.6l0,0
		C51.9,238.9,57.4,235,64.1,235z"/>
</g>
</svg>
