<?xml version="1.0" encoding="utf-8"?>
<!-- Generator: Adobe Illustrator 23.0.3, SVG Export Plug-In . SVG Version: 6.00 Build 0)  -->
<svg version="1.1" id="Layer_1" xmlns="http://www.w3.org/2000/svg" xmlns:xlink="http://www.w3.org/1999/xlink" x="0px" y="0px"
	 viewBox="0 0 349.9 174" style="enable-background:new 0 0 349.9 174;" xml:space="preserve">
<style type="text/css">
	.st0{opacity:0.53;}
	.st1{fill:none;}
	.st2{fill:#FFFFFF;stroke:#BFE2CA;stroke-width:0.98;stroke-miterlimit:10;}
	.st3{fill:#FFFFFF;stroke:#1FA267;stroke-width:0.98;stroke-miterlimit:10;}
	.st4{fill:#FFFFFF;stroke:#71C493;stroke-width:0.98;stroke-miterlimit:10;}
	.st5{fill:none;stroke:#21A96C;stroke-width:0.98;stroke-miterlimit:10;}
	.st6{fill:none;stroke:#50BC83;stroke-width:0.98;stroke-miterlimit:10;}
	.st7{fill:none;stroke:#006B43;stroke-width:0.98;stroke-miterlimit:10;}
	.st8{fill:none;stroke:#BFE2CA;stroke-width:0.98;stroke-miterlimit:10;}
	.st9{fill:#FFFFFF;stroke:#21A96C;stroke-width:0.98;stroke-miterlimit:10;}
	.st10{fill:#FFFFFF;stroke:#1FA368;stroke-width:0.98;stroke-miterlimit:10;}
	.st11{fill:#FFFFFF;stroke:#95D0AA;stroke-width:0.98;stroke-miterlimit:10;}
	.st12{fill:#FFFFFF;stroke:#01764A;stroke-width:0.98;stroke-miterlimit:10;}
	.st13{fill:#FFFFFF;stroke:#73C594;stroke-width:0.98;stroke-miterlimit:10;}
	.st14{fill:#FFFFFF;stroke:#44B97E;stroke-width:0.49;stroke-miterlimit:10;}
	.st15{fill:#FFFFFF;stroke:#01764A;stroke-width:0.49;stroke-miterlimit:10;}
	.st16{fill:#FFFFFF;stroke:#71C493;stroke-width:0.49;stroke-miterlimit:10;}
	.st17{fill:none;stroke:#21A96C;stroke-width:0.49;stroke-miterlimit:10;}
	.st18{fill:none;stroke:#50BC83;stroke-width:0.49;stroke-miterlimit:10;}
	.st19{fill:none;stroke:#006B43;stroke-width:0.49;stroke-miterlimit:10;}
	.st20{fill:none;stroke:#BFE2CA;stroke-width:0.49;stroke-miterlimit:10;}
	.st21{fill:#FFFFFF;stroke:#7EC89B;stroke-width:0.49;stroke-miterlimit:10;}
	.st22{fill:#FFFFFF;stroke:#1FA368;stroke-width:0.49;stroke-miterlimit:10;}
	.st23{fill:#FFFFFF;stroke:#95D0AA;stroke-width:0.49;stroke-miterlimit:10;}
	.st24{fill:#FFFFFF;stroke:#24B473;stroke-width:0.49;stroke-miterlimit:10;}
	.st25{fill:#FFFFFF;stroke:#73C594;stroke-width:0.49;stroke-miterlimit:10;}
	.st26{fill:#FFFFFF;stroke:#BFE2CA;stroke-width:0.49;stroke-miterlimit:10;}
	.st27{fill:#FFFFFF;stroke:#BFE2CA;stroke-width:0.71;stroke-miterlimit:10;}
	.st28{fill:#FFFFFF;stroke:#1FA267;stroke-width:0.71;stroke-miterlimit:10;}
	.st29{fill:#FFFFFF;stroke:#71C493;stroke-width:0.71;stroke-miterlimit:10;}
	.st30{fill:none;stroke:#21A96C;stroke-width:0.71;stroke-miterlimit:10;}
	.st31{fill:none;stroke:#50BC83;stroke-width:0.71;stroke-miterlimit:10;}
	.st32{fill:none;stroke:#006B43;stroke-width:0.71;stroke-miterlimit:10;}
	.st33{fill:none;stroke:#BFE2CA;stroke-width:0.71;stroke-miterlimit:10;}
	.st34{fill:#FFFFFF;stroke:#21A96C;stroke-width:0.71;stroke-miterlimit:10;}
	.st35{fill:#FFFFFF;stroke:#1FA368;stroke-width:0.71;stroke-miterlimit:10;}
	.st36{fill:#FFFFFF;stroke:#95D0AA;stroke-width:0.71;stroke-miterlimit:10;}
	.st37{fill:#FFFFFF;stroke:#01764A;stroke-width:0.71;stroke-miterlimit:10;}
	.st38{fill:#FFFFFF;stroke:#73C594;stroke-width:0.71;stroke-miterlimit:10;}
	.st39{fill:#FFFFFF;stroke:#44B97E;stroke-width:0.35;stroke-miterlimit:10;}
	.st40{fill:#FFFFFF;stroke:#01764A;stroke-width:0.35;stroke-miterlimit:10;}
	.st41{fill:#FFFFFF;stroke:#71C493;stroke-width:0.35;stroke-miterlimit:10;}
	.st42{fill:none;stroke:#21A96C;stroke-width:0.35;stroke-miterlimit:10;}
	.st43{fill:none;stroke:#50BC83;stroke-width:0.35;stroke-miterlimit:10;}
	.st44{fill:none;stroke:#006B43;stroke-width:0.35;stroke-miterlimit:10;}
	.st45{fill:none;stroke:#BFE2CA;stroke-width:0.35;stroke-miterlimit:10;}
	.st46{fill:#FFFFFF;stroke:#7EC89B;stroke-width:0.35;stroke-miterlimit:10;}
	.st47{fill:#FFFFFF;stroke:#1FA368;stroke-width:0.35;stroke-miterlimit:10;}
	.st48{fill:#FFFFFF;stroke:#95D0AA;stroke-width:0.35;stroke-miterlimit:10;}
	.st49{fill:#FFFFFF;stroke:#24B473;stroke-width:0.35;stroke-miterlimit:10;}
	.st50{fill:#FFFFFF;stroke:#73C594;stroke-width:0.35;stroke-miterlimit:10;}
	.st51{fill:#FFFFFF;stroke:#BFE2CA;stroke-width:0.35;stroke-miterlimit:10;}
	.st52{fill:#FFFFFF;stroke:#BFE2CA;stroke-width:0.93;stroke-miterlimit:10;}
	.st53{fill:#FFFFFF;stroke:#1FA267;stroke-width:0.93;stroke-miterlimit:10;}
	.st54{fill:#FFFFFF;stroke:#71C493;stroke-width:0.93;stroke-miterlimit:10;}
	.st55{fill:none;stroke:#21A96C;stroke-width:0.93;stroke-miterlimit:10;}
	.st56{fill:none;stroke:#50BC83;stroke-width:0.93;stroke-miterlimit:10;}
	.st57{fill:none;stroke:#006B43;stroke-width:0.93;stroke-miterlimit:10;}
	.st58{fill:none;stroke:#BFE2CA;stroke-width:0.93;stroke-miterlimit:10;}
	.st59{fill:#FFFFFF;stroke:#21A96C;stroke-width:0.93;stroke-miterlimit:10;}
	.st60{fill:#FFFFFF;stroke:#1FA368;stroke-width:0.93;stroke-miterlimit:10;}
	.st61{fill:#FFFFFF;stroke:#95D0AA;stroke-width:0.93;stroke-miterlimit:10;}
	.st62{fill:#FFFFFF;stroke:#01764A;stroke-width:0.93;stroke-miterlimit:10;}
	.st63{fill:#FFFFFF;stroke:#73C594;stroke-width:0.93;stroke-miterlimit:10;}
	.st64{fill:#FFFFFF;stroke:#44B97E;stroke-width:0.47;stroke-miterlimit:10;}
	.st65{fill:#FFFFFF;stroke:#01764A;stroke-width:0.47;stroke-miterlimit:10;}
	.st66{fill:#FFFFFF;stroke:#71C493;stroke-width:0.47;stroke-miterlimit:10;}
	.st67{fill:none;stroke:#21A96C;stroke-width:0.47;stroke-miterlimit:10;}
	.st68{fill:none;stroke:#50BC83;stroke-width:0.47;stroke-miterlimit:10;}
	.st69{fill:none;stroke:#006B43;stroke-width:0.47;stroke-miterlimit:10;}
	.st70{fill:none;stroke:#BFE2CA;stroke-width:0.47;stroke-miterlimit:10;}
	.st71{fill:#FFFFFF;stroke:#7EC89B;stroke-width:0.47;stroke-miterlimit:10;}
	.st72{fill:#FFFFFF;stroke:#1FA368;stroke-width:0.47;stroke-miterlimit:10;}
	.st73{fill:#FFFFFF;stroke:#95D0AA;stroke-width:0.47;stroke-miterlimit:10;}
	.st74{fill:#FFFFFF;stroke:#24B473;stroke-width:0.47;stroke-miterlimit:10;}
	.st75{fill:#FFFFFF;stroke:#73C594;stroke-width:0.47;stroke-miterlimit:10;}
	.st76{fill:#FFFFFF;stroke:#BFE2CA;stroke-width:0.47;stroke-miterlimit:10;}
	.st77{fill:#FFFFFF;stroke:#BFE2CA;stroke-width:0.69;stroke-miterlimit:10;}
	.st78{fill:#FFFFFF;stroke:#1FA267;stroke-width:0.69;stroke-miterlimit:10;}
	.st79{fill:#FFFFFF;stroke:#71C493;stroke-width:0.69;stroke-miterlimit:10;}
	.st80{fill:none;stroke:#21A96C;stroke-width:0.69;stroke-miterlimit:10;}
	.st81{fill:none;stroke:#50BC83;stroke-width:0.69;stroke-miterlimit:10;}
	.st82{fill:none;stroke:#006B43;stroke-width:0.69;stroke-miterlimit:10;}
	.st83{fill:none;stroke:#BFE2CA;stroke-width:0.69;stroke-miterlimit:10;}
	.st84{fill:#FFFFFF;stroke:#21A96C;stroke-width:0.69;stroke-miterlimit:10;}
	.st85{fill:#FFFFFF;stroke:#1FA368;stroke-width:0.69;stroke-miterlimit:10;}
	.st86{fill:#FFFFFF;stroke:#95D0AA;stroke-width:0.69;stroke-miterlimit:10;}
	.st87{fill:#FFFFFF;stroke:#01764A;stroke-width:0.69;stroke-miterlimit:10;}
	.st88{fill:#FFFFFF;stroke:#73C594;stroke-width:0.69;stroke-miterlimit:10;}
	.st89{fill:#112F55;}
	.st90{font-family:'Clipangle-Bold';}
	.st91{font-size:93px;}
</style>
<title>Artboard 1</title>
<g>
	<g class="st0">
		<line class="st1" x1="109.9" y1="54.1" x2="317" y2="41.6"/>
		<rect x="269" y="7" class="st1" width="71" height="70.9"/>
		<path class="st2" d="M274,23.2c1.9,0.6,4-0.4,4.6-2.3c0.6-1.9-0.4-3.9-2.4-4.5c-1.9-0.6-4,0.4-4.6,2.2C271,20.5,272,22.5,274,23.2
			C274,23.2,274,23.2,274,23.2z"/>
		<path class="st3" d="M322.9,19.1c1.7,1.2,4,0.8,5.2-0.8c1.2-1.6,0.8-3.9-0.8-5c-1.7-1.2-4-0.8-5.2,0.8c0,0,0,0,0,0
			C320.9,15.7,321.3,17.9,322.9,19.1z"/>
		<path class="st4" d="M331.7,49.5c-0.6,1.9,0.4,3.9,2.4,4.5c1.9,0.6,4-0.4,4.6-2.3c0.6-1.9-0.4-3.9-2.3-4.5
			C334.5,46.6,332.4,47.5,331.7,49.5C331.8,49.4,331.8,49.5,331.7,49.5z"/>
		<path class="st5" d="M326.1,29.8c-1.2,1.6-0.8,3.9,0.8,5c1.7,1.2,4,0.8,5.2-0.8c1.2-1.6,0.8-3.9-0.8-5c0,0,0,0,0,0
			C329.6,27.9,327.3,28.2,326.1,29.8z"/>
		<path class="st6" d="M318.6,66.3c-1.6,1.2-2,3.4-0.8,5c1.2,1.6,3.5,1.9,5.2,0.8c1.6-1.2,2-3.4,0.8-5
			C322.6,65.4,320.2,65.1,318.6,66.3C318.6,66.2,318.6,66.2,318.6,66.3z"/>
		<path class="st7" d="M288.2,22.6c-1.9,0.6-3,2.6-2.4,4.5c0.6,1.9,2.7,2.9,4.7,2.3c1.9-0.6,3-2.6,2.4-4.5
			C292.2,23,290.2,22,288.2,22.6z"/>
		<path class="st8" d="M301,42.4c-2,0-3.7,1.6-3.7,3.6c0,2,1.7,3.6,3.7,3.6c2,0,3.7-1.6,3.7-3.6C304.6,44,303,42.4,301,42.4z"/>
		<path class="st9" d="M289.5,61.4c-1.7-1.2-4-0.8-5.2,0.8c-1.2,1.6-0.8,3.9,0.8,5c1.7,1.2,4,0.8,5.2-0.8c0,0,0,0,0,0
			C291.6,64.8,291.2,62.5,289.5,61.4C289.5,61.4,289.5,61.4,289.5,61.4z"/>
		<path class="st10" d="M272.8,69.3c-1.2-1.6-3.5-2-5.2-0.8c-1.7,1.2-2,3.4-0.8,5c1.2,1.6,3.5,2,5.2,0.8c0,0,0,0,0,0
			C273.7,73.1,274,70.9,272.8,69.3z"/>
		<path class="st11" d="M278.9,57.4c-0.6-1.9-2.7-2.9-4.7-2.3c-1.9,0.6-3,2.6-2.4,4.5s2.7,2.9,4.7,2.3c0,0,0,0,0,0
			C278.5,61.3,279.5,59.3,278.9,57.4z"/>
		<path class="st12" d="M277.2,33.5c0.6-1.9-0.4-3.9-2.4-4.5c-1.9-0.6-4,0.4-4.7,2.3c-0.6,1.9,0.4,3.9,2.3,4.5
			C274.5,36.4,276.6,35.4,277.2,33.5C277.2,33.5,277.2,33.5,277.2,33.5z"/>
		<path class="st13" d="M296.3,15c1.9-0.6,2.9-2.7,2.3-4.6c-0.7-1.9-2.8-2.9-4.7-2.2c-1.9,0.6-2.9,2.6-2.3,4.5
			C292.2,14.6,294.3,15.6,296.3,15C296.2,15,296.3,15,296.3,15z"/>
		<path class="st14" d="M316.6,27.5c1.1,0.7,2.5,0.5,3.3-0.5c0.8-1,0.5-2.5-0.5-3.2c-1.1-0.7-2.5-0.5-3.3,0.5
			C315.3,25.4,315.5,26.8,316.6,27.5C316.6,27.5,316.6,27.5,316.6,27.5z"/>
		<path class="st15" d="M324.4,42.4c0,1.3,1.1,2.3,2.4,2.3s2.4-1,2.4-2.3s-1.1-2.3-2.4-2.3S324.4,41.2,324.4,42.4z"/>
		<path class="st16" d="M311.7,53.7c-0.4,1.2,0.3,2.5,1.5,2.9s2.6-0.3,3-1.5c0.4-1.2-0.3-2.5-1.5-2.9
			C313.5,51.8,312.1,52.5,311.7,53.7C311.7,53.7,311.7,53.7,311.7,53.7z"/>
		<path class="st17" d="M292.7,34.7c-0.8,1-0.5,2.5,0.5,3.2c1.1,0.7,2.5,0.5,3.3-0.5c0.8-1,0.5-2.5-0.5-3.2c0,0,0,0,0,0
			C294.9,33.5,293.4,33.7,292.7,34.7z"/>
		<path class="st18" d="M322.4,57.3c-1.1,0.7-1.3,2.2-0.5,3.2c0.8,1,2.2,1.3,3.3,0.5c1.1-0.7,1.3-2.2,0.5-3.2c0,0,0,0,0,0
			C324.9,56.8,323.4,56.6,322.4,57.3z"/>
		<path class="st19" d="M311,41.8c-1.2,0.4-1.9,1.7-1.5,2.9c0.4,1.2,1.7,1.9,3,1.5c1.2-0.4,1.9-1.7,1.5-2.9c0,0,0,0,0,0
			C313.5,42,312.2,41.4,311,41.8z"/>
		<path class="st20" d="M305.5,60.8c-1.3,0-2.4,1-2.4,2.3s1.1,2.3,2.4,2.3s2.4-1,2.4-2.3S306.8,60.8,305.5,60.8z"/>
		<path class="st21" d="M299.6,60c-1.2-0.4-2.6,0.2-3,1.4c-0.4,1.2,0.3,2.5,1.5,2.9c1.2,0.4,2.6-0.2,3-1.4c0,0,0,0,0,0
			C301.5,61.6,300.8,60.3,299.6,60z"/>
		<path class="st22" d="M290.2,53.3c-0.8-1-2.2-1.3-3.3-0.5c-1.1,0.7-1.3,2.2-0.5,3.2c0.8,1,2.2,1.3,3.3,0.5c0,0,0,0,0,0
			C290.7,55.7,290.9,54.3,290.2,53.3z"/>
		<path class="st23" d="M284.8,41.4c-0.4-1.2-1.7-1.9-3-1.5c-1.2,0.4-1.9,1.7-1.5,2.9c0.4,1.2,1.7,1.9,3,1.5
			C284.5,43.9,285.2,42.6,284.8,41.4C284.8,41.4,284.8,41.4,284.8,41.4z"/>
		<path class="st24" d="M312.7,34.3c0-1.3-1.1-2.3-2.4-2.3c-1.3,0-2.4,1-2.4,2.3c0,1.3,1.1,2.3,2.4,2.3S312.7,35.6,312.7,34.3
			L312.7,34.3z"/>
		<path class="st25" d="M299.6,24.9c1.2-0.4,1.9-1.7,1.5-2.9c-0.4-1.2-1.7-1.9-3-1.5c-1.2,0.4-1.9,1.7-1.5,2.9c0,0,0,0,0,0
			C297.1,24.7,298.4,25.3,299.6,24.9z"/>
		<path class="st26" d="M311.7,24.6c1.2,0.4,2.6-0.3,3-1.5c0.4-1.2-0.3-2.5-1.5-2.9c-1.2-0.4-2.6,0.3-3,1.5c0,0,0,0,0,0
			C309.8,22.9,310.5,24.2,311.7,24.6z"/>
		<rect x="214.2" y="20.8" class="st1" width="51.1" height="51"/>
		<path class="st27" d="M217.7,32.4c1.4,0.4,2.9-0.3,3.4-1.7c0.4-1.4-0.3-2.8-1.7-3.2c-1.4-0.4-2.9,0.3-3.3,1.7
			C215.6,30.6,216.4,32,217.7,32.4z"/>
		<path class="st28" d="M253,29.5c1.2,0.8,2.9,0.6,3.7-0.6c0.9-1.2,0.6-2.8-0.6-3.6c-1.2-0.8-2.9-0.6-3.7,0.6c0,0,0,0,0,0
			C251.5,27.1,251.8,28.7,253,29.5z"/>
		<path class="st29" d="M259.3,51.4c-0.4,1.4,0.3,2.8,1.7,3.2c1.4,0.4,2.9-0.3,3.3-1.7c0.4-1.3-0.3-2.8-1.7-3.2
			C261.3,49.3,259.8,50,259.3,51.4z"/>
		<path class="st30" d="M255.2,37.3c-0.9,1.2-0.6,2.8,0.6,3.6c1.2,0.8,2.9,0.6,3.7-0.6c0.9-1.2,0.6-2.8-0.6-3.6c0,0,0,0,0,0
			C257.7,35.8,256,36.1,255.2,37.3C255.2,37.2,255.2,37.2,255.2,37.3z"/>
		<path class="st31" d="M249.8,63.4c-1.2,0.8-1.5,2.5-0.6,3.6s2.5,1.4,3.7,0.6c1.2-0.8,1.5-2.5,0.6-3.6c0,0,0,0,0,0
			C252.7,62.9,251,62.6,249.8,63.4C249.8,63.4,249.8,63.4,249.8,63.4z"/>
		<path class="st32" d="M228,32c-1.4,0.4-2.2,1.9-1.7,3.3c0.5,1.4,2,2.1,3.3,1.7c1.4-0.4,2.1-1.9,1.7-3.2
			C230.9,32.3,229.4,31.6,228,32z"/>
		<path class="st33" d="M237.2,46.3c-1.5,0-2.6,1.2-2.6,2.6c0,1.4,1.2,2.6,2.7,2.6c1.5,0,2.6-1.2,2.6-2.6
			C239.9,47.5,238.7,46.3,237.2,46.3C237.2,46.3,237.2,46.3,237.2,46.3z"/>
		<path class="st34" d="M228.9,60c-1.2-0.8-2.9-0.6-3.7,0.6c-0.9,1.2-0.6,2.8,0.6,3.6c1.2,0.8,2.9,0.6,3.7-0.6c0,0,0,0,0,0
			C230.4,62.4,230.1,60.8,228.9,60z"/>
		<path class="st35" d="M216.9,65.7c-0.9-1.2-2.5-1.4-3.7-0.6c-1.2,0.8-1.5,2.5-0.6,3.6c0.9,1.2,2.5,1.4,3.7,0.6c0,0,0,0,0,0
			C217.5,68.5,217.8,66.8,216.9,65.7C216.9,65.7,216.9,65.7,216.9,65.7z"/>
		<path class="st36" d="M221.3,57.1c-0.5-1.4-1.9-2.1-3.3-1.7s-2.2,1.9-1.7,3.3c0.5,1.4,1.9,2.1,3.3,1.7c0,0,0,0,0,0
			C221,59.9,221.8,58.4,221.3,57.1z"/>
		<path class="st37" d="M220.1,39.9c0.4-1.4-0.4-2.8-1.8-3.2s-2.9,0.4-3.3,1.7c-0.4,1.4,0.4,2.8,1.7,3.2
			C218.1,42.1,219.6,41.3,220.1,39.9C220.1,39.9,220.1,39.9,220.1,39.9z"/>
		<path class="st38" d="M233.8,26.6c1.4-0.5,2.1-1.9,1.7-3.3c-0.5-1.3-2-2.1-3.4-1.6c-1.4,0.4-2.1,1.9-1.7,3.2
			C230.9,26.3,232.4,27,233.8,26.6C233.8,26.6,233.8,26.6,233.8,26.6z"/>
		<path class="st39" d="M248.4,35.6c0.8,0.6,1.8,0.4,2.4-0.3c0.6-0.7,0.4-1.8-0.3-2.3l0,0c-0.7-0.6-1.8-0.4-2.4,0.3
			C247.5,33.9,247.6,35,248.4,35.6C248.4,35.6,248.4,35.6,248.4,35.6L248.4,35.6z"/>
		<path class="st40" d="M254,46.3c0,0.9,0.8,1.7,1.7,1.7s1.7-0.7,1.7-1.7c0-0.9-0.8-1.7-1.7-1.7S254,45.4,254,46.3L254,46.3z"/>
		<path class="st41" d="M244.9,54.4c-0.4,0.8,0.1,1.8,0.9,2.2c0.9,0.3,1.9-0.1,2.2-0.9c0-0.1,0.1-0.2,0.1-0.2
			c0.4-0.8-0.1-1.8-0.9-2.2c-0.9-0.3-1.9,0.1-2.2,0.9C245,54.2,244.9,54.3,244.9,54.4z"/>
		<path class="st42" d="M231.2,40.8c-0.6,0.7-0.4,1.8,0.4,2.3c0.8,0.5,1.8,0.4,2.4-0.4c0.6-0.7,0.4-1.8-0.4-2.3c0,0,0,0,0,0
			C232.8,39.9,231.7,40.1,231.2,40.8z"/>
		<path class="st43" d="M252.6,57c-0.8,0.5-0.9,1.6-0.4,2.3c0.5,0.7,1.6,0.9,2.4,0.4c0.8-0.5,0.9-1.6,0.4-2.3c0,0,0,0,0,0
			C254.4,56.7,253.3,56.5,252.6,57z"/>
		<path class="st44" d="M244.4,45.8c-0.9,0.3-1.4,1.2-1.1,2.1c0.3,0.9,1.2,1.3,2.1,1.1c0.9-0.3,1.4-1.2,1.1-2.1c0,0,0,0,0,0
			C246.2,46,245.3,45.6,244.4,45.8C244.4,45.8,244.4,45.8,244.4,45.8z"/>
		<path class="st45" d="M240.4,59.6c-0.9,0-1.7,0.7-1.7,1.6c0,0.9,0.7,1.7,1.7,1.7c0.9,0,1.7-0.7,1.7-1.6c0,0,0,0,0,0
			C242.1,60.3,241.4,59.6,240.4,59.6C240.4,59.6,240.4,59.6,240.4,59.6z"/>
		<path class="st46" d="M236.2,58.9c-0.9-0.3-1.8,0.2-2.1,1.1c-0.3,0.9,0.2,1.8,1.1,2.1c0.9,0.3,1.8-0.2,2.1-1.1c0,0,0,0,0,0
			C237.6,60.1,237.1,59.2,236.2,58.9z"/>
		<path class="st47" d="M229.4,54.1c-0.5-0.7-1.6-0.9-2.4-0.4c-0.8,0.5-0.9,1.6-0.4,2.3c0.5,0.7,1.6,0.9,2.4,0.4c0,0,0,0,0,0
			C229.8,55.9,229.9,54.8,229.4,54.1z"/>
		<path class="st48" d="M225.5,45.5c-0.3-0.9-1.3-1.3-2.1-1c-0.9,0.3-1.4,1.2-1.1,2.1c0.3,0.9,1.2,1.3,2.1,1.1
			C225.3,47.3,225.8,46.4,225.5,45.5z"/>
		<path class="st49" d="M245.6,40.5c0-0.9-0.8-1.7-1.7-1.7c-0.9,0-1.7,0.7-1.7,1.7c0,0.9,0.8,1.7,1.7,1.7
			C244.9,42.1,245.6,41.4,245.6,40.5C245.6,40.5,245.6,40.5,245.6,40.5z"/>
		<path class="st50" d="M236.2,33.7c0.9-0.3,1.4-1.2,1.1-2.1c-0.3-0.9-1.2-1.3-2.1-1.1c-0.9,0.3-1.4,1.2-1.1,2.1c0,0,0,0,0,0
			C234.4,33.5,235.3,34,236.2,33.7C236.2,33.7,236.2,33.7,236.2,33.7z"/>
		<path class="st51" d="M244.9,33.5c0.9,0.3,1.8-0.2,2.1-1.1c0.3-0.9-0.2-1.8-1.1-2.1c-0.9-0.3-1.8,0.2-2.1,1.1
			C243.5,32.2,244,33.2,244.9,33.5C244.9,33.5,244.9,33.5,244.9,33.5z"/>
		<rect x="142" y="16.5" class="st1" width="67.5" height="67.4"/>
		<path class="st52" d="M146.8,31.9c1.9,0.6,3.9-0.4,4.5-2.2s-0.4-3.7-2.2-4.3c-1.9-0.6-3.9,0.4-4.5,2.2c0,0,0,0,0,0.1
			C144,29.4,145,31.3,146.8,31.9z"/>
		<path class="st53" d="M193.3,28c1.6,1.1,3.8,0.8,4.9-0.7s0.8-3.7-0.7-4.8c-1.6-1.1-3.8-0.8-4.9,0.7c0,0,0,0,0,0
			C191.4,24.7,191.7,26.9,193.3,28z"/>
		<path class="st54" d="M201.7,56.9c-0.6,1.8,0.4,3.7,2.2,4.3c1.9,0.6,3.9-0.4,4.5-2.2c0.6-1.8-0.4-3.7-2.2-4.3c0,0,0,0-0.1,0
			C204.3,54.1,202.3,55.1,201.7,56.9z"/>
		<path class="st55" d="M196.3,38.2c-1.2,1.5-0.8,3.7,0.7,4.8c1.6,1.1,3.8,0.8,4.9-0.7c1.2-1.5,0.8-3.7-0.7-4.8c0,0,0,0,0,0
			C199.6,36.3,197.4,36.7,196.3,38.2z"/>
		<path class="st56" d="M189.2,72.8c-1.6,1.1-2,3.3-0.8,4.8c1.1,1.5,3.3,1.9,4.9,0.8c1.6-1.1,2-3.3,0.8-4.8c0,0,0,0,0,0
			C193,72.1,190.8,71.7,189.2,72.8z"/>
		<path class="st57" d="M160.3,31.3c-1.9,0.6-2.9,2.5-2.3,4.3c0.6,1.8,2.6,2.8,4.4,2.2c1.9-0.6,2.9-2.5,2.3-4.3c0,0,0,0,0,0
			C164.1,31.7,162.2,30.7,160.3,31.3z"/>
		<path class="st58" d="M172.4,50.2c-2,0-3.5,1.5-3.5,3.4s1.6,3.4,3.5,3.4s3.5-1.5,3.5-3.4S174.4,50.2,172.4,50.2z"/>
		<path class="st59" d="M161.6,68.2c-1.6-1.1-3.8-0.8-4.9,0.7s-0.8,3.7,0.7,4.8c1.6,1.1,3.8,0.8,4.9-0.7c0,0,0,0,0,0
			C163.5,71.4,163.1,69.3,161.6,68.2z"/>
		<path class="st60" d="M145.7,75.7c-1.1-1.5-3.3-1.9-4.9-0.8c-1.6,1.1-2,3.3-0.8,4.8c1.1,1.5,3.3,1.9,4.9,0.8c0,0,0,0,0,0
			C146.5,79.4,146.8,77.2,145.7,75.7z"/>
		<path class="st61" d="M151.5,64.4c-0.6-1.8-2.6-2.8-4.4-2.3c-1.9,0.6-2.9,2.5-2.3,4.3c0.6,1.8,2.5,2.8,4.4,2.3
			C151,68.1,152.1,66.2,151.5,64.4C151.5,64.4,151.5,64.4,151.5,64.4z"/>
		<path class="st62" d="M149.9,41.7c0.6-1.8-0.4-3.7-2.3-4.3c-1.9-0.6-3.9,0.4-4.5,2.2c-0.6,1.8,0.4,3.7,2.3,4.3c0,0,0,0,0,0
			C147.3,44.5,149.3,43.5,149.9,41.7z"/>
		<path class="st63" d="M168,24.1c1.9-0.6,2.9-2.5,2.3-4.3c-0.6-1.8-2.6-2.8-4.4-2.2c-1.9,0.6-2.9,2.5-2.3,4.3c0,0,0,0,0,0
			C164.2,23.7,166.2,24.6,168,24.1z"/>
		<path class="st64" d="M187.3,36c1,0.7,2.4,0.5,3.1-0.5c0.7-1,0.5-2.3-0.5-3c-1-0.7-2.4-0.5-3.1,0.5
			C186.1,33.9,186.3,35.3,187.3,36C187.3,36,187.3,36,187.3,36z"/>
		<path class="st65" d="M194.7,50.2c0,1.2,1,2.2,2.2,2.2c1.2,0,2.2-1,2.2-2.2c0-1.2-1-2.2-2.2-2.2l0,0C195.7,48,194.7,49,194.7,50.2
			z"/>
		<path class="st66" d="M182.7,60.9c-0.4,1.1,0.3,2.4,1.4,2.7c1.2,0.4,2.4-0.3,2.8-1.4c0.4-1.1-0.3-2.4-1.4-2.7c0,0,0,0,0,0
			C184.3,59.1,183.1,59.7,182.7,60.9C182.7,60.9,182.7,60.9,182.7,60.9z"/>
		<path class="st67" d="M164.5,42.9c-0.7,1-0.5,2.3,0.5,3c1,0.7,2.4,0.5,3.1-0.5c0.7-1,0.5-2.3-0.5-3
			C166.6,41.7,165.2,41.9,164.5,42.9L164.5,42.9z"/>
		<path class="st68" d="M192.7,64.3c-1,0.7-1.2,2.1-0.5,3c0.7,1,2.1,1.2,3.1,0.5c1-0.7,1.2-2.1,0.5-3c0,0,0,0,0,0
			C195.1,63.9,193.7,63.6,192.7,64.3z"/>
		<path class="st69" d="M181.9,49.5c-1.2,0.4-1.8,1.6-1.4,2.7c0.4,1.1,1.7,1.8,2.8,1.4c1.2-0.4,1.8-1.6,1.4-2.7
			C184.4,49.8,183.1,49.2,181.9,49.5C181.9,49.5,181.9,49.5,181.9,49.5z"/>
		<path class="st70" d="M176.7,67.7c-1.2,0-2.2,1-2.2,2.2s1,2.2,2.2,2.2c1.2,0,2.2-1,2.2-2.2v0C179,68.7,177.9,67.7,176.7,67.7z"/>
		<path class="st71" d="M171.1,66.8c-1.2-0.4-2.4,0.3-2.8,1.4c-0.4,1.1,0.3,2.4,1.5,2.7c1.2,0.4,2.4-0.3,2.8-1.4
			C173,68.4,172.3,67.2,171.1,66.8C171.2,66.8,171.1,66.8,171.1,66.8z"/>
		<path class="st72" d="M162.1,60.5c-0.7-1-2.1-1.2-3.1-0.5s-1.2,2.1-0.5,3c0.7,1,2.1,1.2,3.1,0.5C162.6,62.8,162.8,61.4,162.1,60.5
			C162.1,60.5,162.1,60.5,162.1,60.5z"/>
		<path class="st73" d="M157,49.2c-0.4-1.1-1.7-1.8-2.8-1.4c-1.2,0.4-1.8,1.6-1.4,2.7c0.4,1.1,1.6,1.8,2.8,1.4
			C156.8,51.6,157.4,50.3,157,49.2C157,49.2,157,49.2,157,49.2z"/>
		<path class="st74" d="M183.6,42.5c0-1.2-1-2.2-2.2-2.2c-1.2,0-2.2,1-2.2,2.2s1,2.2,2.2,2.2l0,0C182.6,44.6,183.6,43.7,183.6,42.5z
			"/>
		<path class="st75" d="M171.2,33.6c1.2-0.4,1.8-1.6,1.4-2.7c-0.4-1.1-1.7-1.8-2.8-1.4c-1.2,0.4-1.8,1.6-1.4,2.7
			C168.7,33.3,170,34,171.2,33.6C171.1,33.6,171.1,33.6,171.2,33.6z"/>
		<path class="st76" d="M182.7,33.2c1.2,0.4,2.4-0.3,2.8-1.4c0.4-1.1-0.3-2.4-1.4-2.7c-1.2-0.4-2.4,0.3-2.8,1.4c0,0,0,0,0,0
			C180.8,31.6,181.5,32.8,182.7,33.2C182.7,33.2,182.7,33.2,182.7,33.2z"/>
		<rect x="86" y="29" class="st1" width="50.1" height="50.1"/>
		<path class="st77" d="M89.5,40.5c1.4,0.5,2.8-0.2,3.3-1.5c0.5-1.3-0.2-2.8-1.6-3.2s-2.8,0.2-3.3,1.5c0,0,0,0,0,0.1
			C87.4,38.6,88.2,40,89.5,40.5z"/>
		<path class="st78" d="M124.1,37.6c1.2,0.8,2.8,0.6,3.6-0.6c0.8-1.1,0.6-2.7-0.6-3.5c-1.2-0.8-2.8-0.6-3.6,0.6
			C122.6,35.2,122.9,36.7,124.1,37.6C124,37.6,124.1,37.6,124.1,37.6z"/>
		<path class="st79" d="M130.3,59c-0.4,1.3,0.3,2.8,1.7,3.2s2.8-0.3,3.3-1.6c0.4-1.3-0.3-2.8-1.7-3.2C132.2,57,130.7,57.7,130.3,59
			C130.3,59,130.3,59,130.3,59z"/>
		<path class="st80" d="M126.3,45.2c-0.8,1.1-0.6,2.7,0.6,3.5c1.2,0.8,2.8,0.6,3.6-0.6c0.8-1.1,0.6-2.7-0.6-3.5
			C128.7,43.8,127.1,44,126.3,45.2C126.3,45.2,126.3,45.2,126.3,45.2z"/>
		<path class="st81" d="M121,70.9c-1.2,0.8-1.4,2.4-0.6,3.5c0.9,1.1,2.5,1.4,3.6,0.5c1.2-0.8,1.4-2.4,0.6-3.5
			C123.8,70.3,122.2,70,121,70.9C121,70.9,121,70.9,121,70.9z"/>
		<path class="st82" d="M99.6,40c-1.4,0.4-2.1,1.9-1.6,3.2c0.5,1.3,1.9,2,3.3,1.6c1.4-0.4,2.1-1.9,1.6-3.2c0,0,0,0,0,0
			C102.4,40.3,100.9,39.6,99.6,40z"/>
		<path class="st83" d="M108.5,54.1c-1.4,0-2.6,1.1-2.6,2.5c0,1.4,1.2,2.5,2.6,2.6c1.4,0,2.6-1.1,2.6-2.5c0,0,0,0,0,0
			C111.2,55.2,110,54.1,108.5,54.1L108.5,54.1z"/>
		<path class="st84" d="M100.5,67.4c-1.2-0.8-2.8-0.6-3.6,0.6c-0.8,1.1-0.6,2.7,0.6,3.5c1.2,0.8,2.8,0.6,3.6-0.6
			C101.9,69.8,101.7,68.2,100.5,67.4C100.5,67.4,100.5,67.4,100.5,67.4z"/>
		<path class="st85" d="M88.7,73c-0.8-1.1-2.5-1.4-3.6-0.6s-1.4,2.4-0.6,3.5c0.8,1.1,2.5,1.4,3.6,0.6C89.3,75.7,89.6,74.2,88.7,73
			C88.7,73,88.7,73,88.7,73z"/>
		<path class="st86" d="M93,64.6c-0.4-1.3-1.9-2.1-3.3-1.6c-1.4,0.4-2.1,1.9-1.7,3.2c0.4,1.3,1.9,2.1,3.3,1.6
			C92.7,67.4,93.4,65.9,93,64.6C93,64.6,93,64.6,93,64.6z"/>
		<path class="st87" d="M91.8,47.8c0.4-1.3-0.3-2.8-1.7-3.2c-1.4-0.4-2.8,0.3-3.3,1.6c-0.4,1.3,0.3,2.8,1.7,3.2
			C89.9,49.8,91.4,49.1,91.8,47.8z"/>
		<path class="st88" d="M105.3,34.7c1.4-0.4,2.2-1.8,1.7-3.2c-0.4-1.3-1.9-2.1-3.2-1.7c-1.4,0.4-2.2,1.8-1.7,3.2c0,0,0,0,0,0
			C102.4,34.4,103.9,35.1,105.3,34.7z"/>
		<path class="st39" d="M119.6,43.6c0.7,0.5,1.8,0.4,2.3-0.4c0.5-0.7,0.4-1.7-0.4-2.3l0,0c-0.7-0.5-1.8-0.4-2.3,0.4
			C118.7,42,118.8,43,119.6,43.6z"/>
		<path class="st40" d="M125.1,54.1c0,0.9,0.7,1.6,1.7,1.6c0.9,0,1.7-0.7,1.7-1.6s-0.7-1.6-1.7-1.6
			C125.8,52.4,125.1,53.2,125.1,54.1L125.1,54.1z"/>
		<path class="st41" d="M116.2,62c-0.3,0.8,0.2,1.8,1.1,2c0.9,0.3,1.8-0.2,2.1-1s-0.2-1.8-1.1-2c0,0,0,0,0,0
			C117.4,60.7,116.4,61.2,116.2,62C116.2,62,116.2,62,116.2,62z"/>
		<path class="st42" d="M102.7,48.7c-0.5,0.7-0.4,1.7,0.4,2.3c0.7,0.5,1.8,0.3,2.3-0.4c0.5-0.7,0.4-1.7-0.4-2.2
			C104.3,47.8,103.3,47.9,102.7,48.7C102.7,48.6,102.7,48.6,102.7,48.7z"/>
		<path class="st43" d="M123.7,64.5c-0.7,0.5-0.9,1.6-0.3,2.3s1.6,0.9,2.3,0.3c0.7-0.5,0.9-1.5,0.4-2.2
			C125.5,64.2,124.4,64,123.7,64.5C123.7,64.5,123.7,64.5,123.7,64.5z"/>
		<path class="st44" d="M115.6,53.6c-0.9,0.3-1.3,1.2-1.1,2c0.3,0.8,1.2,1.3,2.1,1c0.9-0.3,1.3-1.2,1.1-2
			C117.4,53.8,116.5,53.3,115.6,53.6z"/>
		<path class="st45" d="M111.7,67.1c-0.9,0-1.7,0.7-1.7,1.6c0,0.9,0.7,1.6,1.7,1.6c0.9,0,1.7-0.7,1.7-1.6S112.7,67.1,111.7,67.1
			L111.7,67.1z"/>
		<path class="st46" d="M107.6,66.4c-0.9-0.3-1.8,0.2-2.1,1c-0.3,0.8,0.2,1.8,1.1,2c0.9,0.3,1.8-0.2,2.1-1c0,0,0,0,0,0
			C109,67.6,108.5,66.7,107.6,66.4z"/>
		<path class="st47" d="M100.9,61.7c-0.6-0.7-1.6-0.9-2.3-0.3c-0.7,0.5-0.9,1.6-0.3,2.3c0.5,0.7,1.6,0.8,2.3,0.3
			C101.3,63.5,101.5,62.5,100.9,61.7C100.9,61.7,100.9,61.7,100.9,61.7z"/>
		<path class="st48" d="M97.1,53.3c-0.3-0.9-1.2-1.3-2.1-1c-0.9,0.3-1.4,1.2-1.1,2c0.3,0.9,1.2,1.3,2.1,1
			C96.9,55.1,97.4,54.2,97.1,53.3L97.1,53.3z"/>
		<path class="st49" d="M116.9,48.3c0-0.9-0.7-1.6-1.7-1.6c-0.9,0-1.7,0.7-1.7,1.6c0,0.9,0.7,1.6,1.7,1.6c0,0,0,0,0,0
			C116.1,49.9,116.9,49.2,116.9,48.3z"/>
		<path class="st50" d="M107.6,41.7c0.9-0.3,1.4-1.2,1.1-2c-0.3-0.9-1.2-1.3-2.1-1c-0.9,0.3-1.4,1.2-1.1,2c0,0,0,0,0,0
			C105.8,41.5,106.7,42,107.6,41.7z"/>
		<path class="st51" d="M116.2,41.5c0.9,0.3,1.8-0.2,2.1-1c0.3-0.8-0.2-1.8-1.1-2c-0.9-0.3-1.8,0.2-2.1,1
			C114.8,40.3,115.3,41.2,116.2,41.5z"/>
	</g>
</g>
<text transform="matrix(1 0 0 1 7 148)" class="st89 st90 st91">Explore</text>
</svg>
