<?xml version="1.0" encoding="utf-8"?>
<!-- Generator: Adobe Illustrator 23.0.3, SVG Export Plug-In . SVG Version: 6.00 Build 0)  -->
<svg version="1.1" id="Layer_1" xmlns="http://www.w3.org/2000/svg" xmlns:xlink="http://www.w3.org/1999/xlink" x="0px" y="0px"
	 viewBox="0 0 1200 1200" style="enable-background:new 0 0 1200 1200;" xml:space="preserve">
<style type="text/css">
	.st0{fill:#FFFFFF;}
	.st1{fill:#66CC99;}
</style>
<circle class="st0" cx="598.2" cy="601.8" r="562.5"/>
<g transform="translate(600 600) scale(0.69 0.69) rotate(0) translate(-600 -600)">
	<path class="st1" d="M597.5-212.7c-450.5,0-815.3,364.8-815.3,815.3s364.8,815.3,815.3,815.3s815.3-364.8,815.3-815.3
		S1048-212.7,597.5-212.7z M1020.3,663.4h-362v362c0,33.2-27.6,60.8-60.8,60.8s-60.8-27.6-60.8-60.8v-362h-362
		c-33.2,0-60.8-27.6-60.8-60.8c0-33.2,27.6-60.8,60.8-60.8h362v-362c0-33.2,27.6-60.8,60.8-60.8s60.8,27.6,60.8,60.8v362h362
		c33.2,0,60.8,27.6,60.8,60.8C1081.1,635.8,1053.4,663.4,1020.3,663.4z"/>
</g>
</svg>
