<?xml version="1.0" encoding="utf-8"?>
<!-- Generator: Adobe Illustrator 23.0.3, SVG Export Plug-In . SVG Version: 6.00 Build 0)  -->
<svg version="1.1" id="Layer_1" xmlns="http://www.w3.org/2000/svg" xmlns:xlink="http://www.w3.org/1999/xlink" x="0px" y="0px"
	 viewBox="0 0 300 300" style="enable-background:new 0 0 300 300;" xml:space="preserve">
<style type="text/css">
	.st0{fill:#4EC48F;}
</style>
<title>Artboard 80</title>
<path class="st0" d="M213.4,23h-127c-26.3,0-47.6,21.4-47.6,47.6v63.5H7v31.8h31.8v63.5c0,26.3,21.4,47.6,47.6,47.6h127
	c26.3,0,47.6-21.4,47.6-47.6V70.6C261,44.4,239.6,23,213.4,23z M229.3,229.4c0,8.7-7.1,15.9-15.9,15.9h-127
	c-8.7,0-15.9-7.1-15.9-15.9v-63.5h72.8l-31.8,31.8l22.5,22.5l58.9-58.9c6.2-6.2,6.2-16.3,0-22.5l0,0L134,79.9l-22.5,22.5l31.8,31.8
	H70.5V70.6c0-8.7,7.1-15.9,15.9-15.9h127c8.7,0,15.9,7.1,15.9,15.9L229.3,229.4L229.3,229.4z"/>
</svg>
