<?xml version="1.0" encoding="utf-8"?>
<!-- Generator: Adobe Illustrator 23.0.3, SVG Export Plug-In . SVG Version: 6.00 Build 0)  -->
<svg version="1.1" xmlns="http://www.w3.org/2000/svg" xmlns:xlink="http://www.w3.org/1999/xlink" x="0px" y="0px"
	 viewBox="0 0 300 300" style="enable-background:new 0 0 300 300;" xml:space="preserve">
<style type="text/css">
	.st0{fill:#66CC99;}
</style>
<g id="Layer_2">
</g>
<g id="Layer_1">
	<path class="st0" d="M284.7,40.5l-25.2-25.2c-10.5-10.5-27.9-10.5-38.4,0l-47.4,47.4h-109c-24.6,0-44.7,20.1-44.7,45v140.1
		c0,24.6,20.1,45,44.7,45h127.6c24.6,0,44.7-20.1,44.7-45V126.3l47.4-47.4C295.2,68.4,295.2,51.3,284.7,40.5z M92.1,183.3
		c1.8-5.1,3.9-9.9,6.6-14.7l32.7,32.7c-4.8,2.7-9.6,4.8-14.7,6.6l-36.3,12L92.1,183.3z M151.8,186.3c-1.5,1.5-3.3,3-5.1,4.5
		l-37.5-37.2c1.5-1.8,3-3.6,4.5-5.1l94.8-94.8l37.8,37.8L151.8,186.3z M219,247.5c0,14.7-12,26.7-26.7,26.7H64.7
		c-14.7,0-26.7-12-26.7-26.7V107.7C38,93,50,81,64.7,81h90.7l-54.6,54.6c-11.7,11.7-20.7,26.4-26.1,42.3l-13.8,42.3
		c-1.8,5.4-0.3,11.1,3.6,15.3c2.7,2.7,6.6,4.5,10.5,4.5c1.5,0,3-0.3,4.8-0.9l42.3-14.1c15.9-5.1,30.6-14.1,42.3-26.1l54.6-54.6
		V247.5z M271.8,66.3l-12.6,12.6l-37.8-38.1L234,28.2c1.8-1.8,4.2-2.7,6.3-2.7c2.4,0,4.5,0.9,6.3,2.7l25.2,25.2
		C275.4,57,275.4,62.7,271.8,66.3z"/>
</g>
</svg>
