<svg height='300px' width='300px'  fill="#66cc99" xmlns="http://www.w3.org/2000/svg" xmlns:xlink="http://www.w3.org/1999/xlink" xml:space="preserve" version="1.1" style="shape-rendering:geometricPrecision;text-rendering:geometricPrecision;image-rendering:optimizeQuality;" viewBox="0 0 847 847" x="0px" y="0px" fill-rule="evenodd" clip-rule="evenodd"><defs><style type="text/css">
   
    .fil0 {fill:#66cc99}
   
  </style></defs><g><path class="fil0" d="M253 732l-59 0 0 18c0,41 33,74 74,74l424 0c40,0 74,-33 74,-74l0 -539c0,-41 -34,-74 -74,-74l-23 0 0 59 23 0c8,0 14,6 14,15l0 539c0,8 -6,15 -14,15l-424 0c-8,0 -15,-7 -15,-15l0 -18zm-98 -709l424 0c40,0 74,33 74,74l0 539c0,41 -34,74 -74,74l-424 0c-41,0 -74,-33 -74,-74l0 -539c0,-41 33,-74 74,-74zm211 140c39,0 39,60 0,60l-117 0c-39,0 -39,-60 0,-60l117 0zm119 347c39,0 39,59 0,59l-236 0c-39,0 -39,-59 0,-59l236 0zm0 -116c39,0 39,60 0,60l-236 0c-39,0 -39,-60 0,-60l236 0zm0 -115c39,0 39,59 0,59l-236 0c-39,0 -39,-59 0,-59l236 0zm94 -197l-424 0c-8,0 -15,6 -15,15l0 539c0,8 7,15 15,15l424 0c8,0 15,-7 15,-15l0 -539c0,-9 -7,-15 -15,-15z"></path></g></svg>