<?xml version="1.0" encoding="utf-8"?>
<!-- Generator: Adobe Illustrator 23.0.3, SVG Export Plug-In . SVG Version: 6.00 Build 0)  -->
<svg version="1.1" xmlns="http://www.w3.org/2000/svg" xmlns:xlink="http://www.w3.org/1999/xlink" x="0px" y="0px"
	 viewBox="0 0 300 300" style="enable-background:new 0 0 300 300;" xml:space="preserve">
<style type="text/css">
	.st0{fill:#4EC48F;}
</style>
<g id="Layer_2">
</g>
<g id="Layer_1">
	<g>
		<path class="st0" d="M150,5C69.1,5.6,4.4,71.1,5,151c0.6,79.3,65.4,144,145,144h1c38.7-0.3,75.1-15.5,102.1-43.2
			S295.3,187.7,295,149C294.4,69.8,229.6,5,150,5z M243.3,243.3c-23.5,23.8-59.1,37.1-92.6,37.4H150c-68.6,0-130-61.1-130.3-129.7
			C19.3,81.7,80.1,20.3,149.4,19.7c69.6,0,130.7,61.1,131.3,129.7C280.7,182.9,266.8,219.4,243.3,243.3z"/>
		<path class="st0" d="M207.4,128.1V121c0-28.7-20.6-52.5-47.7-57.4v-7.1c0-5.2-4.2-9.3-9.3-9.3c-5.2,0-9.3,4.2-9.3,9.3v6.8
			c-27.4,4.5-48.3,28.7-48.3,57.4v7.1c0,34.2-4.5,48-20.6,64.1c-2.6,2.6-3.5,6.8-1.9,10.3c1.3,3.5,4.8,5.8,8.7,5.8h38.7
			c1,17.4,15.5,31.3,32.9,31.3c17.7,0,32.2-13.9,32.9-31.3h38.3c3.9,0,7.1-2.3,8.7-5.8c1.3-3.5,0.6-7.4-1.9-10.3
			C211.9,176.1,207.4,162.2,207.4,128.1z M150.3,220.9c-7.4,0-13.5-5.5-14.2-12.6h28.7C163.5,215.4,157.4,220.9,150.3,220.9z
			 M98.1,189.6c3.5-5.5,6.1-11.3,8.4-17.7c3.5-11,4.8-24.2,4.8-43.8V121c0-21.6,17.4-39.3,38.7-39.3l0,0
			c21.3,0.3,38.7,17.7,38.7,39.3v7.1c0,25.8,2.3,44.5,13.2,61.5L98.1,189.6L98.1,189.6z"/>
	</g>
</g>
</svg>
