<?xml version="1.0" encoding="utf-8"?>
<!-- Generator: Adobe Illustrator 23.0.3, SVG Export Plug-In . SVG Version: 6.00 Build 0)  -->
<svg version="1.1" id="Layer_1" xmlns="http://www.w3.org/2000/svg" xmlns:xlink="http://www.w3.org/1999/xlink" x="0px" y="0px"
	 viewBox="0 0 413 206.4" style="enable-background:new 0 0 413 206.4;" xml:space="preserve">
<style type="text/css">
	.st0{fill:#2B4A70;}
	.st1{enable-background:new    ;}
	.st2{fill:#57BE8E;}
	.st3{opacity:0.53;}
	.st4{fill:none;}
	.st5{fill:#FFFFFF;stroke:#BFE2CA;stroke-width:0.98;stroke-miterlimit:10;}
	.st6{fill:#FFFFFF;stroke:#1FA267;stroke-width:0.98;stroke-miterlimit:10;}
	.st7{fill:#FFFFFF;stroke:#71C493;stroke-width:0.98;stroke-miterlimit:10;}
	.st8{fill:none;stroke:#21A96C;stroke-width:0.98;stroke-miterlimit:10;}
	.st9{fill:none;stroke:#50BC83;stroke-width:0.98;stroke-miterlimit:10;}
	.st10{fill:none;stroke:#006B43;stroke-width:0.98;stroke-miterlimit:10;}
	.st11{fill:none;stroke:#BFE2CA;stroke-width:0.98;stroke-miterlimit:10;}
	.st12{fill:#FFFFFF;stroke:#21A96C;stroke-width:0.98;stroke-miterlimit:10;}
	.st13{fill:#FFFFFF;stroke:#1FA368;stroke-width:0.98;stroke-miterlimit:10;}
	.st14{fill:#FFFFFF;stroke:#95D0AA;stroke-width:0.98;stroke-miterlimit:10;}
	.st15{fill:#FFFFFF;stroke:#01764A;stroke-width:0.98;stroke-miterlimit:10;}
	.st16{fill:#FFFFFF;stroke:#73C594;stroke-width:0.98;stroke-miterlimit:10;}
	.st17{fill:#FFFFFF;stroke:#44B97E;stroke-width:0.49;stroke-miterlimit:10;}
	.st18{fill:#FFFFFF;stroke:#01764A;stroke-width:0.49;stroke-miterlimit:10;}
	.st19{fill:#FFFFFF;stroke:#71C493;stroke-width:0.49;stroke-miterlimit:10;}
	.st20{fill:none;stroke:#21A96C;stroke-width:0.49;stroke-miterlimit:10;}
	.st21{fill:none;stroke:#50BC83;stroke-width:0.49;stroke-miterlimit:10;}
	.st22{fill:none;stroke:#006B43;stroke-width:0.49;stroke-miterlimit:10;}
	.st23{fill:none;stroke:#BFE2CA;stroke-width:0.49;stroke-miterlimit:10;}
	.st24{fill:#FFFFFF;stroke:#7EC89B;stroke-width:0.49;stroke-miterlimit:10;}
	.st25{fill:#FFFFFF;stroke:#1FA368;stroke-width:0.49;stroke-miterlimit:10;}
	.st26{fill:#FFFFFF;stroke:#95D0AA;stroke-width:0.49;stroke-miterlimit:10;}
	.st27{fill:#FFFFFF;stroke:#24B473;stroke-width:0.49;stroke-miterlimit:10;}
	.st28{fill:#FFFFFF;stroke:#73C594;stroke-width:0.49;stroke-miterlimit:10;}
	.st29{fill:#FFFFFF;stroke:#BFE2CA;stroke-width:0.49;stroke-miterlimit:10;}
	.st30{fill:#FFFFFF;stroke:#BFE2CA;stroke-width:0.71;stroke-miterlimit:10;}
	.st31{fill:#FFFFFF;stroke:#1FA267;stroke-width:0.71;stroke-miterlimit:10;}
	.st32{fill:#FFFFFF;stroke:#71C493;stroke-width:0.71;stroke-miterlimit:10;}
	.st33{fill:none;stroke:#21A96C;stroke-width:0.71;stroke-miterlimit:10;}
	.st34{fill:none;stroke:#50BC83;stroke-width:0.71;stroke-miterlimit:10;}
	.st35{fill:none;stroke:#006B43;stroke-width:0.71;stroke-miterlimit:10;}
	.st36{fill:none;stroke:#BFE2CA;stroke-width:0.71;stroke-miterlimit:10;}
	.st37{fill:#FFFFFF;stroke:#21A96C;stroke-width:0.71;stroke-miterlimit:10;}
	.st38{fill:#FFFFFF;stroke:#1FA368;stroke-width:0.71;stroke-miterlimit:10;}
	.st39{fill:#FFFFFF;stroke:#95D0AA;stroke-width:0.71;stroke-miterlimit:10;}
	.st40{fill:#FFFFFF;stroke:#01764A;stroke-width:0.71;stroke-miterlimit:10;}
	.st41{fill:#FFFFFF;stroke:#73C594;stroke-width:0.71;stroke-miterlimit:10;}
	.st42{fill:#FFFFFF;stroke:#44B97E;stroke-width:0.35;stroke-miterlimit:10;}
	.st43{fill:#FFFFFF;stroke:#01764A;stroke-width:0.35;stroke-miterlimit:10;}
	.st44{fill:#FFFFFF;stroke:#71C493;stroke-width:0.35;stroke-miterlimit:10;}
	.st45{fill:none;stroke:#21A96C;stroke-width:0.35;stroke-miterlimit:10;}
	.st46{fill:none;stroke:#50BC83;stroke-width:0.35;stroke-miterlimit:10;}
	.st47{fill:none;stroke:#006B43;stroke-width:0.35;stroke-miterlimit:10;}
	.st48{fill:none;stroke:#BFE2CA;stroke-width:0.35;stroke-miterlimit:10;}
	.st49{fill:#FFFFFF;stroke:#7EC89B;stroke-width:0.35;stroke-miterlimit:10;}
	.st50{fill:#FFFFFF;stroke:#1FA368;stroke-width:0.35;stroke-miterlimit:10;}
	.st51{fill:#FFFFFF;stroke:#95D0AA;stroke-width:0.35;stroke-miterlimit:10;}
	.st52{fill:#FFFFFF;stroke:#24B473;stroke-width:0.35;stroke-miterlimit:10;}
	.st53{fill:#FFFFFF;stroke:#73C594;stroke-width:0.35;stroke-miterlimit:10;}
	.st54{fill:#FFFFFF;stroke:#BFE2CA;stroke-width:0.35;stroke-miterlimit:10;}
	.st55{fill:#FFFFFF;stroke:#BFE2CA;stroke-width:0.93;stroke-miterlimit:10;}
	.st56{fill:#FFFFFF;stroke:#1FA267;stroke-width:0.93;stroke-miterlimit:10;}
	.st57{fill:#FFFFFF;stroke:#71C493;stroke-width:0.93;stroke-miterlimit:10;}
	.st58{fill:none;stroke:#21A96C;stroke-width:0.93;stroke-miterlimit:10;}
	.st59{fill:none;stroke:#50BC83;stroke-width:0.93;stroke-miterlimit:10;}
	.st60{fill:none;stroke:#006B43;stroke-width:0.93;stroke-miterlimit:10;}
	.st61{fill:none;stroke:#BFE2CA;stroke-width:0.93;stroke-miterlimit:10;}
	.st62{fill:#FFFFFF;stroke:#21A96C;stroke-width:0.93;stroke-miterlimit:10;}
	.st63{fill:#FFFFFF;stroke:#1FA368;stroke-width:0.93;stroke-miterlimit:10;}
	.st64{fill:#FFFFFF;stroke:#95D0AA;stroke-width:0.93;stroke-miterlimit:10;}
	.st65{fill:#FFFFFF;stroke:#01764A;stroke-width:0.93;stroke-miterlimit:10;}
	.st66{fill:#FFFFFF;stroke:#73C594;stroke-width:0.93;stroke-miterlimit:10;}
	.st67{fill:#FFFFFF;stroke:#44B97E;stroke-width:0.47;stroke-miterlimit:10;}
	.st68{fill:#FFFFFF;stroke:#01764A;stroke-width:0.47;stroke-miterlimit:10;}
	.st69{fill:#FFFFFF;stroke:#71C493;stroke-width:0.47;stroke-miterlimit:10;}
	.st70{fill:none;stroke:#21A96C;stroke-width:0.47;stroke-miterlimit:10;}
	.st71{fill:none;stroke:#50BC83;stroke-width:0.47;stroke-miterlimit:10;}
	.st72{fill:none;stroke:#006B43;stroke-width:0.47;stroke-miterlimit:10;}
	.st73{fill:none;stroke:#BFE2CA;stroke-width:0.47;stroke-miterlimit:10;}
	.st74{fill:#FFFFFF;stroke:#7EC89B;stroke-width:0.47;stroke-miterlimit:10;}
	.st75{fill:#FFFFFF;stroke:#1FA368;stroke-width:0.47;stroke-miterlimit:10;}
	.st76{fill:#FFFFFF;stroke:#95D0AA;stroke-width:0.47;stroke-miterlimit:10;}
	.st77{fill:#FFFFFF;stroke:#24B473;stroke-width:0.47;stroke-miterlimit:10;}
	.st78{fill:#FFFFFF;stroke:#73C594;stroke-width:0.47;stroke-miterlimit:10;}
	.st79{fill:#FFFFFF;stroke:#BFE2CA;stroke-width:0.47;stroke-miterlimit:10;}
	.st80{fill:#FFFFFF;stroke:#BFE2CA;stroke-width:0.69;stroke-miterlimit:10;}
	.st81{fill:#FFFFFF;stroke:#1FA267;stroke-width:0.69;stroke-miterlimit:10;}
	.st82{fill:#FFFFFF;stroke:#71C493;stroke-width:0.69;stroke-miterlimit:10;}
	.st83{fill:none;stroke:#21A96C;stroke-width:0.69;stroke-miterlimit:10;}
	.st84{fill:none;stroke:#50BC83;stroke-width:0.69;stroke-miterlimit:10;}
	.st85{fill:none;stroke:#006B43;stroke-width:0.69;stroke-miterlimit:10;}
	.st86{fill:none;stroke:#BFE2CA;stroke-width:0.69;stroke-miterlimit:10;}
	.st87{fill:#FFFFFF;stroke:#21A96C;stroke-width:0.69;stroke-miterlimit:10;}
	.st88{fill:#FFFFFF;stroke:#1FA368;stroke-width:0.69;stroke-miterlimit:10;}
	.st89{fill:#FFFFFF;stroke:#95D0AA;stroke-width:0.69;stroke-miterlimit:10;}
	.st90{fill:#FFFFFF;stroke:#01764A;stroke-width:0.69;stroke-miterlimit:10;}
	.st91{fill:#FFFFFF;stroke:#73C594;stroke-width:0.69;stroke-miterlimit:10;}
</style>
<title>Pine Sports</title>
<g>
	<path class="st0" d="M5.1,96.3C5,91.3,6,86.2,7.7,81.5c3.2-8.7,10.2-15.6,18.8-18.8c4.7-1.7,9.8-2.7,14.9-2.6h18.1
		c5.1-0.1,10.2,0.9,14.9,2.6c8.7,3.2,15.6,10.2,18.8,18.8c1.9,4.7,2.7,9.8,2.6,14.9v27.3c0.1,5.1-0.9,10.2-2.6,14.9
		c-3.2,8.7-10.2,15.6-18.8,18.8c-4.7,1.7-9.8,2.7-14.9,2.6H55h-3.2c-1.2,0-2.6-0.1-4.1-0.2c-1.5-0.1-3-0.5-4.3-0.7
		c-1.5-0.4-3-0.9-4.3-1.6c-1.4-0.6-2.7-1.5-3.8-2.6c-1.2-1.1-2.1-2.5-2.9-3.8v45.4c0,0.6,0,1.2-0.1,1.9c-0.1,0.6-0.5,1.1-1,1.5
		c-0.9,0.5-1.7,0.9-2.7,1c-1.7,0.2-3.5,0.4-5.2,0.4h-9.3c-1.7,0-3.5-0.1-5.2-0.4c-1-0.1-1.9-0.5-2.6-1c-0.5-0.4-0.9-0.9-1-1.5
		C5,197.5,5,196.9,5,196.3L5.1,96.3z M32.4,123.6c0,1.2,0.2,2.5,0.6,3.7c0.7,2.2,2.5,3.8,4.7,4.7c1.2,0.5,2.5,0.6,3.7,0.6h18.1
		c1.2,0,2.5-0.2,3.7-0.6c1.1-0.4,2-1,2.9-1.9c0.7-0.9,1.5-1.7,1.9-2.9c0.5-1.2,0.6-2.5,0.6-3.7V96.3c0-1.2-0.2-2.5-0.6-3.7
		c-0.4-1.1-1-2.1-1.7-3c-0.9-0.7-1.9-1.4-2.9-1.7c-1.2-0.5-2.5-0.7-3.7-0.7H41.5c-1.2,0-2.5,0.2-3.7,0.6c-1,0.4-2,1-2.9,1.9
		c-0.7,0.9-1.5,1.7-1.9,2.9c-0.5,1.2-0.6,2.5-0.6,3.7V123.6z"/>
	<path class="st0" d="M130,23.8c1.9,0,3.6,0.4,5.3,1.1c1.6,0.7,3.1,1.6,4.3,2.9s2.2,2.7,2.9,4.3c0.7,1.7,1.1,3.5,1.1,5.3
		s-0.4,3.6-1.1,5.3c-0.7,1.6-1.6,3.1-2.9,4.3s-2.7,2.2-4.3,3c-1.7,0.7-3.5,1.1-5.3,1.1c-1.9,0-3.6-0.4-5.3-1.1
		c-3.2-1.4-5.8-4-7.3-7.3c-0.7-1.6-1.1-3.5-1.1-5.3c0-3.6,1.5-7.1,4-9.5c1.2-1.2,2.7-2.2,4.3-2.9C126.4,24.2,128.1,23.8,130,23.8z
		 M116.3,64.7c0-0.6,0-1.2,0.1-1.9s0.5-1.1,1-1.5c0.9-0.5,1.7-0.9,2.7-1c1.7-0.2,3.5-0.4,5.2-0.4h9.1c1.7,0,3.5,0.1,5.2,0.4
		c1,0.1,1.9,0.5,2.7,1c0.5,0.4,0.9,0.9,1,1.5c0.1,0.5,0.1,1.1,0.1,1.7v90.9c0,0.6,0,1.1-0.1,1.7c-0.1,0.6-0.5,1.1-1,1.5
		c-0.9,0.5-1.7,0.9-2.7,1c-1.7,0.2-3.5,0.4-5.2,0.4h-9.1c-1.7,0-3.5-0.1-5.2-0.4c-1-0.1-1.9-0.4-2.7-1c-0.5-0.4-0.9-0.9-1-1.5
		c-0.1-0.6-0.1-1.2-0.1-1.9L116.3,64.7z"/>
	<path class="st0" d="M252.6,155.5c0,0.6,0,1.1-0.1,1.7c-0.1,0.6-0.5,1.1-1,1.5c-0.9,0.5-1.7,0.9-2.7,1c-1.7,0.2-3.5,0.4-5.2,0.4
		h-9.1c-1.7,0-3.5-0.1-5.2-0.4c-1-0.1-1.9-0.4-2.7-1c-0.5-0.4-0.9-0.9-1-1.5c-0.1-0.6-0.1-1.2-0.1-1.9V96.2c0-1.2-0.2-2.5-0.6-3.7
		c-0.7-2.2-2.5-3.8-4.7-4.7c-1.2-0.5-2.5-0.6-3.7-0.6h-18.2c-1.2,0-2.5,0.2-3.7,0.6c-2.2,0.9-3.8,2.5-4.7,4.7
		c-0.5,1.2-0.6,2.5-0.6,3.7v59.3c0,0.6,0,1.1-0.1,1.7c-0.1,0.6-0.5,1.1-1,1.5c-0.9,0.5-1.7,0.9-2.7,1c-1.7,0.2-3.5,0.4-5.2,0.4H171
		c-1.7,0-3.5-0.1-5.2-0.4c-1-0.1-1.9-0.4-2.7-1c-0.5-0.4-0.9-0.9-1-1.5c-0.1-0.6-0.1-1.2-0.1-1.9V64.6c0-0.6,0-1.2,0.1-1.9
		s0.5-1.1,1-1.5c0.9-0.5,1.7-0.9,2.7-1c1.7-0.2,3.5-0.4,5.2-0.4h9.1c1.7,0,3.5,0.1,5.2,0.4c1,0.1,1.9,0.4,2.7,1
		c0.5,0.4,0.9,0.9,1,1.5s0.1,1.2,0.1,1.9v4.6c0.7-1.5,1.7-2.7,2.9-3.8c1.1-1,2.5-1.9,3.8-2.6c1.4-0.6,2.9-1.1,4.3-1.5
		c1.5-0.4,2.9-0.6,4.3-0.7c1.4-0.1,2.7-0.2,4.1-0.2h3.2h4.6c5.1-0.1,10.2,0.9,14.9,2.6c8.7,3.2,15.6,10.2,18.8,18.8
		c1.7,4.7,2.7,9.8,2.6,14.9L252.6,155.5z"/>
	<path class="st0" d="M307.1,160c-5.1,0.1-10.2-0.9-14.9-2.6c-8.7-3.2-15.6-10.2-18.8-18.8c-1.9-4.7-2.7-9.8-2.6-14.9V96.3
		c-0.1-5.1,0.9-10.2,2.6-14.9c3.2-8.7,10.2-15.6,18.8-18.8c4.7-1.7,9.8-2.7,14.9-2.6h18.2c5.1-0.1,10,0.7,14.9,2.2
		c4.2,1.4,8.1,3.6,11.5,6.4c3.2,2.7,5.7,6.2,7.4,10c3.5,8.3,3.5,17.7,0,26c-1.7,3.8-4.2,7.3-7.4,10c-3.3,2.9-7.3,5.1-11.5,6.4
		c-4.8,1.6-9.8,2.4-14.9,2.2h-18.2c-1.7,0-3.5,0.1-5.2,0.4c-1,0.1-1.9,0.4-2.7,1c-0.5,0.4-0.9,0.9-1,1.5c-0.1,1.2-0.1,2.5,0,3.7
		c0.1,0.6,0.5,1.1,1,1.5c0.9,0.5,1.7,0.9,2.7,1c1.7,0.2,3.5,0.4,5.2,0.4h45.4c0.6,0,1.2,0,1.9,0.1s1.1,0.5,1.4,1
		c0.5,0.9,0.9,1.7,1,2.7c0.2,1.7,0.4,3.5,0.4,5.2v9.1c0,1.7-0.1,3.5-0.4,5.2c-0.1,1-0.4,1.9-1,2.7c-0.4,0.5-0.9,0.9-1.4,1
		c-0.6,0.1-1.2,0.1-1.9,0.1L307.1,160z M298,91.9c0,0.6,0,1.2,0.1,1.9s0.5,1.1,1,1.5c0.9,0.5,1.7,0.9,2.7,1c1.7,0.2,3.5,0.4,5.2,0.4
		h18.1c1.7,0,3.5-0.1,5.2-0.4c1-0.1,1.9-0.4,2.7-1c0.5-0.4,0.9-0.9,1-1.5s0.1-1.2,0.1-1.9s0-1.2-0.1-1.9c-0.1-0.6-0.5-1.1-1-1.5
		c-0.9-0.5-1.7-0.9-2.7-1c-1.7-0.2-3.5-0.4-5.2-0.4h-18.1c-1.7,0-3.5,0.1-5.2,0.4c-1,0.1-1.9,0.4-2.7,1c-0.5,0.4-0.9,0.9-1,1.5
		S298,91.3,298,91.9z"/>
	<path class="st0" d="M393.4,132.7c1.9,0,3.6,0.4,5.3,1.1c1.6,0.7,3.1,1.6,4.3,2.9c1.2,1.2,2.2,2.7,2.9,4.3c0.7,1.7,1.1,3.5,1.1,5.3
		c0,1.9-0.4,3.6-1.1,5.3c-0.7,1.6-1.6,3.1-2.9,4.3c-1.2,1.2-2.7,2.2-4.3,3c-1.7,0.7-3.5,1.1-5.3,1.1c-1.9,0-3.6-0.4-5.3-1.1
		c-3.2-1.4-5.8-4-7.2-7.3c-0.7-1.6-1.1-3.5-1.1-5.3c0-3.6,1.4-7.1,4-9.7c1.2-1.2,2.7-2.2,4.3-2.9C389.8,133,391.5,132.7,393.4,132.7
		z"/>
</g>
<g class="st1">
	<path class="st2" d="M267.9,194.8c-0.1,0-0.3,0-0.4,0c-0.1,0-0.2-0.1-0.3-0.2c-0.1-0.1-0.2-0.3-0.2-0.6s-0.1-0.7-0.1-1.2v-2
		c0-0.5,0-0.9,0.1-1.2s0.1-0.5,0.2-0.6c0.1-0.1,0.2-0.2,0.3-0.2s0.3,0,0.4,0h12c0.3,0,0.5-0.1,0.7-0.3c0.2-0.2,0.3-0.4,0.3-0.7
		s-0.1-0.5-0.3-0.7c-0.2-0.2-0.4-0.3-0.7-0.3h-7c-1,0-2-0.2-2.9-0.5s-1.6-0.8-2.2-1.4c-0.6-0.6-1.1-1.4-1.4-2.2
		c-0.3-0.9-0.5-1.8-0.5-2.9s0.2-2,0.5-2.9c0.3-0.9,0.8-1.6,1.4-2.2c0.6-0.6,1.4-1.1,2.2-1.4c0.9-0.3,1.8-0.5,2.9-0.5h12
		c0.2,0,0.3,0,0.4,0c0.1,0,0.2,0.1,0.3,0.2c0.1,0.1,0.2,0.3,0.2,0.6s0.1,0.7,0.1,1.2v2c0,0.5,0,0.9-0.1,1.2c0,0.3-0.1,0.5-0.2,0.6
		c-0.1,0.1-0.2,0.2-0.3,0.2s-0.3,0-0.4,0h-12c-0.3,0-0.5,0.1-0.7,0.3c-0.2,0.2-0.3,0.4-0.3,0.7s0.1,0.5,0.3,0.7
		c0.2,0.2,0.4,0.3,0.7,0.3h7c1,0,2,0.2,2.9,0.5s1.6,0.8,2.2,1.4c0.6,0.6,1.1,1.4,1.4,2.2c0.3,0.9,0.5,1.8,0.5,2.9s-0.2,2-0.5,2.9
		c-0.3,0.9-0.8,1.6-1.4,2.2c-0.6,0.6-1.4,1.1-2.2,1.4c-0.9,0.3-1.8,0.5-2.9,0.5H267.9z"/>
	<path class="st2" d="M289.9,180.8c0-1.2,0.2-2.3,0.6-3.3c0.4-1,0.9-1.8,1.6-2.5c0.7-0.7,1.5-1.2,2.5-1.6c1-0.4,2.1-0.6,3.3-0.6h4
		c1.2,0,2.3,0.2,3.3,0.6c1,0.4,1.8,0.9,2.5,1.6c0.7,0.7,1.2,1.5,1.6,2.5s0.6,2.1,0.6,3.3v6c0,1.2-0.2,2.3-0.6,3.3s-0.9,1.8-1.6,2.5
		s-1.5,1.2-2.5,1.6s-2.1,0.6-3.3,0.6h-1c-0.2,0-0.4,0-0.7,0s-0.6,0-0.9-0.1c-0.3,0-0.6-0.1-1-0.2s-0.6-0.2-1-0.3
		c-0.3-0.1-0.6-0.3-0.8-0.6c-0.2-0.3-0.5-0.5-0.6-0.8v10c0,0.2,0,0.3,0,0.4c0,0.1-0.1,0.2-0.2,0.3s-0.3,0.2-0.6,0.2
		s-0.7,0.1-1.2,0.1h-2c-0.5,0-0.9,0-1.1-0.1s-0.5-0.1-0.6-0.2c-0.1-0.1-0.2-0.2-0.2-0.3s0-0.3,0-0.4v-22H289.9z M295.9,186.8
		c0,0.3,0,0.6,0.1,0.8s0.2,0.5,0.4,0.6c0.2,0.2,0.4,0.3,0.6,0.4c0.2,0.1,0.5,0.1,0.8,0.1h4c0.3,0,0.6,0,0.8-0.1s0.5-0.2,0.6-0.4
		c0.2-0.2,0.3-0.4,0.4-0.6c0.1-0.2,0.1-0.5,0.1-0.8v-6c0-0.3,0-0.6-0.1-0.8s-0.2-0.5-0.4-0.6s-0.4-0.3-0.6-0.4
		c-0.2-0.1-0.5-0.1-0.8-0.1h-4c-0.3,0-0.6,0-0.8,0.1s-0.5,0.2-0.6,0.4s-0.3,0.4-0.4,0.6c-0.1,0.2-0.1,0.5-0.1,0.8V186.8z"/>
	<path class="st2" d="M324.5,172.8c1.2,0,2.3,0.2,3.2,0.6c0.9,0.4,1.8,0.9,2.4,1.6s1.2,1.5,1.6,2.5s0.6,2.1,0.7,3.3l0.5,6
		c0,0.2,0,0.5,0,0.7c0,1.1-0.2,2.1-0.6,3s-1,1.7-1.7,2.3s-1.6,1.1-2.5,1.5c-1,0.3-2,0.5-3.2,0.5h-4c-1.1,0-2.2-0.2-3.2-0.5
		s-1.8-0.8-2.5-1.5c-0.7-0.6-1.3-1.4-1.7-2.3c-0.4-0.9-0.6-1.9-0.6-3c0-0.2,0-0.5,0-0.7l0.5-6c0.1-1.2,0.3-2.3,0.7-3.3
		s0.9-1.8,1.6-2.5c0.7-0.7,1.5-1.2,2.4-1.6c0.9-0.4,2-0.6,3.2-0.6H324.5z M325,188.8c0.3,0,0.6,0,0.8-0.1c0.3-0.1,0.5-0.2,0.7-0.4
		s0.3-0.4,0.4-0.6c0.1-0.2,0.1-0.5,0.1-0.8l-0.5-6c0-0.3-0.1-0.6-0.2-0.8s-0.2-0.5-0.4-0.6s-0.4-0.3-0.6-0.4
		c-0.2-0.1-0.5-0.1-0.8-0.1h-3c-0.6,0-1.1,0.2-1.4,0.6c-0.3,0.4-0.5,0.9-0.6,1.5l-0.5,6c0,0.3,0,0.6,0.1,0.8s0.2,0.5,0.4,0.6
		c0.2,0.2,0.4,0.3,0.7,0.4c0.3,0.1,0.5,0.1,0.8,0.1h4V188.8z"/>
	<path class="st2" d="M336.1,173.8c0-0.2,0-0.3,0-0.4c0-0.1,0.1-0.2,0.2-0.3s0.3-0.2,0.6-0.2c0.3,0,0.7-0.1,1.2-0.1h2
		c0.5,0,0.9,0,1.2,0.1s0.5,0.1,0.6,0.2s0.2,0.2,0.2,0.3s0,0.3,0,0.4v1c0.2-0.3,0.4-0.6,0.6-0.8s0.5-0.4,0.8-0.6s0.6-0.3,1-0.3
		s0.7-0.1,1-0.2s0.6-0.1,0.9-0.1s0.5,0,0.7,0h3c0.2,0,0.3,0,0.4,0s0.2,0.1,0.3,0.2c0.1,0.1,0.2,0.3,0.2,0.6s0.1,0.7,0.1,1.2v2
		c0,0.5,0,0.9-0.1,1.2c0,0.3-0.1,0.5-0.2,0.6s-0.2,0.2-0.3,0.2c-0.1,0-0.3,0-0.4,0h-6c-0.3,0-0.6,0-0.8,0.1
		c-0.2,0.1-0.5,0.2-0.6,0.4s-0.3,0.4-0.4,0.6c-0.1,0.2-0.1,0.5-0.1,0.8v13c0,0.1,0,0.3,0,0.4c0,0.1-0.1,0.2-0.2,0.3
		s-0.3,0.2-0.6,0.2s-0.7,0.1-1.2,0.1h-2c-0.5,0-0.9,0-1.2-0.1c-0.3,0-0.5-0.1-0.6-0.2c-0.1-0.1-0.2-0.2-0.2-0.3s0-0.3,0-0.4v-19.9
		H336.1z"/>
	<path class="st2" d="M362.6,194.8c-1.2,0-2.3-0.2-3.3-0.6s-1.8-0.9-2.5-1.6c-0.7-0.7-1.2-1.5-1.6-2.5s-0.6-2.1-0.6-3.3v-21
		c0-0.2,0-0.3,0-0.4c0-0.1,0.1-0.2,0.2-0.3s0.3-0.2,0.6-0.2s0.7-0.1,1.2-0.1h2c0.5,0,0.9,0,1.2,0.1c0.3,0,0.5,0.1,0.6,0.2
		c0.1,0.1,0.2,0.2,0.2,0.3s0,0.3,0,0.4v6c0,0.1,0,0.3,0,0.4c0,0.1,0.1,0.2,0.2,0.3s0.3,0.2,0.6,0.2c0.3,0,0.7,0.1,1.2,0.1h3
		c0.2,0,0.3,0,0.4,0s0.2,0.1,0.3,0.2c0.1,0.1,0.2,0.3,0.2,0.6s0.1,0.7,0.1,1.2v2c0,0.5,0,0.9-0.1,1.2s-0.1,0.5-0.2,0.6
		s-0.2,0.2-0.3,0.2c-0.1,0-0.3,0-0.4,0h-3c-0.5,0-0.9,0-1.2,0.1s-0.5,0.1-0.6,0.2s-0.2,0.2-0.2,0.3s0,0.3,0,0.4v7
		c0,0.3,0,0.6,0.1,0.8s0.2,0.5,0.4,0.6c0.2,0.2,0.4,0.3,0.6,0.4c0.2,0.1,0.5,0.1,0.8,0.1h4c0.2,0,0.3,0,0.4,0s0.2,0.1,0.3,0.2
		c0.1,0.1,0.2,0.3,0.2,0.6s0.1,0.7,0.1,1.2v2c0,0.5,0,0.9-0.1,1.2s-0.1,0.5-0.2,0.6s-0.2,0.2-0.3,0.2c-0.1,0-0.3,0-0.4,0h-3.9V194.8
		z"/>
	<path class="st2" d="M372.1,194.8c-0.1,0-0.3,0-0.4,0s-0.2-0.1-0.3-0.2s-0.2-0.3-0.2-0.6s-0.1-0.7-0.1-1.2v-2c0-0.5,0-0.9,0.1-1.2
		s0.1-0.5,0.2-0.6s0.2-0.2,0.3-0.2c0.1,0,0.3,0,0.4,0h12c0.3,0,0.5-0.1,0.7-0.3s0.3-0.4,0.3-0.7s-0.1-0.5-0.3-0.7s-0.4-0.3-0.7-0.3
		h-7c-1,0-2-0.2-2.9-0.5s-1.6-0.8-2.2-1.4c-0.6-0.6-1.1-1.4-1.4-2.2c-0.3-0.9-0.5-1.8-0.5-2.9s0.2-2,0.5-2.9s0.8-1.6,1.4-2.2
		c0.6-0.6,1.4-1.1,2.2-1.4c0.9-0.3,1.8-0.5,2.9-0.5h12c0.2,0,0.3,0,0.4,0s0.2,0.1,0.3,0.2c0.1,0.1,0.2,0.3,0.2,0.6s0.1,0.7,0.1,1.2
		v2c0,0.5,0,0.9-0.1,1.2c0,0.3-0.1,0.5-0.2,0.6s-0.2,0.2-0.3,0.2c-0.1,0-0.3,0-0.4,0h-12c-0.3,0-0.5,0.1-0.7,0.3s-0.3,0.4-0.3,0.7
		s0.1,0.5,0.3,0.7s0.4,0.3,0.7,0.3h7c1,0,2,0.2,2.9,0.5s1.6,0.8,2.2,1.4c0.6,0.6,1.1,1.4,1.4,2.2c0.3,0.9,0.5,1.8,0.5,2.9
		s-0.2,2-0.5,2.9s-0.8,1.6-1.4,2.2c-0.6,0.6-1.4,1.1-2.2,1.4c-0.9,0.3-1.8,0.5-2.9,0.5H372.1z"/>
</g>
<g class="st3">
	<line class="st4" x1="169.5" y1="35.6" x2="347.7" y2="27"/>
	<rect x="306.4" y="3.3" class="st4" width="61.1" height="48.7"/>
	<path class="st5" d="M310.8,14.4c1.6,0.4,3.4-0.3,4-1.6s-0.4-2.7-2-3.1s-3.4,0.2-4,1.6C308.1,12.6,309,14,310.8,14.4L310.8,14.4z"
		/>
	<path class="st6" d="M352.8,11.6c1.4,0.8,3.4,0.6,4.5-0.6c1-1.1,0.7-2.7-0.7-3.5c-1.4-0.8-3.4-0.6-4.5,0.6l0,0
		C351.1,9.3,351.4,10.8,352.8,11.6z"/>
	<path class="st7" d="M360.4,32.5c-0.5,1.3,0.4,2.7,2,3.1c1.6,0.4,3.4-0.3,4-1.6s-0.3-2.7-2-3.1C362.8,30.4,361,31.1,360.4,32.5
		C360.4,32.4,360.4,32.4,360.4,32.5z"/>
	<path class="st8" d="M355.5,18.9c-1,1.1-0.7,2.7,0.7,3.5c1.4,0.8,3.4,0.6,4.5-0.6c1-1.1,0.7-2.7-0.7-3.5l0,0
		C358.5,17.6,356.6,17.8,355.5,18.9z"/>
	<path class="st9" d="M349.1,43.9c-1.4,0.8-1.7,2.4-0.7,3.5c1,1.1,3,1.3,4.5,0.6c1.4-0.8,1.7-2.4,0.7-3.5
		C352.5,43.4,350.5,43.2,349.1,43.9L349.1,43.9z"/>
	<path class="st10" d="M323,14c-1.6,0.4-2.5,1.8-2,3.1c0.5,1.3,2.3,2,4,1.6c1.6-0.4,2.5-1.8,2-3.1C326.5,14.2,324.6,13.5,323,14z"/>
	<path class="st11" d="M334,27.6c-1.7,0-3.1,1.1-3.1,2.4c0,1.3,1.4,2.4,3.1,2.4c1.7,0,3.1-1.1,3.1-2.4S335.7,27.6,334,27.6z"/>
	<path class="st12" d="M324.1,40.6c-1.4-0.8-3.4-0.6-4.5,0.6c-1,1.1-0.7,2.7,0.7,3.5c1.4,0.8,3.4,0.6,4.5-0.6l0,0
		C325.9,42.9,325.5,41.4,324.1,40.6L324.1,40.6z"/>
	<path class="st13" d="M309.7,46.1c-1-1.1-3-1.3-4.5-0.6c-1.4,0.8-1.7,2.4-0.7,3.5c1,1.1,3,1.3,4.5,0.6l0,0
		C310.4,48.7,310.8,47.2,309.7,46.1z"/>
	<path class="st14" d="M314.9,37.9c-0.5-1.3-2.3-2-4-1.6c-1.7,0.4-2.6,1.8-2,3.1c0.6,1.3,2.3,2,4,1.6l0,0
		C314.6,40.5,315.5,39.2,314.9,37.9z"/>
	<path class="st15" d="M313.5,21.5c0.5-1.3-0.4-2.7-2-3.1c-1.6-0.5-3.4,0.3-4.1,1.6c-0.5,1.3,0.3,2.7,2,3.1
		C311.2,23.5,313,22.8,313.5,21.5C313.5,21.5,313.5,21.5,313.5,21.5z"/>
	<path class="st16" d="M329.9,8.8c1.6-0.5,2.5-1.8,1.9-3.1c-0.6-1.3-2.3-2-4.1-1.5c-1.6,0.5-2.5,1.8-2,3.1
		C326.4,8.5,328.2,9.2,329.9,8.8L329.9,8.8z"/>
	<path class="st17" d="M347.3,17.4c0.9,0.5,2.1,0.3,2.8-0.3c0.6-0.7,0.4-1.7-0.4-2.2c-0.9-0.5-2.1-0.4-2.8,0.3
		C346.2,15.9,346.4,16.9,347.3,17.4L347.3,17.4z"/>
	<path class="st18" d="M354.1,27.6c0,0.9,0.9,1.6,2,1.6s2-0.7,2-1.6s-0.9-1.6-2-1.6S354.1,26.7,354.1,27.6z"/>
	<path class="st19" d="M343.2,35.3c-0.3,0.9,0.2,1.7,1.3,2s2.2-0.2,2.5-1c0.3-0.9-0.2-1.7-1.3-2C344.7,34,343.5,34.5,343.2,35.3
		L343.2,35.3z"/>
	<path class="st20" d="M326.8,22.3c-0.7,0.7-0.5,1.7,0.4,2.2c0.9,0.6,2.1,0.4,2.8-0.3c0.7-0.7,0.5-1.7-0.4-2.2l0,0
		C328.7,21.5,327.5,21.6,326.8,22.3z"/>
	<path class="st21" d="M352.3,37.8c-0.9,0.5-1.1,1.5-0.5,2.2c0.6,0.7,1.9,0.9,2.8,0.4c0.9-0.5,1.1-1.5,0.5-2.2l0,0
		C354.5,37.5,353.2,37.3,352.3,37.8z"/>
	<path class="st22" d="M342.6,27.1c-1.1,0.2-1.6,1.2-1.3,2c0.3,0.9,1.5,1.3,2.5,1c1.1-0.2,1.6-1.2,1.3-2l0,0
		C344.7,27.4,343.6,26.9,342.6,27.1z"/>
	<path class="st23" d="M337.8,40.3c-1.1,0-2,0.7-2,1.6s0.9,1.6,2,1.6c1.1,0,2-0.7,2-1.6S338.9,40.3,337.8,40.3z"/>
	<path class="st24" d="M332.7,39.6c-1-0.3-2.2,0.2-2.5,1s0.2,1.7,1.3,2c1,0.3,2.2-0.2,2.5-1l0,0C334.4,40.8,333.9,39.9,332.7,39.6z"
		/>
	<path class="st25" d="M324.6,35.1c-0.6-0.7-1.9-0.9-2.8-0.3c-0.9,0.5-1.1,1.5-0.4,2.2c0.6,0.7,1.9,0.9,2.8,0.3l0,0
		C325.1,36.7,325.2,35.8,324.6,35.1z"/>
	<path class="st26" d="M320,26.9c-0.3-0.9-1.5-1.3-2.5-1c-1.1,0.2-1.6,1.2-1.3,2c0.3,0.8,1.5,1.3,2.5,1
		C319.8,28.6,320.4,27.7,320,26.9L320,26.9z"/>
	<path class="st27" d="M344.1,22c0-0.9-0.9-1.6-2-1.6c-1.1,0-2,0.7-2,1.6s0.9,1.6,2,1.6C343.2,23.6,344.1,22.9,344.1,22L344.1,22z"
		/>
	<path class="st28" d="M332.7,15.6c1.1-0.2,1.6-1.2,1.3-2c-0.3-0.9-1.5-1.3-2.5-1c-1.1,0.2-1.6,1.2-1.3,2l0,0
		C330.6,15.4,331.7,15.9,332.7,15.6z"/>
	<path class="st29" d="M343.2,15.3c1,0.2,2.2-0.2,2.5-1c0.3-0.8-0.2-1.7-1.3-2c-1-0.2-2.2,0.2-2.5,1l0,0
		C341.6,14.2,342.2,15.1,343.2,15.3z"/>
	<rect x="259.3" y="12.8" class="st4" width="44" height="35"/>
	<path class="st30" d="M262.3,20.8c1.2,0.3,2.5-0.2,2.9-1.2c0.4-0.9-0.3-2-1.5-2.2c-1.2-0.3-2.5,0.2-2.8,1.2
		C260.5,19.5,261.1,20.4,262.3,20.8z"/>
	<path class="st31" d="M292.6,18.7c1,0.6,2.4,0.4,3.2-0.4c0.7-0.8,0.5-1.9-0.5-2.5c-1-0.6-2.4-0.4-3.2,0.4l0,0
		C291.4,17.1,291.6,18.2,292.6,18.7z"/>
	<path class="st32" d="M298.1,33.7c-0.4,0.9,0.3,2,1.5,2.2c1.2,0.3,2.5-0.2,2.8-1.2c0.4-0.9-0.3-1.9-1.4-2.2
		C299.8,32.3,298.5,32.8,298.1,33.7z"/>
	<path class="st33" d="M294.5,24.1c-0.7,0.8-0.5,1.9,0.5,2.5c1,0.6,2.4,0.4,3.2-0.4c0.7-0.8,0.5-1.9-0.5-2.5l0,0
		C296.7,23.1,295.2,23.3,294.5,24.1L294.5,24.1z"/>
	<path class="st34" d="M290,42c-1,0.6-1.2,1.7-0.5,2.5c0.7,0.8,2.1,0.9,3.2,0.4c1.1-0.6,1.2-1.7,0.5-2.5l0,0
		C292.4,41.6,291,41.4,290,42L290,42z"/>
	<path class="st35" d="M271.1,20.4c-1.2,0.3-1.8,1.3-1.4,2.2c0.4,0.9,1.7,1.4,2.8,1.1c1.2-0.3,1.8-1.3,1.4-2.2
		C273.7,20.7,272.3,20.1,271.1,20.4z"/>
	<path class="st36" d="M279,30.3c-1.2,0-2.2,0.8-2.2,1.8c0,0.9,1,1.7,2.3,1.7c1.2,0,2.2-0.8,2.2-1.8C281.4,31.1,280.4,30.3,279,30.3
		L279,30.3z"/>
	<path class="st37" d="M271.9,39.6c-1-0.6-2.4-0.4-3.2,0.4c-0.7,0.8-0.5,1.9,0.5,2.5s2.4,0.4,3.2-0.4l0,0
		C273.3,41.3,273,40.2,271.9,39.6z"/>
	<path class="st38" d="M261.7,43.6c-0.7-0.8-2.1-0.9-3.2-0.4c-1,0.6-1.2,1.7-0.5,2.5c0.7,0.9,2.1,0.9,3.2,0.4l0,0
		C262.2,45.4,262.4,44.3,261.7,43.6L261.7,43.6z"/>
	<path class="st39" d="M265.5,37.7c-0.4-0.9-1.7-1.4-2.8-1.2c-1.1,0.2-1.8,1.3-1.5,2.2s1.7,1.4,2.8,1.2l0,0
		C265.2,39.5,265.8,38.6,265.5,37.7z"/>
	<path class="st40" d="M264.3,25.9c0.4-0.9-0.3-2-1.5-2.2c-1.2-0.2-2.5,0.2-2.8,1.2c-0.4,0.9,0.3,1.9,1.5,2.2
		C262.7,27.4,263.9,26.8,264.3,25.9L264.3,25.9z"/>
	<path class="st41" d="M276.2,16.7c1.2-0.3,1.8-1.3,1.4-2.2c-0.4-0.9-1.7-1.4-2.8-1.1c-1.2,0.3-1.8,1.3-1.4,2.2
		C273.7,16.5,274.9,17,276.2,16.7C276.1,16.7,276.1,16.7,276.2,16.7z"/>
	<path class="st42" d="M288.8,23c0.6,0.4,1.6,0.2,2-0.2c0.5-0.5,0.3-1.3-0.3-1.6l0,0c-0.6-0.4-1.5-0.3-2,0.2
		C288,21.9,288.1,22.5,288.8,23C288.8,22.9,288.8,22.9,288.8,23L288.8,23z"/>
	<path class="st43" d="M293.5,30.3c0,0.6,0.6,1.1,1.4,1.1s1.4-0.5,1.4-1.1c0-0.6-0.6-1.1-1.4-1.1S293.5,29.6,293.5,30.3L293.5,30.3z
		"/>
	<path class="st44" d="M285.7,35.9c-0.3,0.6,0,1.3,0.8,1.5c0.7,0.2,1.6,0,1.9-0.6c0-0.1,0.1-0.1,0.1-0.2c0.3-0.6,0-1.3-0.8-1.5
		c-0.7-0.2-1.6,0-1.9,0.6C285.7,35.7,285.7,35.8,285.7,35.9z"/>
	<path class="st45" d="M273.9,26.5c-0.5,0.5-0.3,1.2,0.3,1.6c0.6,0.4,1.5,0.2,2-0.2c0.5-0.5,0.3-1.2-0.3-1.6l0,0
		C275.3,25.9,274.4,26,273.9,26.5z"/>
	<path class="st46" d="M292.3,37.7c-0.6,0.4-0.8,1.1-0.3,1.6c0.5,0.5,1.4,0.6,2,0.2c0.6-0.4,0.8-1.1,0.3-1.6l0,0
		C293.8,37.3,292.9,37.3,292.3,37.7z"/>
	<path class="st47" d="M285.2,30c-0.8,0.2-1.2,0.9-0.9,1.4c0.2,0.6,1.1,0.9,1.8,0.7c0.8-0.2,1.2-0.9,0.9-1.4l0,0
		C286.8,30,286,29.7,285.2,30L285.2,30z"/>
	<path class="st48" d="M281.9,39.4c-0.8,0-1.4,0.5-1.4,1.1c0,0.6,0.6,1.1,1.4,1.1c0.8,0,1.4-0.5,1.4-1.1l0,0
		C283.3,39.9,282.7,39.4,281.9,39.4L281.9,39.4z"/>
	<path class="st49" d="M278.2,38.9c-0.8-0.2-1.6,0.2-1.8,0.7c-0.2,0.6,0.2,1.3,0.9,1.4c0.8,0.2,1.6-0.2,1.8-0.7l0,0
		C279.4,39.7,278.9,39.1,278.2,38.9z"/>
	<path class="st50" d="M272.3,35.6c-0.5-0.5-1.4-0.6-2-0.2c-0.6,0.4-0.8,1.1-0.3,1.6c0.5,0.5,1.4,0.6,2,0.2l0,0
		C272.7,36.8,272.9,36.1,272.3,35.6z"/>
	<path class="st51" d="M269,29.7c-0.2-0.6-1.1-0.9-1.8-0.7c-0.8,0.2-1.2,0.9-0.9,1.4c0.2,0.6,1.1,0.9,1.8,0.7
		C268.9,31,269.3,30.3,269,29.7z"/>
	<path class="st52" d="M286.3,26.3c0-0.6-0.6-1.1-1.4-1.1s-1.5,0.5-1.5,1.1s0.6,1.1,1.4,1.1C285.6,27.4,286.3,26.9,286.3,26.3
		L286.3,26.3z"/>
	<path class="st53" d="M278.2,21.6c0.8-0.2,1.2-0.9,0.9-1.4c-0.3-0.6-1.1-0.9-1.8-0.7c-0.8,0.2-1.2,0.9-0.9,1.4l0,0
		C276.6,21.5,277.4,21.9,278.2,21.6L278.2,21.6z"/>
	<path class="st54" d="M285.7,21.5c0.8,0.2,1.6-0.2,1.8-0.7c0.2-0.6-0.2-1.3-0.9-1.4c-0.8-0.2-1.6,0.2-1.8,0.7
		C284.5,20.6,284.9,21.2,285.7,21.5L285.7,21.5z"/>
	<rect x="197.2" y="9.8" class="st4" width="58.1" height="46.2"/>
	<path class="st55" d="M201.3,20.4c1.6,0.4,3.3-0.2,3.9-1.5c0.5-1.3-0.3-2.6-1.9-3c-1.6-0.4-3.3,0.2-3.9,1.5l0,0
		C198.9,18.6,199.7,20,201.3,20.4z"/>
	<path class="st56" d="M241.3,17.7c1.3,0.8,3.2,0.6,4.3-0.5c1-1,0.7-2.5-0.6-3.3s-3.2-0.6-4.3,0.5l0,0
		C239.7,15.5,239.9,16.9,241.3,17.7z"/>
	<path class="st57" d="M248.5,37.5c-0.5,1.3,0.3,2.6,1.9,3s3.3-0.2,3.9-1.5c0.5-1.3-0.3-2.6-1.9-3l0,0
		C250.8,35.6,249,36.3,248.5,37.5z"/>
	<path class="st58" d="M243.9,24.7c-1,1-0.7,2.5,0.6,3.3c1.3,0.8,3.2,0.6,4.3-0.5c1-1,0.7-2.5-0.6-3.3l0,0
		C246.7,23.4,244.9,23.7,243.9,24.7z"/>
	<path class="st59" d="M237.8,48.4c-1.3,0.8-1.7,2.2-0.7,3.3c1,1,2.8,1.3,4.3,0.6c1.4-0.8,1.7-2.2,0.7-3.3l0,0
		C241,48,239.1,47.7,237.8,48.4z"/>
	<path class="st60" d="M213,20c-1.6,0.4-2.4,1.7-1.9,3c0.5,1.3,2.2,1.9,3.9,1.5c1.6-0.4,2.4-1.7,1.9-3l0,0
		C216.2,20.3,214.5,19.6,213,20z"/>
	<path class="st61" d="M223.4,32.9c-1.7,0-3,1-3,2.4c0,1.3,1.3,2.4,3,2.4s3-1,3-2.4C226.4,34,225,32.9,223.4,32.9z"/>
	<path class="st62" d="M214,45.3c-1.3-0.8-3.2-0.6-4.3,0.5c-1,1-0.7,2.5,0.7,3.3c1.4,0.8,3.2,0.6,4.3-0.5l0,0
		C215.6,47.5,215.4,46.1,214,45.3z"/>
	<path class="st63" d="M200.4,50.5c-1-1-2.8-1.3-4.3-0.6c-1.3,0.8-1.7,2.2-0.7,3.3c1,1,2.8,1.3,4.3,0.6l0,0
		C201,52.9,201.3,51.5,200.4,50.5z"/>
	<path class="st64" d="M205.4,42.7c-0.5-1.3-2.2-2-3.9-1.6c-1.6,0.4-2.5,1.7-2,3c0.5,1.3,2.2,2,3.7,1.6
		C205,45.2,205.9,43.9,205.4,42.7L205.4,42.7z"/>
	<path class="st65" d="M203.9,27.1c0.5-1.3-0.3-2.6-1.9-3c-1.6-0.4-3.3,0.2-3.9,1.5c-0.5,1.3,0.3,2.6,1.9,3l0,0
		C201.7,29,203.4,28.3,203.9,27.1z"/>
	<path class="st66" d="M219.6,15c1.6-0.4,2.4-1.7,1.9-3s-2.2-1.9-3.9-1.5c-1.6,0.4-2.4,1.7-1.9,3l0,0
		C216.3,14.7,217.9,15.4,219.6,15z"/>
	<path class="st67" d="M236.2,23.2c0.9,0.5,2,0.3,2.7-0.3c0.7-0.6,0.4-1.6-0.4-2.1c-0.8-0.5-2-0.3-2.6,0.3
		C235.1,21.8,235.3,22.7,236.2,23.2L236.2,23.2z"/>
	<path class="st68" d="M242.6,32.9c0,0.8,0.9,1.5,1.9,1.5c1,0,1.9-0.7,1.9-1.5c0-0.8-0.9-1.5-1.9-1.5l0,0
		C243.4,31.4,242.6,32.1,242.6,32.9z"/>
	<path class="st69" d="M232.2,40.3c-0.3,0.8,0.2,1.7,1.2,1.9c1,0.2,2.1-0.2,2.4-0.9c0.3-0.8-0.2-1.7-1.2-1.9l0,0
		C233.6,39.1,232.5,39.5,232.2,40.3L232.2,40.3z"/>
	<path class="st70" d="M216.6,27.9c-0.6,0.7-0.4,1.6,0.4,2.1c0.9,0.5,2,0.3,2.7-0.3c0.7-0.6,0.4-1.6-0.4-2.1
		C218.4,27.1,217.2,27.3,216.6,27.9L216.6,27.9z"/>
	<path class="st71" d="M240.8,42.6c-0.8,0.5-1,1.4-0.4,2.1c0.6,0.6,1.8,0.8,2.7,0.3c0.8-0.5,1-1.4,0.4-2.1l0,0
		C242.9,42.3,241.6,42.1,240.8,42.6z"/>
	<path class="st72" d="M231.5,32.5c-1,0.2-1.5,1.1-1.2,1.9c0.3,0.8,1.4,1.2,2.4,0.9s1.5-1.1,1.2-1.9
		C233.6,32.6,232.5,32.2,231.5,32.5L231.5,32.5z"/>
	<path class="st73" d="M227.1,45c-1,0-1.9,0.7-1.9,1.5c0,0.8,0.9,1.5,1.9,1.5s1.9-0.7,1.9-1.5l0,0C229,45.6,228.1,45,227.1,45z"/>
	<path class="st74" d="M222.3,44.3c-1-0.2-2.1,0.2-2.4,0.9c-0.3,0.8,0.2,1.7,1.2,1.9c1,0.2,2.1-0.2,2.4-0.9
		C223.8,45.4,223.3,44.6,222.3,44.3L222.3,44.3z"/>
	<path class="st75" d="M214.5,40c-0.6-0.6-1.8-0.8-2.7-0.3c-0.9,0.5-1,1.4-0.4,2.1c0.6,0.6,1.8,0.8,2.6,0.3
		C214.9,41.6,215.1,40.6,214.5,40L214.5,40z"/>
	<path class="st76" d="M210.1,32.2c-0.3-0.8-1.4-1.2-2.4-0.9c-1,0.2-1.5,1.1-1.2,1.9c0.3,0.8,1.4,1.2,2.4,0.9
		C209.9,33.9,210.4,33,210.1,32.2L210.1,32.2z"/>
	<path class="st77" d="M233,27.6c0-0.8-0.9-1.5-1.9-1.5c-1,0-1.9,0.7-1.9,1.5s0.9,1.5,1.9,1.5l0,0C232.1,29.1,233,28.5,233,27.6z"/>
	<path class="st78" d="M222.3,21.5c1-0.2,1.5-1.1,1.2-1.9c-0.3-0.8-1.4-1.2-2.4-0.9c-1,0.2-1.5,1.1-1.2,1.9
		C220.2,21.4,221.3,21.8,222.3,21.5L222.3,21.5z"/>
	<path class="st79" d="M232.1,21.2c1,0.2,2.1-0.2,2.4-0.9s-0.2-1.7-1.2-1.9c-1-0.2-2.1,0.2-2.4,0.9l0,0
		C230.6,20.2,231.1,21,232.1,21.2L232.1,21.2z"/>
	<rect x="149" y="18.4" class="st4" width="43.2" height="34.4"/>
	<path class="st80" d="M152.1,26.3c1.2,0.3,2.4-0.2,2.8-1.1c0.4-0.9-0.2-1.9-1.4-2.2s-2.4,0.2-2.8,1.1c0,0,0,0,0,0.1
		C150.2,25,150.8,25.9,152.1,26.3z"/>
	<path class="st81" d="M181.8,24.3c1,0.6,2.4,0.4,3.1-0.4s0.5-1.9-0.5-2.4s-2.4-0.4-3.1,0.4C180.5,22.6,180.7,23.7,181.8,24.3
		L181.8,24.3z"/>
	<path class="st82" d="M187.1,39c-0.4,0.9,0.3,1.9,1.4,2.2c1.1,0.3,2.4-0.2,2.8-1.1c0.4-0.9-0.3-1.9-1.4-2.2
		C188.7,37.6,187.5,38.1,187.1,39L187.1,39z"/>
	<path class="st83" d="M183.7,29.5c-0.7,0.8-0.5,1.9,0.5,2.4c1,0.6,2.4,0.4,3.1-0.4c0.7-0.8,0.5-1.9-0.5-2.4S184.4,28.7,183.7,29.5
		L183.7,29.5z"/>
	<path class="st84" d="M179.1,47.1c-1,0.6-1.2,1.7-0.5,2.4c0.7,0.8,2.1,0.9,3.1,0.4c1-0.6,1.2-1.7,0.5-2.4
		C181.6,46.7,180.1,46.5,179.1,47.1L179.1,47.1z"/>
	<path class="st85" d="M160.7,25.9c-1.2,0.3-1.8,1.3-1.4,2.2c0.4,0.9,1.6,1.4,2.8,1.1c1.2-0.3,1.8-1.3,1.4-2.2l0,0
		C163.1,26.2,161.9,25.6,160.7,25.9z"/>
	<path class="st86" d="M168.4,35.6c-1.2,0-2.2,0.8-2.2,1.7c0,0.9,1,1.7,2.2,1.7c1.2,0,2.2-0.8,2.2-1.7l0,0
		C170.7,36.3,169.7,35.6,168.4,35.6L168.4,35.6z"/>
	<path class="st87" d="M161.5,44.7c-1-0.6-2.4-0.4-3.1,0.4c-0.7,0.8-0.5,1.9,0.5,2.4c1,0.6,2.4,0.4,3.1-0.4
		C162.7,46.4,162.5,45.3,161.5,44.7L161.5,44.7z"/>
	<path class="st88" d="M151.4,48.6c-0.7-0.8-2.1-0.9-3.1-0.4c-1,0.6-1.2,1.7-0.5,2.4c0.7,0.8,2.1,0.9,3.1,0.4
		C151.9,50.5,152.1,49.4,151.4,48.6L151.4,48.6z"/>
	<path class="st89" d="M155,42.8c-0.4-0.9-1.6-1.4-2.8-1.1s-1.8,1.3-1.4,2.2c0.4,0.9,1.6,1.4,2.8,1.1S155.4,43.7,155,42.8L155,42.8z
		"/>
	<path class="st90" d="M154,31.3c0.4-0.9-0.3-1.9-1.4-2.2c-1.2-0.3-2.4,0.2-2.8,1.1c-0.4,0.9,0.3,1.9,1.4,2.2
		C152.4,32.7,153.6,32.2,154,31.3z"/>
	<path class="st91" d="M165.6,22.3c1.2-0.3,1.8-1.3,1.5-2.2c-0.4-0.9-1.6-1.4-2.8-1.2c-1.2,0.3-1.8,1.3-1.5,2.2l0,0
		C163.2,22.1,164.4,22.6,165.6,22.3z"/>
	<path class="st42" d="M177.9,28.4c0.6,0.4,1.5,0.2,2-0.2c0.5-0.5,0.3-1.2-0.3-1.6l0,0c-0.6-0.4-1.5-0.2-2,0.2
		C177.1,27.3,177.3,28,177.9,28.4z"/>
	<path class="st43" d="M182.7,35.6c0,0.6,0.6,1.1,1.4,1.1c0.8,0,1.4-0.5,1.4-1.1c0-0.6-0.6-1.1-1.4-1.1
		C183.3,34.5,182.7,35,182.7,35.6L182.7,35.6z"/>
	<path class="st44" d="M175,41c-0.2,0.6,0.2,1.2,0.9,1.4c0.7,0.2,1.5-0.2,1.8-0.7c0.3-0.6-0.2-1.2-0.9-1.4l0,0
		C176,40.1,175.2,40.4,175,41L175,41z"/>
	<path class="st45" d="M163.4,31.8c-0.5,0.5-0.3,1.2,0.3,1.6c0.6,0.4,1.5,0.2,2-0.2c0.4-0.5,0.3-1.2-0.3-1.5
		C164.7,31.3,163.9,31.4,163.4,31.8L163.4,31.8z"/>
	<path class="st46" d="M181.4,42.8c-0.6,0.4-0.7,1.1-0.3,1.6c0.4,0.5,1.4,0.6,2,0.2c0.6-0.4,0.7-1,0.3-1.5
		C183,42.5,182.1,42.4,181.4,42.8L181.4,42.8z"/>
	<path class="st47" d="M174.6,35.3c-0.7,0.2-1.1,0.8-0.9,1.4c0.2,0.6,1,0.9,1.8,0.7c0.7-0.2,1.1-0.8,0.9-1.4
		C176.1,35.4,175.3,35.1,174.6,35.3z"/>
	<path class="st48" d="M171.2,44.5c-0.8,0-1.4,0.5-1.4,1.1s0.6,1.1,1.4,1.1c0.8,0,1.4-0.5,1.4-1.1C172.6,45,171.9,44.5,171.2,44.5
		L171.2,44.5z"/>
	<path class="st49" d="M167.6,44.1c-0.7-0.2-1.5,0.2-1.8,0.7c-0.2,0.6,0.2,1.2,0.9,1.4c0.7,0.2,1.5-0.2,1.8-0.7l0,0
		C168.8,44.9,168.4,44.3,167.6,44.1z"/>
	<path class="st50" d="M161.9,40.8c-0.5-0.5-1.4-0.6-2-0.2c-0.6,0.4-0.7,1.1-0.3,1.6c0.5,0.5,1.3,0.6,1.9,0.2
		C162.2,42.1,162.3,41.4,161.9,40.8C161.9,40.9,161.9,40.8,161.9,40.8z"/>
	<path class="st51" d="M158.6,35.1c-0.2-0.6-1-0.9-1.8-0.7c-0.7,0.2-1.2,0.8-0.9,1.4c0.3,0.6,1,0.9,1.8,0.7
		C158.4,36.2,158.9,35.7,158.6,35.1L158.6,35.1z"/>
	<path class="st52" d="M175.6,31.6c0-0.6-0.6-1.1-1.4-1.1c-0.8,0-1.4,0.5-1.4,1.1s0.6,1.1,1.4,1.1l0,0
		C175,32.8,175.6,32.2,175.6,31.6z"/>
	<path class="st53" d="M167.6,27.1c0.7-0.2,1.2-0.8,0.9-1.4c-0.2-0.6-1-0.9-1.8-0.7c-0.7,0.2-1.2,0.8-0.9,1.4l0,0
		C166,27,166.9,27.3,167.6,27.1z"/>
	<path class="st54" d="M175,27c0.7,0.2,1.5-0.2,1.8-0.7c0.2-0.6-0.2-1.2-0.9-1.4c-0.7-0.2-1.5,0.2-1.8,0.7
		C173.8,26.1,174.3,26.7,175,27z"/>
</g>
</svg>
