<svg xmlns="http://www.w3.org/2000/svg" viewBox="0 0 336.64 179.79"><defs><style>.cls-1{opacity:0.53;}.cls-10,.cls-11,.cls-12,.cls-13,.cls-14,.cls-15,.cls-16,.cls-17,.cls-2,.cls-22,.cls-23,.cls-24,.cls-25,.cls-26,.cls-27,.cls-28,.cls-29,.cls-3,.cls-34,.cls-35,.cls-36,.cls-37,.cls-38,.cls-39,.cls-4,.cls-40,.cls-41,.cls-46,.cls-47,.cls-48,.cls-49,.cls-5,.cls-50,.cls-51,.cls-52,.cls-53,.cls-58,.cls-59,.cls-60,.cls-61,.cls-62,.cls-63,.cls-64,.cls-65,.cls-70,.cls-71,.cls-72,.cls-73,.cls-74,.cls-75,.cls-76,.cls-77,.cls-82,.cls-83,.cls-84,.cls-85,.cls-86,.cls-87,.cls-88,.cls-89,.cls-94,.cls-95,.cls-96,.cls-97,.cls-98{fill:#fff;}.cls-21,.cls-26,.cls-27,.cls-3,.cls-33,.cls-45,.cls-50,.cls-51,.cls-57,.cls-69,.cls-74,.cls-75,.cls-81,.cls-9,.cls-93,.cls-98{stroke:#fbfbfc;}.cls-10,.cls-11,.cls-12,.cls-13,.cls-14,.cls-15,.cls-16,.cls-17,.cls-18,.cls-19,.cls-20,.cls-21,.cls-22,.cls-23,.cls-24,.cls-25,.cls-26,.cls-27,.cls-28,.cls-29,.cls-3,.cls-30,.cls-31,.cls-32,.cls-33,.cls-34,.cls-35,.cls-36,.cls-37,.cls-38,.cls-39,.cls-4,.cls-40,.cls-41,.cls-42,.cls-43,.cls-44,.cls-45,.cls-46,.cls-47,.cls-48,.cls-49,.cls-5,.cls-50,.cls-51,.cls-52,.cls-53,.cls-54,.cls-55,.cls-56,.cls-57,.cls-58,.cls-59,.cls-6,.cls-60,.cls-61,.cls-62,.cls-63,.cls-64,.cls-65,.cls-66,.cls-67,.cls-68,.cls-69,.cls-7,.cls-70,.cls-71,.cls-72,.cls-73,.cls-74,.cls-75,.cls-76,.cls-77,.cls-78,.cls-79,.cls-8,.cls-80,.cls-81,.cls-82,.cls-83,.cls-84,.cls-85,.cls-86,.cls-87,.cls-88,.cls-89,.cls-9,.cls-90,.cls-91,.cls-92,.cls-93,.cls-94,.cls-95,.cls-96,.cls-97,.cls-98{stroke-miterlimit:10;}.cls-10,.cls-11,.cls-12,.cls-13,.cls-14,.cls-3,.cls-4,.cls-5,.cls-6,.cls-7,.cls-8,.cls-9{stroke-width:0.98px;}.cls-28,.cls-4,.cls-52,.cls-76{stroke:#d0d0d2;}.cls-17,.cls-29,.cls-41,.cls-5,.cls-53,.cls-65,.cls-77,.cls-89{stroke:#d2d2d5;}.cls-18,.cls-19,.cls-20,.cls-21,.cls-30,.cls-31,.cls-32,.cls-33,.cls-42,.cls-43,.cls-44,.cls-45,.cls-54,.cls-55,.cls-56,.cls-57,.cls-6,.cls-66,.cls-67,.cls-68,.cls-69,.cls-7,.cls-78,.cls-79,.cls-8,.cls-80,.cls-81,.cls-9,.cls-90,.cls-91,.cls-92,.cls-93{fill:none;}.cls-18,.cls-30,.cls-42,.cls-54,.cls-6,.cls-66,.cls-78,.cls-90{stroke:#ceced1;}.cls-12,.cls-19,.cls-24,.cls-31,.cls-36,.cls-43,.cls-48,.cls-55,.cls-60,.cls-67,.cls-7,.cls-72,.cls-79,.cls-84,.cls-91,.cls-96{stroke:#f7f7fa;}.cls-20,.cls-32,.cls-44,.cls-56,.cls-68,.cls-8,.cls-80,.cls-92{stroke:#b4b4b7;}.cls-10,.cls-34,.cls-58,.cls-82{stroke:#f3f3f6;}.cls-11,.cls-23,.cls-35,.cls-47,.cls-59,.cls-71,.cls-83,.cls-95{stroke:#d5d5d8;}.cls-13,.cls-16,.cls-37,.cls-40,.cls-61,.cls-64,.cls-85,.cls-88{stroke:#ababad;}.cls-14,.cls-25,.cls-38,.cls-49,.cls-62,.cls-73,.cls-86,.cls-97{stroke:#f8f8fa;}.cls-15,.cls-39,.cls-63,.cls-87{stroke:#f6f6f9;}.cls-15,.cls-16,.cls-17,.cls-18,.cls-19,.cls-20,.cls-21,.cls-22,.cls-23,.cls-24,.cls-25,.cls-26{stroke-width:0.49px;}.cls-22,.cls-46,.cls-70,.cls-94{stroke:#dfdfe2;}.cls-27,.cls-28,.cls-29,.cls-30,.cls-31,.cls-32,.cls-33,.cls-34,.cls-35,.cls-36,.cls-37,.cls-38{stroke-width:0.71px;}.cls-39,.cls-40,.cls-41,.cls-42,.cls-43,.cls-44,.cls-45,.cls-46,.cls-47,.cls-48,.cls-49,.cls-50{stroke-width:0.35px;}.cls-51,.cls-52,.cls-53,.cls-54,.cls-55,.cls-56,.cls-57,.cls-58,.cls-59,.cls-60,.cls-61,.cls-62{stroke-width:0.93px;}.cls-63,.cls-64,.cls-65,.cls-66,.cls-67,.cls-68,.cls-69,.cls-70,.cls-71,.cls-72,.cls-73,.cls-74{stroke-width:0.47px;}.cls-75,.cls-76,.cls-77,.cls-78,.cls-79,.cls-80,.cls-81,.cls-82,.cls-83,.cls-84,.cls-85,.cls-86{stroke-width:0.69px;}.cls-87,.cls-88,.cls-89,.cls-90,.cls-91,.cls-92,.cls-93,.cls-94,.cls-95,.cls-96,.cls-97,.cls-98{stroke-width:0.35px;}.cls-99{font-size:150px;fill:#f5f5f8;font-family:Clipangle-Bold, Clipangle;font-weight:700;}</style></defs><g id="Layer_2" data-name="Layer 2"><g class="cls-1"><line class="cls-2" x1="104.34" y1="46.68" x2="316.39" y2="25.79"/><path class="cls-3" d="M243.16,14.16a3.14,3.14,0,1,0-2-3.95A3.14,3.14,0,0,0,243.16,14.16Z" transform="translate(0 -0.35)"/><path class="cls-4" d="M284.71,10.54A3.14,3.14,0,1,0,284,6.16,3.13,3.13,0,0,0,284.71,10.54Z" transform="translate(0 -0.35)"/><path class="cls-5" d="M292.23,37.08a3.13,3.13,0,1,0,3.95-2A3.12,3.12,0,0,0,292.23,37.08Z" transform="translate(0 -0.35)"/><path class="cls-6" d="M287.38,19.93a3.13,3.13,0,1,0,4.38-.7A3.14,3.14,0,0,0,287.38,19.93Z" transform="translate(0 -0.35)"/><path class="cls-7" d="M281,51.71a3.13,3.13,0,1,0,4.38.69A3.13,3.13,0,0,0,281,51.71Z" transform="translate(0 -0.35)"/><path class="cls-8" d="M255.27,13.59a3.13,3.13,0,1,0,4,2A3.14,3.14,0,0,0,255.27,13.59Z" transform="translate(0 -0.35)"/><path class="cls-9" d="M266.07,30.92a3.14,3.14,0,1,0,3.14,3.14A3.15,3.15,0,0,0,266.07,30.92Z" transform="translate(0 -0.35)"/><path class="cls-10" d="M256.38,47.44a3.14,3.14,0,1,0,.69,4.38A3.13,3.13,0,0,0,256.38,47.44Z" transform="translate(0 -0.35)"/><path class="cls-11" d="M242.22,54.37a3.13,3.13,0,1,0-.7,4.38A3.15,3.15,0,0,0,242.22,54.37Z" transform="translate(0 -0.35)"/><path class="cls-12" d="M247.36,44a3.14,3.14,0,1,0-2,3.95A3.14,3.14,0,0,0,247.36,44Z" transform="translate(0 -0.35)"/><path class="cls-13" d="M245.94,23.14a3.14,3.14,0,1,0-3.95,2A3.14,3.14,0,0,0,245.94,23.14Z" transform="translate(0 -0.35)"/><path class="cls-14" d="M262.12,7a3.13,3.13,0,1,0-3.95-2A3.12,3.12,0,0,0,262.12,7Z" transform="translate(0 -0.35)"/><path class="cls-15" d="M279.35,17.93a2,2,0,1,0-.44-2.79A2,2,0,0,0,279.35,17.93Z" transform="translate(0 -0.35)"/><path class="cls-16" d="M286,30.93a2,2,0,1,0,2-2A2,2,0,0,0,286,30.93Z" transform="translate(0 -0.35)"/><path class="cls-17" d="M275.23,40.75a2,2,0,1,0,2.52-1.29A2,2,0,0,0,275.23,40.75Z" transform="translate(0 -0.35)"/><path class="cls-18" d="M259,24.24a2,2,0,1,0,2.79-.44A2,2,0,0,0,259,24.24Z" transform="translate(0 -0.35)"/><path class="cls-19" d="M284.26,43.93a2,2,0,1,0,2.79.44A2,2,0,0,0,284.26,43.93Z" transform="translate(0 -0.35)"/><path class="cls-20" d="M274.58,30.34a2,2,0,1,0,2.52,1.29A2,2,0,0,0,274.58,30.34Z" transform="translate(0 -0.35)"/><path class="cls-21" d="M269.91,47a2,2,0,1,0,2,2A2,2,0,0,0,269.91,47Z" transform="translate(0 -0.35)"/><path class="cls-22" d="M264.94,46.21a2,2,0,1,0,1.29,2.52A2,2,0,0,0,264.94,46.21Z" transform="translate(0 -0.35)"/><path class="cls-23" d="M256.91,40.37a2,2,0,1,0-.44,2.79A2,2,0,0,0,256.91,40.37Z" transform="translate(0 -0.35)"/><path class="cls-24" d="M252.34,30a2,2,0,1,0-1.29,2.52A2,2,0,0,0,252.34,30Z" transform="translate(0 -0.35)"/><path class="cls-15" d="M276.07,23.83a2,2,0,1,0-2,2A2,2,0,0,0,276.07,23.83Z" transform="translate(0 -0.35)"/><path class="cls-25" d="M264.94,15.65a2,2,0,1,0-2.51-1.28A2,2,0,0,0,264.94,15.65Z" transform="translate(0 -0.35)"/><path class="cls-26" d="M275.22,15.34a2,2,0,1,0-1.28-2.52A2,2,0,0,0,275.22,15.34Z" transform="translate(0 -0.35)"/><path class="cls-27" d="M195.59,24.23a2.26,2.26,0,1,0-1.44-2.84A2.26,2.26,0,0,0,195.59,24.23Z" transform="translate(0 -0.35)"/><path class="cls-28" d="M225.49,21.63a2.26,2.26,0,1,0-.5-3.15A2.26,2.26,0,0,0,225.49,21.63Z" transform="translate(0 -0.35)"/><path class="cls-29" d="M230.89,40.72a2.25,2.25,0,1,0,2.85-1.45A2.26,2.26,0,0,0,230.89,40.72Z" transform="translate(0 -0.35)"/><path class="cls-30" d="M227.41,28.38a2.26,2.26,0,1,0,3.15-.5A2.25,2.25,0,0,0,227.41,28.38Z" transform="translate(0 -0.35)"/><path class="cls-31" d="M222.84,51.25a2.26,2.26,0,1,0,3.15.49A2.25,2.25,0,0,0,222.84,51.25Z" transform="translate(0 -0.35)"/><path class="cls-32" d="M204.31,23.82a2.25,2.25,0,1,0,2.84,1.45A2.25,2.25,0,0,0,204.31,23.82Z" transform="translate(0 -0.35)"/><path class="cls-33" d="M212.07,36.29a2.26,2.26,0,1,0,2.26,2.26A2.26,2.26,0,0,0,212.07,36.29Z" transform="translate(0 -0.35)"/><path class="cls-34" d="M205.11,48.18a2.25,2.25,0,1,0,.49,3.15A2.26,2.26,0,0,0,205.11,48.18Z" transform="translate(0 -0.35)"/><path class="cls-35" d="M194.92,53.16a2.26,2.26,0,1,0-.5,3.15A2.25,2.25,0,0,0,194.92,53.16Z" transform="translate(0 -0.35)"/><path class="cls-36" d="M198.61,45.67a2.25,2.25,0,1,0-1.44,2.84A2.25,2.25,0,0,0,198.61,45.67Z" transform="translate(0 -0.35)"/><path class="cls-37" d="M197.59,30.69a2.25,2.25,0,1,0-2.84,1.45A2.25,2.25,0,0,0,197.59,30.69Z" transform="translate(0 -0.35)"/><path class="cls-38" d="M209.23,19.06a2.25,2.25,0,1,0-2.84-1.45A2.25,2.25,0,0,0,209.23,19.06Z" transform="translate(0 -0.35)"/><path class="cls-39" d="M221.63,27a1.44,1.44,0,1,0-.32-2A1.45,1.45,0,0,0,221.63,27Z" transform="translate(0 -0.35)"/><path class="cls-40" d="M226.39,36.3a1.44,1.44,0,1,0,1.44-1.44A1.45,1.45,0,0,0,226.39,36.3Z" transform="translate(0 -0.35)"/><path class="cls-41" d="M218.67,43.36a1.44,1.44,0,1,0,1.81-.92A1.43,1.43,0,0,0,218.67,43.36Z" transform="translate(0 -0.35)"/><path class="cls-42" d="M207,31.48a1.44,1.44,0,1,0,2-.31A1.44,1.44,0,0,0,207,31.48Z" transform="translate(0 -0.35)"/><path class="cls-43" d="M225.16,45.65a1.44,1.44,0,1,0,2,.31A1.44,1.44,0,0,0,225.16,45.65Z" transform="translate(0 -0.35)"/><path class="cls-44" d="M218.2,35.88a1.44,1.44,0,1,0,1.81.92A1.43,1.43,0,0,0,218.2,35.88Z" transform="translate(0 -0.35)"/><path class="cls-45" d="M214.84,47.85a1.44,1.44,0,1,0,1.43,1.44A1.44,1.44,0,0,0,214.84,47.85Z" transform="translate(0 -0.35)"/><path class="cls-46" d="M211.26,47.29a1.43,1.43,0,1,0,.93,1.81A1.43,1.43,0,0,0,211.26,47.29Z" transform="translate(0 -0.35)"/><path class="cls-47" d="M205.49,43.09a1.44,1.44,0,1,0-.32,2A1.44,1.44,0,0,0,205.49,43.09Z" transform="translate(0 -0.35)"/><path class="cls-48" d="M202.2,35.63a1.44,1.44,0,1,0-.93,1.81A1.44,1.44,0,0,0,202.2,35.63Z" transform="translate(0 -0.35)"/><path class="cls-39" d="M219.27,31.19a1.44,1.44,0,1,0-1.44,1.44A1.44,1.44,0,0,0,219.27,31.19Z" transform="translate(0 -0.35)"/><path class="cls-49" d="M211.27,25.31a1.45,1.45,0,0,0,.92-1.82,1.44,1.44,0,1,0-.92,1.82Z" transform="translate(0 -0.35)"/><path class="cls-50" d="M218.66,25.08a1.44,1.44,0,1,0-.92-1.81A1.43,1.43,0,0,0,218.66,25.08Z" transform="translate(0 -0.35)"/><path class="cls-51" d="M135.49,25.71A3,3,0,1,0,133.58,22,3,3,0,0,0,135.49,25.71Z" transform="translate(0 -0.35)"/><path class="cls-52" d="M175,22.27a3,3,0,1,0-.66-4.16A3,3,0,0,0,175,22.27Z" transform="translate(0 -0.35)"/><path class="cls-53" d="M182.14,47.5a3,3,0,1,0,3.76-1.91A3,3,0,0,0,182.14,47.5Z" transform="translate(0 -0.35)"/><path class="cls-54" d="M177.54,31.2a3,3,0,1,0,4.16-.66A3,3,0,0,0,177.54,31.2Z" transform="translate(0 -0.35)"/><path class="cls-55" d="M171.5,61.41a3,3,0,1,0,4.17.66A3,3,0,0,0,171.5,61.41Z" transform="translate(0 -0.35)"/><path class="cls-56" d="M147,25.17a3,3,0,1,0,3.76,1.91A3,3,0,0,0,147,25.17Z" transform="translate(0 -0.35)"/><path class="cls-57" d="M157.27,41.65a3,3,0,1,0,3,3A3,3,0,0,0,157.27,41.65Z" transform="translate(0 -0.35)"/><path class="cls-58" d="M148.06,57.35a3,3,0,1,0,.66,4.17A3,3,0,0,0,148.06,57.35Z" transform="translate(0 -0.35)"/><path class="cls-59" d="M134.6,63.94a3,3,0,1,0-.66,4.16A3,3,0,0,0,134.6,63.94Z" transform="translate(0 -0.35)"/><path class="cls-60" d="M139.49,54a3,3,0,1,0-1.92,3.76A3,3,0,0,0,139.49,54Z" transform="translate(0 -0.35)"/><path class="cls-61" d="M138.14,34.25a3,3,0,1,0-3.76,1.91A3,3,0,0,0,138.14,34.25Z" transform="translate(0 -0.35)"/><path class="cls-62" d="M153.52,18.87A3,3,0,1,0,149.76,17,3,3,0,0,0,153.52,18.87Z" transform="translate(0 -0.35)"/><path class="cls-63" d="M169.9,29.3a1.89,1.89,0,0,0,2.65-.42,1.9,1.9,0,1,0-2.65.42Z" transform="translate(0 -0.35)"/><path class="cls-64" d="M176.2,41.65a1.9,1.9,0,1,0,1.9-1.9A1.9,1.9,0,0,0,176.2,41.65Z" transform="translate(0 -0.35)"/><path class="cls-65" d="M166,51a1.9,1.9,0,1,0,2.39-1.22A1.89,1.89,0,0,0,166,51Z" transform="translate(0 -0.35)"/><path class="cls-66" d="M150.58,35.29a1.9,1.9,0,1,0,2.65-.42A1.9,1.9,0,0,0,150.58,35.29Z" transform="translate(0 -0.35)"/><path class="cls-67" d="M174.57,54a1.9,1.9,0,1,0,2.65.42A1.9,1.9,0,0,0,174.57,54Z" transform="translate(0 -0.35)"/><path class="cls-68" d="M165.37,41.1a1.9,1.9,0,1,0,2.4,1.22A1.89,1.89,0,0,0,165.37,41.1Z" transform="translate(0 -0.35)"/><path class="cls-69" d="M160.92,56.93a1.9,1.9,0,1,0,1.9,1.9A1.9,1.9,0,0,0,160.92,56.93Z" transform="translate(0 -0.35)"/><path class="cls-70" d="M156.2,56.18a1.9,1.9,0,1,0,1.22,2.39A1.89,1.89,0,0,0,156.2,56.18Z" transform="translate(0 -0.35)"/><path class="cls-71" d="M148.57,50.63a1.9,1.9,0,1,0-.42,2.65A1.9,1.9,0,0,0,148.57,50.63Z" transform="translate(0 -0.35)"/><path class="cls-72" d="M144.22,40.77a1.9,1.9,0,1,0-1.22,2.4A1.91,1.91,0,0,0,144.22,40.77Z" transform="translate(0 -0.35)"/><path class="cls-63" d="M166.78,34.91a1.9,1.9,0,1,0-1.9,1.9A1.9,1.9,0,0,0,166.78,34.91Z" transform="translate(0 -0.35)"/><path class="cls-73" d="M156.21,27.13a1.9,1.9,0,1,0-2.4-1.22A1.91,1.91,0,0,0,156.21,27.13Z" transform="translate(0 -0.35)"/><path class="cls-74" d="M166,26.83a1.9,1.9,0,1,0-1.22-2.39A1.89,1.89,0,0,0,166,26.83Z" transform="translate(0 -0.35)"/><path class="cls-75" d="M87.05,35.18a2.21,2.21,0,1,0-1.42-2.78A2.21,2.21,0,0,0,87.05,35.18Z" transform="translate(0 -0.35)"/><path class="cls-76" d="M116.39,32.63a2.21,2.21,0,0,0,2.6-3.58,2.21,2.21,0,1,0-2.6,3.58Z" transform="translate(0 -0.35)"/><path class="cls-77" d="M121.69,51.36a2.21,2.21,0,1,0,2.79-1.42A2.21,2.21,0,0,0,121.69,51.36Z" transform="translate(0 -0.35)"/><path class="cls-78" d="M118.27,39.26a2.21,2.21,0,1,0,3.09-.49A2.21,2.21,0,0,0,118.27,39.26Z" transform="translate(0 -0.35)"/><path class="cls-79" d="M113.79,61.69a2.21,2.21,0,1,0,3.09.49A2.21,2.21,0,0,0,113.79,61.69Z" transform="translate(0 -0.35)"/><path class="cls-80" d="M95.6,34.78a2.21,2.21,0,1,0,2.79,1.42A2.21,2.21,0,0,0,95.6,34.78Z" transform="translate(0 -0.35)"/><path class="cls-81" d="M103.22,47a2.22,2.22,0,1,0,2.22,2.21A2.21,2.21,0,0,0,103.22,47Z" transform="translate(0 -0.35)"/><path class="cls-82" d="M96.39,58.68a2.22,2.22,0,1,0,.48,3.09A2.23,2.23,0,0,0,96.39,58.68Z" transform="translate(0 -0.35)"/><path class="cls-83" d="M86.39,63.57a2.21,2.21,0,1,0-.49,3.09A2.21,2.21,0,0,0,86.39,63.57Z" transform="translate(0 -0.35)"/><path class="cls-84" d="M90,56.22A2.21,2.21,0,1,0,88.59,59,2.21,2.21,0,0,0,90,56.22Z" transform="translate(0 -0.35)"/><path class="cls-85" d="M89,41.52a2.21,2.21,0,1,0-2.79,1.42A2.22,2.22,0,0,0,89,41.52Z" transform="translate(0 -0.35)"/><path class="cls-86" d="M100.44,30.11a2.21,2.21,0,1,0-1.37-4.21,2.21,2.21,0,0,0,1.37,4.21Z" transform="translate(0 -0.35)"/><path class="cls-87" d="M112.6,37.85a1.41,1.41,0,0,0,1.66-2.29,1.41,1.41,0,0,0-1.66,2.29Z" transform="translate(0 -0.35)"/><path class="cls-88" d="M117.27,47a1.42,1.42,0,1,0,1.41-1.41A1.41,1.41,0,0,0,117.27,47Z" transform="translate(0 -0.35)"/><path class="cls-89" d="M109.69,54a1.41,1.41,0,1,0,1.78-.9A1.42,1.42,0,0,0,109.69,54Z" transform="translate(0 -0.35)"/><path class="cls-90" d="M98.25,42.3a1.41,1.41,0,1,0,2-.31A1.41,1.41,0,0,0,98.25,42.3Z" transform="translate(0 -0.35)"/><path class="cls-91" d="M116.06,56.2a1.41,1.41,0,1,0,2,.31A1.41,1.41,0,0,0,116.06,56.2Z" transform="translate(0 -0.35)"/><path class="cls-92" d="M109.23,46.61a1.41,1.41,0,1,0,1.78.9A1.41,1.41,0,0,0,109.23,46.61Z" transform="translate(0 -0.35)"/><path class="cls-93" d="M105.93,58.36a1.41,1.41,0,1,0,1.41,1.41A1.41,1.41,0,0,0,105.93,58.36Z" transform="translate(0 -0.35)"/><path class="cls-94" d="M102.43,57.81a1.41,1.41,0,1,0,.9,1.77A1.39,1.39,0,0,0,102.43,57.81Z" transform="translate(0 -0.35)"/><path class="cls-95" d="M96.76,53.69a1.41,1.41,0,1,0-.31,2A1.41,1.41,0,0,0,96.76,53.69Z" transform="translate(0 -0.35)"/><path class="cls-96" d="M93.53,46.37a1.41,1.41,0,1,0-.9,1.77A1.41,1.41,0,0,0,93.53,46.37Z" transform="translate(0 -0.35)"/><path class="cls-87" d="M110.28,42a1.41,1.41,0,1,0-1.41,1.41A1.41,1.41,0,0,0,110.28,42Z" transform="translate(0 -0.35)"/><path class="cls-97" d="M102.43,36.24a1.41,1.41,0,1,0-1.78-.91A1.42,1.42,0,0,0,102.43,36.24Z" transform="translate(0 -0.35)"/><path class="cls-98" d="M109.69,36a1.41,1.41,0,1,0-.91-1.78A1.41,1.41,0,0,0,109.69,36Z" transform="translate(0 -0.35)"/></g></g><g id="Layer_1" data-name="Layer 1"><text class="cls-99" transform="translate(0 146.83)">pine.</text><text y="-0.35"/></g></svg>