<?xml version="1.0" encoding="utf-8"?>
<!-- Generator: Adobe Illustrator 23.0.3, SVG Export Plug-In . SVG Version: 6.00 Build 0)  -->
<svg version="1.1" id="Layer_1" xmlns="http://www.w3.org/2000/svg" xmlns:xlink="http://www.w3.org/1999/xlink" x="0px" y="0px"
	 viewBox="0 0 336.6 179.8" style="enable-background:new 0 0 336.6 179.8;" xml:space="preserve">
<style type="text/css">
	.st0{display:none;}
	.st1{display:inline;opacity:0.53;}
	.st2{fill:none;}
	.st3{fill:#FFFFFF;stroke:#FBFBFC;stroke-width:0.98;stroke-miterlimit:10;}
	.st4{fill:#FFFFFF;stroke:#D0D0D2;stroke-width:0.98;stroke-miterlimit:10;}
	.st5{fill:#FFFFFF;stroke:#D2D2D5;stroke-width:0.98;stroke-miterlimit:10;}
	.st6{fill:none;stroke:#CECED1;stroke-width:0.98;stroke-miterlimit:10;}
	.st7{fill:none;stroke:#F7F7FA;stroke-width:0.98;stroke-miterlimit:10;}
	.st8{fill:none;stroke:#B4B4B7;stroke-width:0.98;stroke-miterlimit:10;}
	.st9{fill:none;stroke:#FBFBFC;stroke-width:0.98;stroke-miterlimit:10;}
	.st10{fill:#FFFFFF;stroke:#F3F3F6;stroke-width:0.98;stroke-miterlimit:10;}
	.st11{fill:#FFFFFF;stroke:#D5D5D8;stroke-width:0.98;stroke-miterlimit:10;}
	.st12{fill:#FFFFFF;stroke:#F7F7FA;stroke-width:0.98;stroke-miterlimit:10;}
	.st13{fill:#FFFFFF;stroke:#ABABAD;stroke-width:0.98;stroke-miterlimit:10;}
	.st14{fill:#FFFFFF;stroke:#F8F8FA;stroke-width:0.98;stroke-miterlimit:10;}
	.st15{fill:#FFFFFF;stroke:#F6F6F9;stroke-width:0.49;stroke-miterlimit:10;}
	.st16{fill:#FFFFFF;stroke:#ABABAD;stroke-width:0.49;stroke-miterlimit:10;}
	.st17{fill:#FFFFFF;stroke:#D2D2D5;stroke-width:0.49;stroke-miterlimit:10;}
	.st18{fill:none;stroke:#CECED1;stroke-width:0.49;stroke-miterlimit:10;}
	.st19{fill:none;stroke:#F7F7FA;stroke-width:0.49;stroke-miterlimit:10;}
	.st20{fill:none;stroke:#B4B4B7;stroke-width:0.49;stroke-miterlimit:10;}
	.st21{fill:none;stroke:#FBFBFC;stroke-width:0.49;stroke-miterlimit:10;}
	.st22{fill:#FFFFFF;stroke:#DFDFE2;stroke-width:0.49;stroke-miterlimit:10;}
	.st23{fill:#FFFFFF;stroke:#D5D5D8;stroke-width:0.49;stroke-miterlimit:10;}
	.st24{fill:#FFFFFF;stroke:#F7F7FA;stroke-width:0.49;stroke-miterlimit:10;}
	.st25{fill:#FFFFFF;stroke:#F8F8FA;stroke-width:0.49;stroke-miterlimit:10;}
	.st26{fill:#FFFFFF;stroke:#FBFBFC;stroke-width:0.49;stroke-miterlimit:10;}
	.st27{fill:#FFFFFF;stroke:#FBFBFC;stroke-width:0.71;stroke-miterlimit:10;}
	.st28{fill:#FFFFFF;stroke:#D0D0D2;stroke-width:0.71;stroke-miterlimit:10;}
	.st29{fill:#FFFFFF;stroke:#D2D2D5;stroke-width:0.71;stroke-miterlimit:10;}
	.st30{fill:none;stroke:#CECED1;stroke-width:0.71;stroke-miterlimit:10;}
	.st31{fill:none;stroke:#F7F7FA;stroke-width:0.71;stroke-miterlimit:10;}
	.st32{fill:none;stroke:#B4B4B7;stroke-width:0.71;stroke-miterlimit:10;}
	.st33{fill:none;stroke:#FBFBFC;stroke-width:0.71;stroke-miterlimit:10;}
	.st34{fill:#FFFFFF;stroke:#F3F3F6;stroke-width:0.71;stroke-miterlimit:10;}
	.st35{fill:#FFFFFF;stroke:#D5D5D8;stroke-width:0.71;stroke-miterlimit:10;}
	.st36{fill:#FFFFFF;stroke:#F7F7FA;stroke-width:0.71;stroke-miterlimit:10;}
	.st37{fill:#FFFFFF;stroke:#ABABAD;stroke-width:0.71;stroke-miterlimit:10;}
	.st38{fill:#FFFFFF;stroke:#F8F8FA;stroke-width:0.71;stroke-miterlimit:10;}
	.st39{fill:#FFFFFF;stroke:#F6F6F9;stroke-width:0.35;stroke-miterlimit:10;}
	.st40{fill:#FFFFFF;stroke:#ABABAD;stroke-width:0.35;stroke-miterlimit:10;}
	.st41{fill:#FFFFFF;stroke:#D2D2D5;stroke-width:0.35;stroke-miterlimit:10;}
	.st42{fill:none;stroke:#CECED1;stroke-width:0.35;stroke-miterlimit:10;}
	.st43{fill:none;stroke:#F7F7FA;stroke-width:0.35;stroke-miterlimit:10;}
	.st44{fill:none;stroke:#B4B4B7;stroke-width:0.35;stroke-miterlimit:10;}
	.st45{fill:none;stroke:#FBFBFC;stroke-width:0.35;stroke-miterlimit:10;}
	.st46{fill:#FFFFFF;stroke:#DFDFE2;stroke-width:0.35;stroke-miterlimit:10;}
	.st47{fill:#FFFFFF;stroke:#D5D5D8;stroke-width:0.35;stroke-miterlimit:10;}
	.st48{fill:#FFFFFF;stroke:#F7F7FA;stroke-width:0.35;stroke-miterlimit:10;}
	.st49{fill:#FFFFFF;stroke:#F8F8FA;stroke-width:0.35;stroke-miterlimit:10;}
	.st50{fill:#FFFFFF;stroke:#FBFBFC;stroke-width:0.35;stroke-miterlimit:10;}
	.st51{fill:#FFFFFF;stroke:#FBFBFC;stroke-width:0.93;stroke-miterlimit:10;}
	.st52{fill:#FFFFFF;stroke:#D0D0D2;stroke-width:0.93;stroke-miterlimit:10;}
	.st53{fill:#FFFFFF;stroke:#D2D2D5;stroke-width:0.93;stroke-miterlimit:10;}
	.st54{fill:none;stroke:#CECED1;stroke-width:0.93;stroke-miterlimit:10;}
	.st55{fill:none;stroke:#F7F7FA;stroke-width:0.93;stroke-miterlimit:10;}
	.st56{fill:none;stroke:#B4B4B7;stroke-width:0.93;stroke-miterlimit:10;}
	.st57{fill:none;stroke:#FBFBFC;stroke-width:0.93;stroke-miterlimit:10;}
	.st58{fill:#FFFFFF;stroke:#F3F3F6;stroke-width:0.93;stroke-miterlimit:10;}
	.st59{fill:#FFFFFF;stroke:#D5D5D8;stroke-width:0.93;stroke-miterlimit:10;}
	.st60{fill:#FFFFFF;stroke:#F7F7FA;stroke-width:0.93;stroke-miterlimit:10;}
	.st61{fill:#FFFFFF;stroke:#ABABAD;stroke-width:0.93;stroke-miterlimit:10;}
	.st62{fill:#FFFFFF;stroke:#F8F8FA;stroke-width:0.93;stroke-miterlimit:10;}
	.st63{fill:#FFFFFF;stroke:#F6F6F9;stroke-width:0.47;stroke-miterlimit:10;}
	.st64{fill:#FFFFFF;stroke:#ABABAD;stroke-width:0.47;stroke-miterlimit:10;}
	.st65{fill:#FFFFFF;stroke:#D2D2D5;stroke-width:0.47;stroke-miterlimit:10;}
	.st66{fill:none;stroke:#CECED1;stroke-width:0.47;stroke-miterlimit:10;}
	.st67{fill:none;stroke:#F7F7FA;stroke-width:0.47;stroke-miterlimit:10;}
	.st68{fill:none;stroke:#B4B4B7;stroke-width:0.47;stroke-miterlimit:10;}
	.st69{fill:none;stroke:#FBFBFC;stroke-width:0.47;stroke-miterlimit:10;}
	.st70{fill:#FFFFFF;stroke:#DFDFE2;stroke-width:0.47;stroke-miterlimit:10;}
	.st71{fill:#FFFFFF;stroke:#D5D5D8;stroke-width:0.47;stroke-miterlimit:10;}
	.st72{fill:#FFFFFF;stroke:#F7F7FA;stroke-width:0.47;stroke-miterlimit:10;}
	.st73{fill:#FFFFFF;stroke:#F8F8FA;stroke-width:0.47;stroke-miterlimit:10;}
	.st74{fill:#FFFFFF;stroke:#FBFBFC;stroke-width:0.47;stroke-miterlimit:10;}
	.st75{fill:#FFFFFF;stroke:#FBFBFC;stroke-width:0.69;stroke-miterlimit:10;}
	.st76{fill:#FFFFFF;stroke:#D0D0D2;stroke-width:0.69;stroke-miterlimit:10;}
	.st77{fill:#FFFFFF;stroke:#D2D2D5;stroke-width:0.69;stroke-miterlimit:10;}
	.st78{fill:none;stroke:#CECED1;stroke-width:0.69;stroke-miterlimit:10;}
	.st79{fill:none;stroke:#F7F7FA;stroke-width:0.69;stroke-miterlimit:10;}
	.st80{fill:none;stroke:#B4B4B7;stroke-width:0.69;stroke-miterlimit:10;}
	.st81{fill:none;stroke:#FBFBFC;stroke-width:0.69;stroke-miterlimit:10;}
	.st82{fill:#FFFFFF;stroke:#F3F3F6;stroke-width:0.69;stroke-miterlimit:10;}
	.st83{fill:#FFFFFF;stroke:#D5D5D8;stroke-width:0.69;stroke-miterlimit:10;}
	.st84{fill:#FFFFFF;stroke:#F7F7FA;stroke-width:0.69;stroke-miterlimit:10;}
	.st85{fill:#FFFFFF;stroke:#ABABAD;stroke-width:0.69;stroke-miterlimit:10;}
	.st86{fill:#FFFFFF;stroke:#F8F8FA;stroke-width:0.69;stroke-miterlimit:10;}
	.st87{fill:#F5F5F8;}
	.st88{font-family:'Clipangle-Bold';}
	.st89{font-size:150px;}
</style>
<g class="st0">
	<g class="st1">
		<line class="st2" x1="104.3" y1="46.7" x2="316.4" y2="25.8"/>
		<path class="st3" d="M243.2,13.8c1.6,0.5,3.4-0.3,4-2c0.5-1.6-0.3-3.4-2-4c-1.6-0.5-3.4,0.3-4,2c0,0,0,0,0,0
			C240.6,11.5,241.5,13.3,243.2,13.8z"/>
		<path class="st4" d="M284.7,10.2c1.4,1,3.4,0.7,4.4-0.7c1-1.4,0.7-3.4-0.7-4.4c-1.4-1-3.4-0.7-4.4,0.7c0,0,0,0,0,0
			C283,7.2,283.3,9.2,284.7,10.2C284.7,10.2,284.7,10.2,284.7,10.2z"/>
		<path class="st5" d="M292.2,36.7c-0.5,1.6,0.4,3.4,2,3.9c1.6,0.5,3.4-0.4,3.9-2c0.5-1.6-0.4-3.4-2-3.9
			C294.5,34.2,292.8,35.1,292.2,36.7C292.2,36.7,292.2,36.7,292.2,36.7z"/>
		<path class="st6" d="M287.4,19.6c-1,1.4-0.7,3.4,0.7,4.4c1.4,1,3.4,0.7,4.4-0.7c1-1.4,0.7-3.3-0.7-4.4
			C290.4,17.9,288.4,18.2,287.4,19.6z"/>
		<path class="st7" d="M281,51.4c-1.4,1-1.7,3-0.7,4.4c1,1.4,3,1.7,4.4,0.7c1.4-1,1.7-3,0.7-4.4C284.4,50.7,282.4,50.3,281,51.4
			C281,51.4,281,51.4,281,51.4z"/>
		<path class="st8" d="M255.3,13.2c-1.6,0.6-2.5,2.3-1.9,4c0.6,1.6,2.3,2.5,4,1.9c1.6-0.6,2.5-2.3,2-3.9
			C258.7,13.6,257,12.7,255.3,13.2C255.3,13.2,255.3,13.2,255.3,13.2z"/>
		<path class="st9" d="M266.1,30.6c-1.7,0-3.1,1.4-3.1,3.1c0,1.7,1.4,3.1,3.1,3.1s3.1-1.4,3.1-3.1C269.2,32,267.8,30.6,266.1,30.6z"
			/>
		<path class="st10" d="M256.4,47.1c-1.4-1-3.4-0.7-4.4,0.7c-1,1.4-0.7,3.4,0.7,4.4c1.4,1,3.4,0.7,4.4-0.7c0,0,0,0,0,0
			C258.1,50.1,257.8,48.1,256.4,47.1C256.4,47.1,256.4,47.1,256.4,47.1z"/>
		<path class="st11" d="M242.2,54c-1-1.4-3-1.7-4.4-0.7c-1.4,1-1.7,3-0.7,4.4c1,1.4,3,1.7,4.4,0.7C242.9,57.4,243.2,55.4,242.2,54z"
			/>
		<path class="st12" d="M247.4,43.7c-0.5-1.6-2.3-2.6-4-2c-1.6,0.5-2.6,2.3-2,4s2.3,2.6,4,2c0,0,0,0,0,0
			C247,47.1,247.9,45.3,247.4,43.7z"/>
		<path class="st13" d="M245.9,22.8c0.5-1.6-0.3-3.4-2-4c-1.6-0.5-3.4,0.3-4,2c-0.5,1.6,0.3,3.4,2,4c0,0,0,0,0,0
			C243.6,25.3,245.4,24.4,245.9,22.8z"/>
		<path class="st14" d="M262.1,6.7c1.6-0.5,2.5-2.3,2-3.9s-2.3-2.5-3.9-2c-1.6,0.5-2.5,2.3-2,3.9C258.7,6.3,260.5,7.2,262.1,6.7
			C262.1,6.7,262.1,6.7,262.1,6.7z"/>
		<path class="st15" d="M279.4,17.6c0.9,0.7,2.1,0.5,2.8-0.4c0.7-0.9,0.5-2.1-0.4-2.8c-0.9-0.7-2.1-0.5-2.8,0.4c0,0,0,0,0,0
			C278.3,15.7,278.5,16.9,279.4,17.6z"/>
		<path class="st16" d="M286,30.6c0,1.1,0.9,2,2,2s2-0.9,2-2c0-1.1-0.9-2-2-2S286,29.5,286,30.6z"/>
		<path class="st17" d="M275.2,40.4c-0.3,1.1,0.2,2.2,1.3,2.5s2.2-0.2,2.5-1.3c0.3-1.1-0.2-2.2-1.3-2.5
			C276.7,38.8,275.6,39.3,275.2,40.4C275.2,40.4,275.2,40.4,275.2,40.4z"/>
		<path class="st18" d="M259,23.9c-0.7,0.9-0.5,2.1,0.4,2.8c0.9,0.7,2.1,0.5,2.8-0.4s0.5-2.1-0.4-2.8c0,0,0,0,0,0
			C260.9,22.8,259.6,23,259,23.9z"/>
		<path class="st19" d="M284.3,43.6c-0.9,0.6-1.1,1.9-0.4,2.8c0.6,0.9,1.9,1.1,2.8,0.4c0.9-0.6,1.1-1.9,0.4-2.8c0,0,0,0,0,0
			C286.4,43.1,285.2,42.9,284.3,43.6z"/>
		<path class="st20" d="M274.6,30c-1.1,0.3-1.6,1.5-1.3,2.5s1.5,1.6,2.5,1.3c1-0.3,1.6-1.5,1.3-2.5C276.8,30.2,275.6,29.7,274.6,30
			C274.6,30,274.6,30,274.6,30z"/>
		<path class="st21" d="M269.9,46.7c-1.1,0-2,0.9-2,2s0.9,2,2,2s2-0.9,2-2S271,46.7,269.9,46.7z"/>
		<path class="st22" d="M264.9,45.9c-1.1-0.3-2.2,0.2-2.5,1.3c-0.3,1.1,0.2,2.2,1.3,2.5c1.1,0.3,2.2-0.2,2.5-1.3
			C266.6,47.3,266,46.2,264.9,45.9C264.9,45.9,264.9,45.9,264.9,45.9z"/>
		<path class="st23" d="M256.9,40c-0.6-0.9-1.9-1.1-2.8-0.4c-0.9,0.6-1.1,1.9-0.4,2.8c0.6,0.9,1.9,1.1,2.8,0.4c0,0,0,0,0,0
			C257.4,42.2,257.6,40.9,256.9,40z"/>
		<path class="st24" d="M252.3,29.6c-0.3-1.1-1.5-1.6-2.5-1.3s-1.6,1.5-1.3,2.5c0.3,1,1.5,1.6,2.5,1.3
			C252.1,31.8,252.7,30.7,252.3,29.6C252.3,29.7,252.3,29.7,252.3,29.6z"/>
		<path class="st15" d="M276.1,23.5c0-1.1-0.9-2-2-2s-2,0.9-2,2s0.9,2,2,2S276.1,24.6,276.1,23.5z"/>
		<path class="st25" d="M264.9,15.3c1.1-0.3,1.6-1.5,1.3-2.5c-0.3-1.1-1.5-1.6-2.5-1.3c-1.1,0.3-1.6,1.5-1.3,2.5c0,0,0,0,0,0
			C262.8,15.1,263.9,15.6,264.9,15.3z"/>
		<path class="st26" d="M275.2,15c1,0.3,2.2-0.2,2.5-1.3c0.3-1-0.2-2.2-1.3-2.5c-1-0.3-2.2,0.2-2.5,1.3c0,0,0,0,0,0
			C273.6,13.5,274.2,14.6,275.2,15z"/>
		<path class="st27" d="M195.6,23.9c1.2,0.4,2.5-0.2,2.9-1.4c0.4-1.2-0.2-2.5-1.4-2.9c-1.2-0.4-2.5,0.2-2.9,1.4c0,0,0,0,0,0
			C193.8,22.2,194.4,23.5,195.6,23.9z"/>
		<path class="st28" d="M225.5,21.3c1,0.7,2.4,0.5,3.2-0.5c0.7-1,0.5-2.4-0.5-3.2c-1-0.7-2.4-0.5-3.2,0.5c0,0,0,0,0,0
			C224.3,19.1,224.5,20.5,225.5,21.3z"/>
		<path class="st29" d="M230.9,40.4c-0.4,1.2,0.3,2.5,1.5,2.8c1.2,0.4,2.5-0.3,2.8-1.5c0.4-1.2-0.3-2.4-1.4-2.8
			C232.6,38.5,231.3,39.2,230.9,40.4C230.9,40.4,230.9,40.4,230.9,40.4z"/>
		<path class="st30" d="M227.4,28c-0.7,1-0.5,2.4,0.5,3.2c1,0.7,2.4,0.5,3.2-0.5c0.7-1,0.5-2.4-0.5-3.2c0,0,0,0,0,0
			C229.6,26.8,228.1,27,227.4,28C227.4,28,227.4,28,227.4,28z"/>
		<path class="st31" d="M222.8,50.9c-1,0.7-1.2,2.1-0.5,3.2s2.1,1.2,3.2,0.5c1-0.7,1.2-2.1,0.5-3.2c0,0,0,0,0,0
			C225.3,50.4,223.9,50.2,222.8,50.9C222.8,50.9,222.8,50.9,222.8,50.9z"/>
		<path class="st32" d="M204.3,23.5c-1.2,0.4-1.8,1.7-1.4,2.8c0.4,1.2,1.7,1.8,2.8,1.4c1.2-0.4,1.8-1.6,1.4-2.8
			C206.8,23.7,205.5,23.1,204.3,23.5C204.3,23.5,204.3,23.5,204.3,23.5z"/>
		<path class="st33" d="M212.1,35.9c-1.2,0-2.3,1-2.3,2.3s1,2.3,2.3,2.3c1.2,0,2.3-1,2.3-2.3c0,0,0,0,0,0
			C214.3,37,213.3,35.9,212.1,35.9z"/>
		<path class="st34" d="M205.1,47.8c-1-0.7-2.4-0.5-3.1,0.5s-0.5,2.4,0.5,3.1c1,0.7,2.4,0.5,3.1-0.5C206.3,50,206.1,48.6,205.1,47.8
			z"/>
		<path class="st35" d="M194.9,52.8c-0.7-1-2.1-1.2-3.2-0.5c-1,0.7-1.2,2.1-0.5,3.2s2.1,1.2,3.2,0.5c0,0,0,0,0,0
			C195.4,55.2,195.7,53.8,194.9,52.8C194.9,52.8,194.9,52.8,194.9,52.8z"/>
		<path class="st36" d="M198.6,45.3c-0.4-1.2-1.7-1.8-2.8-1.4c-1.2,0.4-1.8,1.7-1.4,2.8c0.4,1.2,1.7,1.8,2.8,1.4
			C198.4,47.8,199,46.5,198.6,45.3C198.6,45.3,198.6,45.3,198.6,45.3z"/>
		<path class="st37" d="M197.6,30.3c0.4-1.2-0.3-2.5-1.5-2.8c-1.2-0.4-2.5,0.3-2.8,1.5c-0.4,1.2,0.3,2.4,1.4,2.8
			C195.9,32.2,197.2,31.5,197.6,30.3C197.6,30.3,197.6,30.3,197.6,30.3z"/>
		<path class="st38" d="M209.2,18.7c1.2-0.4,1.8-1.7,1.4-2.8c-0.4-1.2-1.7-1.8-2.8-1.4c-1.2,0.4-1.8,1.6-1.4,2.8
			C206.8,18.4,208,19.1,209.2,18.7C209.2,18.7,209.2,18.7,209.2,18.7z"/>
		<path class="st39" d="M221.6,26.6c0.6,0.5,1.5,0.3,2-0.3c0.5-0.6,0.3-1.5-0.3-2c-0.6-0.5-1.5-0.3-2,0.3c0,0,0,0,0,0
			C220.9,25.3,221,26.2,221.6,26.6z"/>
		<path class="st40" d="M226.4,36c0,0.8,0.6,1.4,1.4,1.4s1.4-0.6,1.4-1.4c0-0.8-0.6-1.4-1.4-1.4C227,34.5,226.4,35.2,226.4,36z"/>
		<path class="st41" d="M218.7,43c-0.2,0.8,0.2,1.6,0.9,1.8c0.8,0.2,1.6-0.2,1.8-0.9c0.2-0.8-0.2-1.6-0.9-1.8c0,0,0,0,0,0
			C219.7,41.8,218.9,42.2,218.7,43C218.7,43,218.7,43,218.7,43z"/>
		<path class="st42" d="M207,31.1c-0.5,0.6-0.3,1.5,0.3,2c0.6,0.5,1.5,0.3,2-0.3s0.3-1.5-0.3-2c0,0,0,0,0,0
			C208.4,30.4,207.5,30.5,207,31.1z"/>
		<path class="st43" d="M225.2,45.3c-0.6,0.5-0.8,1.4-0.3,2c0.5,0.6,1.4,0.8,2,0.3c0.6-0.5,0.8-1.4,0.3-2c0,0,0,0,0,0
			C226.7,45,225.8,44.8,225.2,45.3z"/>
		<path class="st44" d="M218.2,35.5c-0.8,0.2-1.2,1.1-0.9,1.8s1.1,1.2,1.8,0.9c0.8-0.2,1.2-1.1,0.9-1.8c0,0,0,0,0,0
			C219.8,35.7,219,35.3,218.2,35.5C218.2,35.5,218.2,35.5,218.2,35.5z"/>
		<path class="st45" d="M214.8,47.5c-0.8,0-1.4,0.6-1.4,1.4c0,0.8,0.6,1.4,1.4,1.4c0.8,0,1.4-0.6,1.4-1.4c0,0,0,0,0,0
			C216.3,48.1,215.6,47.5,214.8,47.5z"/>
		<path class="st46" d="M211.3,46.9c-0.8-0.2-1.6,0.2-1.8,0.9c-0.2,0.8,0.2,1.6,0.9,1.8c0.7,0.2,1.5-0.2,1.8-0.9
			C212.4,48,212,47.2,211.3,46.9C211.3,46.9,211.3,46.9,211.3,46.9z"/>
		<path class="st47" d="M205.5,42.7c-0.5-0.6-1.4-0.8-2-0.3c-0.6,0.5-0.8,1.4-0.3,2c0.5,0.6,1.4,0.8,2,0.3c0,0,0,0,0,0
			C205.8,44.3,205.9,43.4,205.5,42.7z"/>
		<path class="st48" d="M202.2,35.3c-0.2-0.8-1.1-1.2-1.8-0.9c-0.8,0.2-1.2,1.1-0.9,1.8s1.1,1.2,1.8,0.9c0,0,0,0,0,0
			C202,36.8,202.4,36,202.2,35.3z"/>
		<path class="st39" d="M219.3,30.8c0-0.8-0.6-1.4-1.4-1.4c-0.8,0-1.4,0.6-1.4,1.4c0,0.8,0.6,1.4,1.4,1.4S219.3,31.6,219.3,30.8
			C219.3,30.8,219.3,30.8,219.3,30.8z"/>
		<path class="st49" d="M211.3,25c0.8-0.3,1.2-1.1,0.9-1.8c-0.2-0.8-1.1-1.2-1.8-0.9c-0.8,0.2-1.2,1.1-0.9,1.8
			C209.7,24.8,210.5,25.2,211.3,25z"/>
		<path class="st50" d="M218.7,24.7c0.8,0.2,1.6-0.2,1.8-0.9c0.2-0.8-0.2-1.6-0.9-1.8s-1.6,0.2-1.8,0.9c0,0,0,0,0,0
			C217.5,23.7,217.9,24.5,218.7,24.7C218.7,24.7,218.7,24.7,218.7,24.7z"/>
		<path class="st51" d="M135.5,25.4c1.6,0.5,3.3-0.3,3.8-1.9c0.5-1.6-0.3-3.3-1.9-3.8c-1.6-0.5-3.3,0.3-3.8,1.9c0,0,0,0.1,0,0.1
			C133.1,23.2,134,24.8,135.5,25.4z"/>
		<path class="st52" d="M175,21.9c1.3,1,3.2,0.7,4.2-0.6s0.7-3.2-0.6-4.2c-1.3-1-3.2-0.7-4.2,0.6c0,0,0,0,0,0
			C173.4,19.1,173.7,20.9,175,21.9z"/>
		<path class="st53" d="M182.1,47.2c-0.5,1.6,0.3,3.3,1.9,3.8c1.6,0.5,3.3-0.3,3.8-1.9s-0.3-3.3-1.9-3.8c0,0,0,0,0,0
			C184.3,44.7,182.7,45.6,182.1,47.2z"/>
		<path class="st54" d="M177.5,30.9c-1,1.3-0.7,3.2,0.6,4.2c1.3,1,3.2,0.7,4.2-0.6c1-1.3,0.7-3.2-0.6-4.2c0,0,0,0,0,0
			C180.4,29.2,178.5,29.5,177.5,30.9z"/>
		<path class="st55" d="M171.5,61.1c-1.3,1-1.7,2.8-0.7,4.2c1,1.3,2.8,1.7,4.2,0.7c1.3-1,1.7-2.8,0.7-4.2c0,0,0,0,0,0
			C174.7,60.4,172.8,60.1,171.5,61.1z"/>
		<path class="st56" d="M147,24.8c-1.6,0.5-2.4,2.2-1.9,3.8c0.5,1.6,2.2,2.4,3.8,1.9c1.6-0.5,2.4-2.2,1.9-3.8c0,0,0,0,0,0
			C150.2,25.2,148.6,24.3,147,24.8z"/>
		<path class="st57" d="M157.3,41.3c-1.7,0-3,1.3-3,3s1.3,3,3,3s3-1.3,3-3S158.9,41.3,157.3,41.3z"/>
		<path class="st58" d="M148.1,57c-1.3-1-3.2-0.7-4.2,0.6c-1,1.3-0.7,3.2,0.6,4.2s3.2,0.7,4.2-0.6c0,0,0,0,0,0
			C149.7,59.8,149.4,58,148.1,57z"/>
		<path class="st59" d="M134.6,63.6c-1-1.3-2.8-1.7-4.2-0.7s-1.7,2.8-0.7,4.2c1,1.3,2.8,1.7,4.2,0.7c0,0,0,0,0,0
			C135.3,66.8,135.6,64.9,134.6,63.6z"/>
		<path class="st60" d="M139.5,53.7c-0.5-1.6-2.2-2.5-3.8-1.9s-2.5,2.2-1.9,3.8c0.5,1.6,2.2,2.5,3.8,1.9c0,0,0,0,0,0
			C139.1,56.9,140,55.2,139.5,53.7z"/>
		<path class="st61" d="M138.1,33.9c0.5-1.6-0.3-3.3-1.9-3.8c-1.6-0.5-3.3,0.3-3.8,1.9c-0.5,1.6,0.3,3.3,1.9,3.8c0,0,0,0,0,0
			C135.9,36.3,137.6,35.5,138.1,33.9z"/>
		<path class="st62" d="M153.5,18.5c1.6-0.5,2.4-2.2,1.9-3.8c-0.5-1.6-2.2-2.4-3.8-1.9c-1.6,0.5-2.4,2.2-1.9,3.8c0,0,0,0,0,0.1
			C150.3,18.2,152,19,153.5,18.5z"/>
		<path class="st63" d="M169.9,28.9c0.8,0.6,2,0.4,2.6-0.4c0,0,0,0,0,0c0.6-0.8,0.4-2-0.4-2.7s-2-0.4-2.7,0.4
			C168.9,27.1,169,28.3,169.9,28.9C169.9,28.9,169.9,28.9,169.9,28.9z"/>
		<path class="st64" d="M176.2,41.3c0,1,0.9,1.9,1.9,1.9c1,0,1.9-0.9,1.9-1.9c0-1-0.9-1.9-1.9-1.9l0,0
			C177.1,39.4,176.2,40.3,176.2,41.3z"/>
		<path class="st65" d="M166,50.7c-0.3,1,0.2,2.1,1.2,2.4s2.1-0.2,2.4-1.2c0.3-1-0.2-2.1-1.2-2.4c0,0,0,0,0,0
			C167.4,49.1,166.3,49.6,166,50.7C166,50.6,166,50.6,166,50.7z"/>
		<path class="st66" d="M150.6,34.9c-0.6,0.8-0.4,2,0.4,2.7c0.8,0.6,2,0.4,2.7-0.4c0.6-0.8,0.4-2-0.4-2.7c0,0,0,0,0,0
			C152.4,33.9,151.2,34.1,150.6,34.9z"/>
		<path class="st67" d="M174.6,53.7c-0.8,0.6-1,1.8-0.4,2.7c0.6,0.8,1.8,1,2.7,0.4c0.8-0.6,1-1.8,0.4-2.7c0,0,0,0,0,0
			C176.6,53.2,175.4,53,174.6,53.7z"/>
		<path class="st68" d="M165.4,40.8c-1,0.3-1.5,1.4-1.2,2.4c0.3,1,1.4,1.5,2.4,1.2c1-0.3,1.5-1.4,1.2-2.4
			C167.5,41,166.4,40.4,165.4,40.8C165.4,40.7,165.4,40.7,165.4,40.8z"/>
		<path class="st69" d="M160.9,56.6c-1,0-1.9,0.9-1.9,1.9s0.9,1.9,1.9,1.9c1,0,1.9-0.9,1.9-1.9v0C162.8,57.4,162,56.6,160.9,56.6z"
			/>
		<path class="st70" d="M156.2,55.8c-1-0.3-2.1,0.2-2.4,1.2c-0.3,1,0.2,2.1,1.2,2.4c1,0.3,2.1-0.2,2.4-1.2c0,0,0,0,0,0
			C157.7,57.2,157.2,56.2,156.2,55.8C156.2,55.8,156.2,55.8,156.2,55.8z"/>
		<path class="st71" d="M148.6,50.3c-0.6-0.8-1.8-1-2.7-0.4s-1,1.8-0.4,2.7c0.6,0.8,1.8,1,2.7,0.4c0,0,0,0,0,0
			C149,52.3,149.2,51.1,148.6,50.3z"/>
		<path class="st72" d="M144.2,40.4c-0.3-1-1.4-1.5-2.4-1.2c-1,0.3-1.5,1.4-1.2,2.4c0.3,1,1.4,1.5,2.4,1.2
			C144,42.5,144.5,41.4,144.2,40.4z"/>
		<path class="st63" d="M166.8,34.6c0-1-0.9-1.9-1.9-1.9c-1,0-1.9,0.9-1.9,1.9c0,1,0.9,1.9,1.9,1.9l0,0
			C165.9,36.5,166.8,35.6,166.8,34.6z"/>
		<path class="st73" d="M156.2,26.8c1-0.3,1.5-1.4,1.2-2.4c-0.3-1-1.4-1.5-2.4-1.2c-1,0.3-1.5,1.4-1.2,2.4
			C154.1,26.6,155.2,27.1,156.2,26.8z"/>
		<path class="st74" d="M166,26.5c1,0.3,2.1-0.2,2.4-1.2c0.3-1-0.2-2.1-1.2-2.4c-1-0.3-2.1,0.2-2.4,1.2c0,0,0,0,0,0
			C164.5,25.1,165,26.1,166,26.5C166,26.5,166,26.5,166,26.5z"/>
		<path class="st75" d="M87.1,34.8c1.2,0.4,2.4-0.3,2.8-1.4c0.4-1.2-0.3-2.4-1.4-2.8c-1.2-0.4-2.4,0.3-2.8,1.4c0,0,0,0,0,0
			C85.3,33.2,85.9,34.5,87.1,34.8z"/>
		<path class="st76" d="M116.4,32.3c1,0.7,2.4,0.5,3.1-0.5c0.7-1,0.5-2.4-0.5-3.1l0,0c-1-0.7-2.4-0.5-3.1,0.5
			C115.2,30.2,115.4,31.6,116.4,32.3z"/>
		<path class="st77" d="M121.7,51c-0.4,1.2,0.3,2.4,1.4,2.8c1.2,0.4,2.4-0.3,2.8-1.4c0.4-1.2-0.3-2.4-1.4-2.8
			C123.3,49.2,122.1,49.8,121.7,51C121.7,51,121.7,51,121.7,51z"/>
		<path class="st78" d="M118.3,38.9c-0.7,1-0.5,2.4,0.5,3.1s2.4,0.5,3.1-0.5c0.7-1,0.5-2.4-0.5-3.1C120.4,37.7,119,37.9,118.3,38.9
			C118.3,38.9,118.3,38.9,118.3,38.9z"/>
		<path class="st79" d="M113.8,61.3c-1,0.7-1.2,2.1-0.5,3.1c0.7,1,2.1,1.2,3.1,0.5c1-0.7,1.2-2.1,0.5-3.1
			C116.2,60.8,114.8,60.6,113.8,61.3C113.8,61.3,113.8,61.3,113.8,61.3z"/>
		<path class="st80" d="M95.6,34.4c-1.2,0.4-1.8,1.6-1.4,2.8s1.6,1.8,2.8,1.4c1.2-0.4,1.8-1.6,1.4-2.8C98,34.7,96.8,34.1,95.6,34.4
			C95.6,34.4,95.6,34.4,95.6,34.4z"/>
		<path class="st81" d="M103.2,46.7c-1.2,0-2.2,1-2.2,2.2c0,1.2,1,2.2,2.2,2.2c1.2,0,2.2-1,2.2-2.2c0,0,0,0,0,0
			C105.4,47.6,104.5,46.6,103.2,46.7C103.2,46.6,103.2,46.6,103.2,46.7z"/>
		<path class="st82" d="M96.4,58.3c-1-0.7-2.4-0.5-3.1,0.5c-0.7,1-0.5,2.4,0.5,3.1c1,0.7,2.4,0.5,3.1-0.5c0,0,0,0,0,0
			C97.6,60.4,97.4,59.1,96.4,58.3z"/>
		<path class="st83" d="M86.4,63.2c-0.7-1-2.1-1.2-3.1-0.5c-1,0.7-1.2,2.1-0.5,3.1c0.7,1,2.1,1.2,3.1,0.5
			C86.9,65.6,87.1,64.2,86.4,63.2C86.4,63.2,86.4,63.2,86.4,63.2z"/>
		<path class="st84" d="M90,55.9c-0.4-1.2-1.6-1.8-2.8-1.4c-1.2,0.4-1.8,1.6-1.4,2.8c0.4,1.2,1.6,1.8,2.8,1.4c0,0,0,0,0,0
			C89.7,58.3,90.4,57,90,55.9z"/>
		<path class="st85" d="M89,41.2c0.4-1.2-0.3-2.4-1.4-2.8c-1.2-0.4-2.4,0.3-2.8,1.4c-0.4,1.2,0.3,2.4,1.4,2.8
			C87.4,43,88.6,42.3,89,41.2z"/>
		<path class="st86" d="M100.4,29.8c1.2-0.4,1.8-1.6,1.4-2.8s-1.6-1.8-2.8-1.4c-1.2,0.4-1.8,1.6-1.4,2.8S99.3,30.1,100.4,29.8
			L100.4,29.8z"/>
		<path class="st39" d="M112.6,37.5c0.6,0.5,1.5,0.3,2-0.3c0.5-0.6,0.3-1.5-0.3-2s-1.5-0.3-2,0.3C111.8,36.2,112,37,112.6,37.5z"/>
		<path class="st40" d="M117.3,46.7c0,0.8,0.6,1.4,1.4,1.4c0.8,0,1.4-0.6,1.4-1.4c0-0.8-0.6-1.4-1.4-1.4c0,0,0,0,0,0
			C117.9,45.2,117.3,45.9,117.3,46.7L117.3,46.7z"/>
		<path class="st41" d="M109.7,53.7c-0.2,0.7,0.2,1.5,0.9,1.8s1.5-0.2,1.8-0.9c0.2-0.7-0.2-1.5-0.9-1.8
			C110.7,52.5,109.9,52.9,109.7,53.7z"/>
		<path class="st42" d="M98.3,42c-0.5,0.6-0.3,1.5,0.3,2c0.6,0.5,1.5,0.3,2-0.3c0.4-0.6,0.3-1.5-0.3-1.9
			C99.6,41.2,98.7,41.3,98.3,42C98.3,41.9,98.3,41.9,98.3,42z"/>
		<path class="st43" d="M116.1,55.9c-0.6,0.5-0.7,1.4-0.3,2s1.4,0.7,2,0.3c0.6-0.5,0.7-1.3,0.3-1.9
			C117.6,55.5,116.7,55.4,116.1,55.9C116.1,55.8,116.1,55.8,116.1,55.9z"/>
		<path class="st44" d="M109.2,46.3c-0.7,0.2-1.1,1-0.9,1.8c0.2,0.7,1,1.1,1.8,0.9c0.7-0.2,1.1-1,0.9-1.8
			C110.8,46.4,110,46,109.2,46.3C109.2,46.3,109.2,46.3,109.2,46.3z"/>
		<path class="st45" d="M105.9,58c-0.8,0-1.4,0.6-1.4,1.4s0.6,1.4,1.4,1.4c0.8,0,1.4-0.6,1.4-1.4S106.7,58,105.9,58L105.9,58z"/>
		<path class="st46" d="M102.4,57.5c-0.7-0.2-1.5,0.2-1.8,0.9s0.2,1.5,0.9,1.8c0.7,0.2,1.5-0.2,1.8-0.9c0,0,0,0,0,0
			C103.6,58.5,103.2,57.7,102.4,57.5C102.4,57.5,102.4,57.5,102.4,57.5z"/>
		<path class="st47" d="M96.8,53.3c-0.5-0.6-1.4-0.7-2-0.3c-0.6,0.5-0.7,1.4-0.3,2c0.5,0.6,1.3,0.7,1.9,0.3
			C97.1,54.9,97.2,54,96.8,53.3C96.8,53.4,96.8,53.4,96.8,53.3z"/>
		<path class="st48" d="M93.5,46c-0.2-0.7-1-1.1-1.8-0.9c-0.7,0.2-1.1,1-0.9,1.8c0.2,0.7,1,1.1,1.8,0.9c0,0,0,0,0,0
			C93.4,47.5,93.8,46.8,93.5,46z"/>
		<path class="st39" d="M110.3,41.7c0-0.8-0.6-1.4-1.4-1.4c-0.8,0-1.4,0.6-1.4,1.4s0.6,1.4,1.4,1.4
			C109.6,43.1,110.3,42.4,110.3,41.7L110.3,41.7z"/>
		<path class="st49" d="M102.4,35.9c0.7-0.2,1.1-1,0.9-1.8c-0.2-0.7-1-1.1-1.8-0.9c-0.7,0.2-1.1,1-0.9,1.8
			C100.9,35.7,101.7,36.1,102.4,35.9z"/>
		<path class="st50" d="M109.7,35.7c0.7,0.2,1.5-0.2,1.8-0.9s-0.2-1.5-0.9-1.8c-0.7-0.2-1.5,0.2-1.8,0.9
			C108.5,34.6,108.9,35.4,109.7,35.7C109.7,35.6,109.7,35.6,109.7,35.7z"/>
	</g>
</g>
<g>
	<text transform="matrix(1 0 0 1 0 146.83)" class="st87 st88 st89">pine.</text>
</g>
</svg>
