<?xml version="1.0" encoding="utf-8"?>
<!-- Generator: Adobe Illustrator 23.0.3, SVG Export Plug-In . SVG Version: 6.00 Build 0)  -->
<svg version="1.1" id="Layer_1" xmlns="http://www.w3.org/2000/svg" xmlns:xlink="http://www.w3.org/1999/xlink" x="0px" y="0px"
	 viewBox="0 0 349.9 206.4" style="enable-background:new 0 0 349.9 206.4;" xml:space="preserve">
<style type="text/css">
	.st0{opacity:0.53;}
	.st1{fill:none;}
	.st2{fill:#FFFFFF;stroke:#BFE2CA;stroke-width:0.98;stroke-miterlimit:10;}
	.st3{fill:#FFFFFF;stroke:#1FA267;stroke-width:0.98;stroke-miterlimit:10;}
	.st4{fill:#FFFFFF;stroke:#71C493;stroke-width:0.98;stroke-miterlimit:10;}
	.st5{fill:none;stroke:#21A96C;stroke-width:0.98;stroke-miterlimit:10;}
	.st6{fill:none;stroke:#50BC83;stroke-width:0.98;stroke-miterlimit:10;}
	.st7{fill:none;stroke:#006B43;stroke-width:0.98;stroke-miterlimit:10;}
	.st8{fill:none;stroke:#BFE2CA;stroke-width:0.98;stroke-miterlimit:10;}
	.st9{fill:#FFFFFF;stroke:#21A96C;stroke-width:0.98;stroke-miterlimit:10;}
	.st10{fill:#FFFFFF;stroke:#1FA368;stroke-width:0.98;stroke-miterlimit:10;}
	.st11{fill:#FFFFFF;stroke:#95D0AA;stroke-width:0.98;stroke-miterlimit:10;}
	.st12{fill:#FFFFFF;stroke:#01764A;stroke-width:0.98;stroke-miterlimit:10;}
	.st13{fill:#FFFFFF;stroke:#73C594;stroke-width:0.98;stroke-miterlimit:10;}
	.st14{fill:#FFFFFF;stroke:#44B97E;stroke-width:0.49;stroke-miterlimit:10;}
	.st15{fill:#FFFFFF;stroke:#01764A;stroke-width:0.49;stroke-miterlimit:10;}
	.st16{fill:#FFFFFF;stroke:#71C493;stroke-width:0.49;stroke-miterlimit:10;}
	.st17{fill:none;stroke:#21A96C;stroke-width:0.49;stroke-miterlimit:10;}
	.st18{fill:none;stroke:#50BC83;stroke-width:0.49;stroke-miterlimit:10;}
	.st19{fill:none;stroke:#006B43;stroke-width:0.49;stroke-miterlimit:10;}
	.st20{fill:none;stroke:#BFE2CA;stroke-width:0.49;stroke-miterlimit:10;}
	.st21{fill:#FFFFFF;stroke:#7EC89B;stroke-width:0.49;stroke-miterlimit:10;}
	.st22{fill:#FFFFFF;stroke:#1FA368;stroke-width:0.49;stroke-miterlimit:10;}
	.st23{fill:#FFFFFF;stroke:#95D0AA;stroke-width:0.49;stroke-miterlimit:10;}
	.st24{fill:#FFFFFF;stroke:#24B473;stroke-width:0.49;stroke-miterlimit:10;}
	.st25{fill:#FFFFFF;stroke:#73C594;stroke-width:0.49;stroke-miterlimit:10;}
	.st26{fill:#FFFFFF;stroke:#BFE2CA;stroke-width:0.49;stroke-miterlimit:10;}
	.st27{fill:#FFFFFF;stroke:#BFE2CA;stroke-width:0.71;stroke-miterlimit:10;}
	.st28{fill:#FFFFFF;stroke:#1FA267;stroke-width:0.71;stroke-miterlimit:10;}
	.st29{fill:#FFFFFF;stroke:#71C493;stroke-width:0.71;stroke-miterlimit:10;}
	.st30{fill:none;stroke:#21A96C;stroke-width:0.71;stroke-miterlimit:10;}
	.st31{fill:none;stroke:#50BC83;stroke-width:0.71;stroke-miterlimit:10;}
	.st32{fill:none;stroke:#006B43;stroke-width:0.71;stroke-miterlimit:10;}
	.st33{fill:none;stroke:#BFE2CA;stroke-width:0.71;stroke-miterlimit:10;}
	.st34{fill:#FFFFFF;stroke:#21A96C;stroke-width:0.71;stroke-miterlimit:10;}
	.st35{fill:#FFFFFF;stroke:#1FA368;stroke-width:0.71;stroke-miterlimit:10;}
	.st36{fill:#FFFFFF;stroke:#95D0AA;stroke-width:0.71;stroke-miterlimit:10;}
	.st37{fill:#FFFFFF;stroke:#01764A;stroke-width:0.71;stroke-miterlimit:10;}
	.st38{fill:#FFFFFF;stroke:#73C594;stroke-width:0.71;stroke-miterlimit:10;}
	.st39{fill:#FFFFFF;stroke:#44B97E;stroke-width:0.35;stroke-miterlimit:10;}
	.st40{fill:#FFFFFF;stroke:#01764A;stroke-width:0.35;stroke-miterlimit:10;}
	.st41{fill:#FFFFFF;stroke:#71C493;stroke-width:0.35;stroke-miterlimit:10;}
	.st42{fill:none;stroke:#21A96C;stroke-width:0.35;stroke-miterlimit:10;}
	.st43{fill:none;stroke:#50BC83;stroke-width:0.35;stroke-miterlimit:10;}
	.st44{fill:none;stroke:#006B43;stroke-width:0.35;stroke-miterlimit:10;}
	.st45{fill:none;stroke:#BFE2CA;stroke-width:0.35;stroke-miterlimit:10;}
	.st46{fill:#FFFFFF;stroke:#7EC89B;stroke-width:0.35;stroke-miterlimit:10;}
	.st47{fill:#FFFFFF;stroke:#1FA368;stroke-width:0.35;stroke-miterlimit:10;}
	.st48{fill:#FFFFFF;stroke:#95D0AA;stroke-width:0.35;stroke-miterlimit:10;}
	.st49{fill:#FFFFFF;stroke:#24B473;stroke-width:0.35;stroke-miterlimit:10;}
	.st50{fill:#FFFFFF;stroke:#73C594;stroke-width:0.35;stroke-miterlimit:10;}
	.st51{fill:#FFFFFF;stroke:#BFE2CA;stroke-width:0.35;stroke-miterlimit:10;}
	.st52{fill:#FFFFFF;stroke:#BFE2CA;stroke-width:0.93;stroke-miterlimit:10;}
	.st53{fill:#FFFFFF;stroke:#1FA267;stroke-width:0.93;stroke-miterlimit:10;}
	.st54{fill:#FFFFFF;stroke:#71C493;stroke-width:0.93;stroke-miterlimit:10;}
	.st55{fill:none;stroke:#21A96C;stroke-width:0.93;stroke-miterlimit:10;}
	.st56{fill:none;stroke:#50BC83;stroke-width:0.93;stroke-miterlimit:10;}
	.st57{fill:none;stroke:#006B43;stroke-width:0.93;stroke-miterlimit:10;}
	.st58{fill:none;stroke:#BFE2CA;stroke-width:0.93;stroke-miterlimit:10;}
	.st59{fill:#FFFFFF;stroke:#21A96C;stroke-width:0.93;stroke-miterlimit:10;}
	.st60{fill:#FFFFFF;stroke:#1FA368;stroke-width:0.93;stroke-miterlimit:10;}
	.st61{fill:#FFFFFF;stroke:#95D0AA;stroke-width:0.93;stroke-miterlimit:10;}
	.st62{fill:#FFFFFF;stroke:#01764A;stroke-width:0.93;stroke-miterlimit:10;}
	.st63{fill:#FFFFFF;stroke:#73C594;stroke-width:0.93;stroke-miterlimit:10;}
	.st64{fill:#FFFFFF;stroke:#44B97E;stroke-width:0.47;stroke-miterlimit:10;}
	.st65{fill:#FFFFFF;stroke:#01764A;stroke-width:0.47;stroke-miterlimit:10;}
	.st66{fill:#FFFFFF;stroke:#71C493;stroke-width:0.47;stroke-miterlimit:10;}
	.st67{fill:none;stroke:#21A96C;stroke-width:0.47;stroke-miterlimit:10;}
	.st68{fill:none;stroke:#50BC83;stroke-width:0.47;stroke-miterlimit:10;}
	.st69{fill:none;stroke:#006B43;stroke-width:0.47;stroke-miterlimit:10;}
	.st70{fill:none;stroke:#BFE2CA;stroke-width:0.47;stroke-miterlimit:10;}
	.st71{fill:#FFFFFF;stroke:#7EC89B;stroke-width:0.47;stroke-miterlimit:10;}
	.st72{fill:#FFFFFF;stroke:#1FA368;stroke-width:0.47;stroke-miterlimit:10;}
	.st73{fill:#FFFFFF;stroke:#95D0AA;stroke-width:0.47;stroke-miterlimit:10;}
	.st74{fill:#FFFFFF;stroke:#24B473;stroke-width:0.47;stroke-miterlimit:10;}
	.st75{fill:#FFFFFF;stroke:#73C594;stroke-width:0.47;stroke-miterlimit:10;}
	.st76{fill:#FFFFFF;stroke:#BFE2CA;stroke-width:0.47;stroke-miterlimit:10;}
	.st77{fill:#FFFFFF;stroke:#BFE2CA;stroke-width:0.69;stroke-miterlimit:10;}
	.st78{fill:#FFFFFF;stroke:#1FA267;stroke-width:0.69;stroke-miterlimit:10;}
	.st79{fill:#FFFFFF;stroke:#71C493;stroke-width:0.69;stroke-miterlimit:10;}
	.st80{fill:none;stroke:#21A96C;stroke-width:0.69;stroke-miterlimit:10;}
	.st81{fill:none;stroke:#50BC83;stroke-width:0.69;stroke-miterlimit:10;}
	.st82{fill:none;stroke:#006B43;stroke-width:0.69;stroke-miterlimit:10;}
	.st83{fill:none;stroke:#BFE2CA;stroke-width:0.69;stroke-miterlimit:10;}
	.st84{fill:#FFFFFF;stroke:#21A96C;stroke-width:0.69;stroke-miterlimit:10;}
	.st85{fill:#FFFFFF;stroke:#1FA368;stroke-width:0.69;stroke-miterlimit:10;}
	.st86{fill:#FFFFFF;stroke:#95D0AA;stroke-width:0.69;stroke-miterlimit:10;}
	.st87{fill:#FFFFFF;stroke:#01764A;stroke-width:0.69;stroke-miterlimit:10;}
	.st88{fill:#FFFFFF;stroke:#73C594;stroke-width:0.69;stroke-miterlimit:10;}
	.st89{font-family:'MyriadPro-Regular';}
	.st90{font-size:12px;}
</style>
<title>Artboard 1</title>
<g>
	<g class="st0">
		<line class="st1" x1="145.6" y1="47.9" x2="321.5" y2="37"/>
		<rect x="280.7" y="6.8" class="st1" width="60.3" height="61.9"/>
		<path class="st2" d="M285,20.9c1.6,0.5,3.4-0.4,3.9-2c0.5-1.6-0.4-3.4-2-3.9c-1.6-0.5-3.4,0.3-3.9,2
			C282.4,18.6,283.3,20.4,285,20.9C285,20.9,285,20.9,285,20.9z"/>
		<path class="st3" d="M326.5,17.3c1.4,1,3.4,0.7,4.4-0.7c1-1.4,0.7-3.4-0.7-4.4c-1.4-1-3.4-0.7-4.4,0.7c0,0,0,0,0,0
			C324.8,14.4,325.1,16.3,326.5,17.3z"/>
		<path class="st4" d="M334,43.9c-0.5,1.6,0.4,3.4,2,3.9c1.6,0.5,3.4-0.4,3.9-2c0.5-1.6-0.3-3.4-2-3.9
			C336.4,41.3,334.6,42.2,334,43.9C334,43.8,334,43.8,334,43.9z"/>
		<path class="st5" d="M329.2,26.7c-1,1.4-0.7,3.4,0.7,4.4s3.4,0.7,4.4-0.7c1-1.4,0.7-3.4-0.7-4.4c0,0,0,0,0,0
			C332.1,25,330.2,25.3,329.2,26.7z"/>
		<path class="st6" d="M322.8,58.5c-1.4,1-1.7,3-0.7,4.4c1,1.4,3,1.7,4.4,0.7c1.4-1,1.7-3,0.7-4.4C326.2,57.8,324.2,57.5,322.8,58.5
			C322.8,58.5,322.8,58.5,322.8,58.5z"/>
		<path class="st7" d="M297.1,20.4c-1.6,0.5-2.5,2.3-2,3.9s2.3,2.5,3.9,2c1.6-0.5,2.5-2.3,2-3.9C300.5,20.7,298.7,19.8,297.1,20.4z"
			/>
		<path class="st8" d="M307.9,37.7c-1.7,0-3.1,1.4-3.1,3.1s1.4,3.1,3.1,3.1s3.1-1.4,3.1-3.1C311,39.1,309.6,37.7,307.9,37.7z"/>
		<path class="st9" d="M298.2,54.2c-1.4-1-3.4-0.7-4.4,0.7c-1,1.4-0.7,3.4,0.7,4.4c1.4,1,3.4,0.7,4.4-0.7c0,0,0,0,0,0
			C299.9,57.2,299.6,55.3,298.2,54.2C298.2,54.2,298.2,54.2,298.2,54.2z"/>
		<path class="st10" d="M284,61.2c-1-1.4-3-1.7-4.4-0.7c-1.4,1-1.7,3-0.7,4.4c1,1.4,3,1.7,4.4,0.7c0,0,0,0,0,0
			C284.7,64.5,285,62.6,284,61.2z"/>
		<path class="st11" d="M289.1,50.8c-0.5-1.7-2.3-2.6-3.9-2c-1.7,0.5-2.6,2.3-2,3.9s2.3,2.6,3.9,2c0,0,0,0,0,0
			C288.8,54.1,289.7,52.4,289.1,50.8z"/>
		<path class="st12" d="M287.7,29.9c0.5-1.6-0.4-3.4-2-4s-3.4,0.4-4,2c-0.5,1.6,0.3,3.4,2,3.9C285.4,32.5,287.2,31.6,287.7,29.9
			C287.7,30,287.7,29.9,287.7,29.9z"/>
		<path class="st13" d="M303.9,13.8c1.6-0.6,2.5-2.3,1.9-4c-0.6-1.6-2.3-2.5-4-1.9c-1.6,0.6-2.5,2.3-2,3.9
			C300.4,13.4,302.2,14.3,303.9,13.8C303.9,13.8,303.9,13.8,303.9,13.8z"/>
		<path class="st14" d="M321.1,24.7c0.9,0.6,2.1,0.4,2.8-0.4c0.6-0.9,0.4-2.1-0.4-2.8c-0.9-0.6-2.1-0.5-2.8,0.4
			C320,22.8,320.2,24.1,321.1,24.7C321.1,24.7,321.1,24.7,321.1,24.7z"/>
		<path class="st15" d="M327.8,37.7c0,1.1,0.9,2,2,2s2-0.9,2-2s-0.9-2-2-2S327.8,36.6,327.8,37.7z"/>
		<path class="st16" d="M317,47.5c-0.3,1.1,0.2,2.2,1.3,2.5s2.2-0.2,2.5-1.3c0.3-1.1-0.2-2.2-1.3-2.5
			C318.5,45.9,317.3,46.5,317,47.5C317,47.5,317,47.5,317,47.5z"/>
		<path class="st17" d="M300.8,31c-0.7,0.9-0.5,2.1,0.4,2.8c0.9,0.7,2.1,0.5,2.8-0.4s0.5-2.1-0.4-2.8c0,0,0,0,0,0
			C302.7,29.9,301.5,30.1,300.8,31z"/>
		<path class="st18" d="M326,50.7c-0.9,0.6-1.1,1.9-0.5,2.8c0.6,0.9,1.9,1.1,2.8,0.5c0.9-0.6,1.1-1.9,0.5-2.8c0,0,0,0,0,0
			C328.2,50.3,326.9,50.1,326,50.7z"/>
		<path class="st19" d="M316.4,37.1c-1.1,0.3-1.6,1.5-1.3,2.5c0.3,1.1,1.5,1.6,2.5,1.3c1.1-0.3,1.6-1.5,1.3-2.5c0,0,0,0,0,0
			C318.5,37.4,317.4,36.8,316.4,37.1z"/>
		<path class="st20" d="M311.7,53.8c-1.1,0-2,0.9-2,2s0.9,2,2,2s2-0.9,2-2S312.8,53.8,311.7,53.8z"/>
		<path class="st21" d="M306.7,53c-1-0.4-2.2,0.2-2.5,1.3s0.2,2.2,1.3,2.5c1,0.4,2.2-0.2,2.5-1.3c0,0,0,0,0,0
			C308.3,54.5,307.8,53.3,306.7,53z"/>
		<path class="st22" d="M298.7,47.2c-0.6-0.9-1.9-1.1-2.8-0.4c-0.9,0.6-1.1,1.9-0.4,2.8c0.6,0.9,1.9,1.1,2.8,0.4c0,0,0,0,0,0
			C299.2,49.3,299.3,48.1,298.7,47.2z"/>
		<path class="st23" d="M294.1,36.8c-0.3-1.1-1.5-1.6-2.5-1.3c-1.1,0.3-1.6,1.5-1.3,2.5c0.3,1,1.5,1.6,2.5,1.3
			C293.9,39,294.5,37.8,294.1,36.8C294.1,36.8,294.1,36.8,294.1,36.8z"/>
		<path class="st24" d="M317.9,30.6c0-1.1-0.9-2-2-2c-1.1,0-2,0.9-2,2c0,1.1,0.9,2,2,2S317.9,31.7,317.9,30.6L317.9,30.6z"/>
		<path class="st25" d="M306.7,22.4c1.1-0.3,1.6-1.5,1.3-2.5c-0.3-1.1-1.5-1.6-2.5-1.3c-1.1,0.3-1.6,1.5-1.3,2.5c0,0,0,0,0,0
			C304.6,22.2,305.7,22.8,306.7,22.4z"/>
		<path class="st26" d="M317,22.1c1,0.3,2.2-0.2,2.5-1.3c0.3-1-0.2-2.2-1.3-2.5c-1-0.3-2.2,0.2-2.5,1.3c0,0,0,0,0,0
			C315.4,20.6,316,21.8,317,22.1z"/>
		<rect x="234.2" y="18.9" class="st1" width="43.4" height="44.5"/>
		<path class="st27" d="M237.2,29c1.2,0.4,2.5-0.3,2.9-1.5c0.4-1.2-0.3-2.5-1.5-2.8c-1.2-0.4-2.5,0.3-2.8,1.5
			C235.4,27.4,236,28.6,237.2,29z"/>
		<path class="st28" d="M267.1,26.4c1,0.7,2.4,0.5,3.2-0.5c0.7-1,0.5-2.4-0.5-3.2c-1-0.7-2.4-0.5-3.2,0.5c0,0,0,0,0,0
			C265.9,24.3,266.1,25.7,267.1,26.4z"/>
		<path class="st29" d="M272.5,45.5c-0.4,1.2,0.3,2.5,1.5,2.8c1.2,0.4,2.5-0.3,2.8-1.5c0.4-1.2-0.3-2.4-1.4-2.8
			C274.2,43.7,272.9,44.3,272.5,45.5z"/>
		<path class="st30" d="M269,33.2c-0.7,1-0.5,2.4,0.5,3.2c1,0.7,2.4,0.5,3.2-0.5c0.7-1,0.5-2.4-0.5-3.2c0,0,0,0,0,0
			C271.1,32,269.7,32.2,269,33.2C269,33.2,269,33.2,269,33.2z"/>
		<path class="st31" d="M264.5,56c-1,0.7-1.2,2.1-0.5,3.2c0.7,1,2.1,1.2,3.2,0.5s1.2-2.1,0.5-3.2c0,0,0,0,0,0
			C266.9,55.5,265.5,55.3,264.5,56C264.5,56,264.5,56,264.5,56z"/>
		<path class="st32" d="M245.9,28.6c-1.2,0.4-1.8,1.7-1.4,2.8c0.4,1.2,1.7,1.8,2.8,1.4c1.2-0.4,1.8-1.6,1.4-2.8
			C248.4,28.9,247.1,28.2,245.9,28.6z"/>
		<path class="st33" d="M253.7,41.1c-1.2,0-2.2,1-2.2,2.3c0,1.2,1,2.2,2.3,2.2c1.2,0,2.2-1,2.2-2.3C256,42.1,255,41.1,253.7,41.1
			C253.7,41.1,253.7,41.1,253.7,41.1z"/>
		<path class="st34" d="M246.7,53c-1-0.7-2.4-0.5-3.2,0.5c-0.7,1-0.5,2.4,0.5,3.2s2.4,0.5,3.2-0.5c0,0,0,0,0,0
			C248,55.1,247.7,53.7,246.7,53z"/>
		<path class="st35" d="M236.6,58c-0.7-1-2.1-1.2-3.2-0.5c-1,0.7-1.2,2.1-0.5,3.2s2.1,1.2,3.2,0.5c0,0,0,0,0,0
			C237.1,60.4,237.3,59,236.6,58C236.6,58,236.6,58,236.6,58z"/>
		<path class="st36" d="M240.3,50.5c-0.4-1.2-1.7-1.8-2.8-1.5s-1.8,1.7-1.5,2.8s1.7,1.8,2.8,1.5c0,0,0,0,0,0
			C240,52.9,240.6,51.7,240.3,50.5z"/>
		<path class="st37" d="M239.2,35.5c0.4-1.2-0.3-2.5-1.5-2.8s-2.5,0.3-2.8,1.5c-0.4,1.2,0.3,2.4,1.5,2.8
			C237.6,37.4,238.8,36.7,239.2,35.5C239.2,35.5,239.2,35.5,239.2,35.5z"/>
		<path class="st38" d="M250.9,23.9c1.2-0.4,1.8-1.7,1.4-2.8c-0.4-1.2-1.7-1.8-2.8-1.4c-1.2,0.4-1.8,1.6-1.4,2.8
			C248.4,23.6,249.6,24.2,250.9,23.9C250.8,23.9,250.8,23.9,250.9,23.9z"/>
		<path class="st39" d="M263.3,31.8c0.6,0.5,1.6,0.3,2-0.3c0.5-0.6,0.3-1.6-0.3-2l0,0c-0.6-0.5-1.5-0.4-2,0.3S262.6,31.2,263.3,31.8
			C263.3,31.7,263.3,31.7,263.3,31.8L263.3,31.8z"/>
		<path class="st40" d="M268,41.1c0,0.8,0.6,1.4,1.4,1.4s1.4-0.6,1.4-1.4c0-0.8-0.6-1.4-1.4-1.4S268,40.3,268,41.1L268,41.1z"/>
		<path class="st41" d="M260.3,48.2c-0.3,0.7,0,1.6,0.8,1.9c0.7,0.3,1.6,0,1.9-0.8c0-0.1,0.1-0.1,0.1-0.2c0.3-0.7,0-1.6-0.8-1.9
			c-0.7-0.3-1.6,0-1.9,0.8C260.3,48,260.3,48.1,260.3,48.2z"/>
		<path class="st42" d="M248.6,36.3c-0.5,0.6-0.3,1.5,0.3,2c0.6,0.5,1.5,0.3,2-0.3c0.5-0.6,0.3-1.5-0.3-2c0,0,0,0,0,0
			C250,35.5,249.1,35.7,248.6,36.3z"/>
		<path class="st43" d="M266.8,50.5c-0.6,0.5-0.8,1.4-0.3,2c0.5,0.6,1.4,0.8,2,0.3c0.6-0.5,0.8-1.4,0.3-2c0,0,0,0,0,0
			C268.3,50.1,267.4,50,266.8,50.5z"/>
		<path class="st44" d="M259.8,40.7c-0.8,0.2-1.2,1.1-0.9,1.8c0.2,0.8,1.1,1.2,1.8,0.9c0.8-0.2,1.2-1.1,0.9-1.8c0,0,0,0,0,0
			C261.4,40.8,260.6,40.4,259.8,40.7C259.8,40.7,259.8,40.7,259.8,40.7z"/>
		<path class="st45" d="M256.5,52.7c-0.8,0-1.4,0.6-1.4,1.4c0,0.8,0.6,1.4,1.4,1.4c0.8,0,1.4-0.6,1.4-1.4c0,0,0,0,0,0
			C257.9,53.3,257.3,52.7,256.5,52.7C256.5,52.7,256.5,52.7,256.5,52.7z"/>
		<path class="st46" d="M252.9,52.1c-0.8-0.2-1.6,0.2-1.8,0.9c-0.2,0.8,0.2,1.6,0.9,1.8c0.8,0.2,1.6-0.2,1.8-0.9c0,0,0,0,0,0
			C254.1,53.1,253.6,52.3,252.9,52.1z"/>
		<path class="st47" d="M247.1,47.9c-0.5-0.6-1.4-0.8-2-0.3c-0.6,0.5-0.8,1.4-0.3,2c0.5,0.6,1.4,0.8,2,0.3c0,0,0,0,0,0
			C247.4,49.4,247.6,48.5,247.1,47.9z"/>
		<path class="st48" d="M243.8,40.4c-0.2-0.8-1.1-1.2-1.8-0.9c-0.8,0.2-1.2,1.1-0.9,1.8c0.2,0.8,1.1,1.2,1.8,0.9
			C243.7,42,244.1,41.2,243.8,40.4z"/>
		<path class="st49" d="M260.9,36c0-0.8-0.6-1.4-1.4-1.4S258,35.2,258,36c0,0.8,0.6,1.4,1.4,1.4C260.2,37.4,260.9,36.8,260.9,36
			C260.9,36,260.9,36,260.9,36z"/>
		<path class="st50" d="M252.9,30.1c0.8-0.2,1.2-1.1,0.9-1.8s-1.1-1.2-1.8-0.9c-0.8,0.2-1.2,1.1-0.9,1.8c0,0,0,0,0,0
			C251.3,29.9,252.1,30.4,252.9,30.1C252.9,30.1,252.9,30.1,252.9,30.1z"/>
		<path class="st51" d="M260.3,29.9c0.8,0.2,1.6-0.2,1.8-0.9c0.2-0.8-0.2-1.6-0.9-1.8c-0.8-0.2-1.6,0.2-1.8,0.9
			C259.1,28.8,259.5,29.6,260.3,29.9C260.3,29.9,260.3,29.9,260.3,29.9z"/>
		<rect x="172.9" y="15.1" class="st1" width="57.3" height="58.8"/>
		<path class="st52" d="M177,28.5c1.6,0.5,3.3-0.3,3.8-1.9s-0.3-3.3-1.9-3.8c-1.6-0.5-3.3,0.3-3.8,1.9c0,0,0,0,0,0
			C174.6,26.3,175.4,28,177,28.5z"/>
		<path class="st53" d="M216.5,25.1c1.3,1,3.2,0.7,4.2-0.6s0.7-3.2-0.6-4.2c-1.3-1-3.2-0.7-4.2,0.6c0,0,0,0,0,0
			C214.9,22.3,215.1,24.1,216.5,25.1z"/>
		<path class="st54" d="M223.6,50.3c-0.5,1.6,0.3,3.3,1.9,3.8c1.6,0.5,3.3-0.3,3.8-1.9s-0.3-3.3-1.9-3.8c0,0,0,0,0,0
			C225.8,47.9,224.1,48.8,223.6,50.3z"/>
		<path class="st55" d="M219,34c-1,1.3-0.7,3.2,0.6,4.2c1.3,1,3.2,0.7,4.2-0.6c1-1.3,0.7-3.2-0.6-4.2c0,0,0,0,0,0
			C221.8,32.4,220,32.7,219,34z"/>
		<path class="st56" d="M213,64.2c-1.3,1-1.7,2.8-0.7,4.2c1,1.3,2.8,1.7,4.2,0.7s1.7-2.8,0.7-4.2c0,0,0,0,0,0
			C216.2,63.6,214.3,63.3,213,64.2z"/>
		<path class="st57" d="M188.5,28c-1.6,0.5-2.4,2.2-1.9,3.8c0.5,1.6,2.2,2.4,3.8,1.9c1.6-0.5,2.4-2.2,1.9-3.8c0,0,0,0,0,0
			C191.7,28.4,190,27.5,188.5,28z"/>
		<path class="st58" d="M198.8,44.5c-1.7,0-3,1.3-3,3s1.3,3,3,3s3-1.3,3-3S200.4,44.5,198.8,44.5z"/>
		<path class="st59" d="M189.5,60.2c-1.3-1-3.2-0.7-4.2,0.6S184.6,64,186,65s3.2,0.7,4.2-0.6c0,0,0,0,0,0
			C191.1,63,190.9,61.2,189.5,60.2z"/>
		<path class="st60" d="M176.1,66.8c-1-1.3-2.8-1.7-4.2-0.7c-1.3,1-1.7,2.8-0.7,4.2c1,1.3,2.8,1.7,4.2,0.7c0,0,0,0,0,0
			C176.7,69.9,177,68.1,176.1,66.8z"/>
		<path class="st61" d="M181,56.9c-0.5-1.6-2.2-2.5-3.8-2s-2.5,2.2-2,3.8c0.5,1.6,2.2,2.5,3.7,2C180.6,60.1,181.5,58.5,181,56.9
			C181,56.9,181,56.9,181,56.9z"/>
		<path class="st62" d="M179.6,37.1c0.5-1.6-0.3-3.3-1.9-3.8c-1.6-0.5-3.3,0.3-3.8,1.9c-0.5,1.6,0.3,3.3,1.9,3.8c0,0,0,0,0,0
			C177.4,39.5,179.1,38.6,179.6,37.1z"/>
		<path class="st63" d="M195,21.7c1.6-0.5,2.4-2.2,1.9-3.8c-0.5-1.6-2.2-2.4-3.8-1.9c-1.6,0.5-2.4,2.2-1.9,3.8c0,0,0,0,0,0
			C191.8,21.3,193.4,22.2,195,21.7z"/>
		<path class="st64" d="M211.4,32.1c0.9,0.6,2,0.4,2.7-0.4s0.4-2-0.4-2.7c-0.8-0.6-2-0.4-2.6,0.4C210.3,30.3,210.5,31.5,211.4,32.1
			C211.4,32.1,211.4,32.1,211.4,32.1z"/>
		<path class="st65" d="M217.7,44.5c0,1,0.9,1.9,1.9,1.9c1,0,1.9-0.9,1.9-1.9c0-1-0.9-1.9-1.9-1.9l0,0
			C218.5,42.6,217.7,43.4,217.7,44.5z"/>
		<path class="st66" d="M207.5,53.8c-0.3,1,0.2,2.1,1.2,2.4s2.1-0.2,2.4-1.2c0.3-1-0.2-2.1-1.2-2.4c0,0,0,0,0,0
			C208.9,52.3,207.8,52.8,207.5,53.8C207.5,53.8,207.5,53.8,207.5,53.8z"/>
		<path class="st67" d="M192.1,38.1c-0.6,0.9-0.4,2,0.4,2.7c0.9,0.6,2,0.4,2.7-0.4s0.4-2-0.4-2.7C193.9,37.1,192.7,37.3,192.1,38.1
			L192.1,38.1z"/>
		<path class="st68" d="M216,56.8c-0.8,0.6-1,1.8-0.4,2.7c0.6,0.8,1.8,1,2.7,0.4c0.8-0.6,1-1.8,0.4-2.7c0,0,0,0,0,0
			C218,56.4,216.8,56.2,216,56.8z"/>
		<path class="st69" d="M206.8,43.9c-1,0.3-1.5,1.4-1.2,2.4c0.3,1,1.4,1.5,2.4,1.2c1-0.3,1.5-1.4,1.2-2.4
			C208.9,44.1,207.8,43.6,206.8,43.9C206.8,43.9,206.8,43.9,206.8,43.9z"/>
		<path class="st70" d="M202.4,59.8c-1,0-1.9,0.9-1.9,1.9s0.9,1.9,1.9,1.9c1,0,1.9-0.9,1.9-1.9v0C204.3,60.6,203.4,59.8,202.4,59.8z
			"/>
		<path class="st71" d="M197.7,59c-1-0.3-2.1,0.2-2.4,1.2c-0.3,1,0.2,2.1,1.2,2.4c1,0.3,2.1-0.2,2.4-1.2
			C199.2,60.4,198.7,59.3,197.7,59C197.7,59,197.7,59,197.7,59z"/>
		<path class="st72" d="M190,53.5c-0.6-0.8-1.8-1-2.7-0.4s-1,1.8-0.4,2.7c0.6,0.8,1.8,1,2.6,0.4C190.4,55.5,190.6,54.3,190,53.5
			C190,53.5,190,53.5,190,53.5z"/>
		<path class="st73" d="M185.7,43.6c-0.3-1-1.4-1.5-2.4-1.2c-1,0.3-1.5,1.4-1.2,2.4c0.3,1,1.4,1.5,2.4,1.2
			C185.5,45.7,186,44.6,185.7,43.6C185.7,43.6,185.7,43.6,185.7,43.6z"/>
		<path class="st74" d="M208.3,37.7c0-1-0.9-1.9-1.9-1.9c-1,0-1.9,0.9-1.9,1.9c0,1,0.9,1.9,1.9,1.9l0,0
			C207.4,39.6,208.3,38.8,208.3,37.7z"/>
		<path class="st75" d="M197.7,30c1-0.3,1.5-1.4,1.2-2.4c-0.3-1-1.4-1.5-2.4-1.2c-1,0.3-1.5,1.4-1.2,2.4
			C195.6,29.8,196.7,30.3,197.7,30C197.7,30,197.7,30,197.7,30z"/>
		<path class="st76" d="M207.4,29.6c1,0.3,2.1-0.2,2.4-1.2c0.3-1-0.2-2.1-1.2-2.4c-1-0.3-2.1,0.2-2.4,1.2c0,0,0,0,0,0
			C205.9,28.3,206.4,29.3,207.4,29.6C207.4,29.6,207.4,29.6,207.4,29.6z"/>
		<rect x="125.4" y="26" class="st1" width="42.6" height="43.7"/>
		<path class="st77" d="M128.4,36c1.2,0.4,2.4-0.2,2.8-1.4c0.4-1.2-0.2-2.4-1.4-2.8s-2.4,0.2-2.8,1.4c0,0,0,0,0,0.1
			C126.6,34.4,127.2,35.6,128.4,36z"/>
		<path class="st78" d="M157.7,33.5c1,0.7,2.4,0.5,3.1-0.5c0.7-1,0.5-2.4-0.5-3.1c-1-0.7-2.4-0.5-3.1,0.5
			C156.5,31.4,156.7,32.7,157.7,33.5C157.7,33.5,157.7,33.5,157.7,33.5z"/>
		<path class="st79" d="M163,52.2c-0.4,1.2,0.3,2.4,1.4,2.8s2.4-0.3,2.8-1.4c0.4-1.2-0.3-2.4-1.4-2.8C164.6,50.4,163.4,51,163,52.2
			C163,52.2,163,52.2,163,52.2z"/>
		<path class="st80" d="M159.6,40.1c-0.7,1-0.5,2.4,0.5,3.1s2.4,0.5,3.1-0.5c0.7-1,0.5-2.4-0.5-3.1
			C161.7,38.9,160.3,39.1,159.6,40.1C159.6,40.1,159.6,40.1,159.6,40.1z"/>
		<path class="st81" d="M155.1,62.5c-1,0.7-1.2,2.1-0.5,3.1c0.7,1,2.1,1.2,3.1,0.5c1-0.7,1.2-2.1,0.5-3.1
			C157.5,62,156.1,61.8,155.1,62.5C155.1,62.5,155.1,62.5,155.1,62.5z"/>
		<path class="st82" d="M136.9,35.6c-1.2,0.4-1.8,1.6-1.4,2.8c0.4,1.2,1.6,1.8,2.8,1.4c1.2-0.4,1.8-1.6,1.4-2.8c0,0,0,0,0,0
			C139.3,35.9,138.1,35.2,136.9,35.6z"/>
		<path class="st83" d="M144.5,47.9c-1.2,0-2.2,1-2.2,2.2s1,2.2,2.2,2.2c1.2,0,2.2-1,2.2-2.2c0,0,0,0,0,0
			C146.8,48.8,145.8,47.9,144.5,47.9L144.5,47.9z"/>
		<path class="st84" d="M137.7,59.5c-1-0.7-2.4-0.5-3.1,0.5c-0.7,1-0.5,2.4,0.5,3.1c1,0.7,2.4,0.5,3.1-0.5
			C138.9,61.6,138.7,60.2,137.7,59.5C137.7,59.5,137.7,59.5,137.7,59.5z"/>
		<path class="st85" d="M127.7,64.4c-0.7-1-2.1-1.2-3.1-0.5c-1,0.7-1.2,2.1-0.5,3.1c0.7,1,2.1,1.2,3.1,0.5
			C128.2,66.8,128.4,65.4,127.7,64.4C127.7,64.4,127.7,64.4,127.7,64.4z"/>
		<path class="st86" d="M131.3,57.1c-0.4-1.2-1.6-1.8-2.8-1.4c-1.2,0.4-1.8,1.6-1.4,2.8c0.4,1.2,1.6,1.8,2.8,1.4
			C131.1,59.5,131.7,58.2,131.3,57.1C131.3,57.1,131.3,57.1,131.3,57.1z"/>
		<path class="st87" d="M130.3,42.4c0.4-1.2-0.3-2.4-1.4-2.8c-1.2-0.4-2.4,0.3-2.8,1.4c-0.4,1.2,0.3,2.4,1.4,2.8
			C128.7,44.2,129.9,43.5,130.3,42.4z"/>
		<path class="st88" d="M141.8,31c1.2-0.4,1.8-1.6,1.5-2.8c-0.4-1.2-1.6-1.8-2.8-1.5c-1.2,0.4-1.8,1.6-1.5,2.8c0,0,0,0,0,0
			C139.4,30.7,140.6,31.3,141.8,31z"/>
		<path class="st39" d="M153.9,38.7c0.6,0.5,1.5,0.3,2-0.3c0.5-0.6,0.3-1.5-0.3-2l0,0c-0.6-0.5-1.5-0.3-2,0.3
			C153.1,37.3,153.3,38.2,153.9,38.7z"/>
		<path class="st40" d="M158.6,47.9c0,0.8,0.6,1.4,1.4,1.4c0.8,0,1.4-0.6,1.4-1.4s-0.6-1.4-1.4-1.4S158.6,47.1,158.6,47.9
			L158.6,47.9z"/>
		<path class="st41" d="M151,54.8c-0.2,0.7,0.2,1.5,0.9,1.8c0.7,0.2,1.5-0.2,1.8-0.9s-0.2-1.5-0.9-1.8c0,0,0,0,0,0
			C152,53.6,151.2,54,151,54.8C151,54.8,151,54.8,151,54.8z"/>
		<path class="st42" d="M139.6,43.1c-0.5,0.6-0.3,1.5,0.3,2c0.6,0.5,1.5,0.3,2-0.3c0.4-0.6,0.3-1.5-0.3-1.9
			C140.9,42.4,140.1,42.5,139.6,43.1C139.6,43.1,139.6,43.1,139.6,43.1z"/>
		<path class="st43" d="M157.4,57c-0.6,0.5-0.7,1.4-0.3,2s1.4,0.7,2,0.3c0.6-0.5,0.7-1.3,0.3-1.9C158.9,56.7,158,56.5,157.4,57
			C157.4,57,157.4,57,157.4,57z"/>
		<path class="st44" d="M150.6,47.5c-0.7,0.2-1.1,1-0.9,1.8c0.2,0.7,1,1.1,1.8,0.9c0.7-0.2,1.1-1,0.9-1.8
			C152.1,47.6,151.3,47.2,150.6,47.5z"/>
		<path class="st45" d="M147.3,59.2c-0.8,0-1.4,0.6-1.4,1.4c0,0.8,0.6,1.4,1.4,1.4c0.8,0,1.4-0.6,1.4-1.4S148,59.2,147.3,59.2
			L147.3,59.2z"/>
		<path class="st46" d="M143.7,58.7c-0.7-0.2-1.5,0.2-1.8,0.9c-0.2,0.7,0.2,1.5,0.9,1.8s1.5-0.2,1.8-0.9c0,0,0,0,0,0
			C144.9,59.7,144.5,58.9,143.7,58.7z"/>
		<path class="st47" d="M138.1,54.5c-0.5-0.6-1.4-0.7-2-0.3c-0.6,0.5-0.7,1.4-0.3,2c0.5,0.6,1.3,0.7,1.9,0.3
			C138.4,56.1,138.5,55.2,138.1,54.5C138.1,54.6,138.1,54.5,138.1,54.5z"/>
		<path class="st48" d="M134.9,47.2c-0.2-0.7-1-1.2-1.8-0.9c-0.7,0.2-1.2,1-0.9,1.8s1,1.2,1.8,0.9C134.7,48.7,135.1,48,134.9,47.2
			L134.9,47.2z"/>
		<path class="st49" d="M151.6,42.8c0-0.8-0.6-1.4-1.4-1.4s-1.4,0.6-1.4,1.4s0.6,1.4,1.4,1.4c0,0,0,0,0,0
			C151,44.3,151.6,43.6,151.6,42.8z"/>
		<path class="st50" d="M143.7,37.1c0.7-0.2,1.2-1,0.9-1.8c-0.2-0.7-1-1.2-1.8-0.9c-0.7,0.2-1.2,1-0.9,1.8c0,0,0,0,0,0
			C142.2,36.9,143,37.3,143.7,37.1z"/>
		<path class="st51" d="M151,36.9c0.7,0.2,1.5-0.2,1.8-0.9c0.2-0.7-0.2-1.5-0.9-1.8c-0.7-0.2-1.5,0.2-1.8,0.9
			C149.9,35.8,150.3,36.6,151,36.9z"/>
	</g>
</g>
<text transform="matrix(1 0 0 1 31 129)" class="st89 st90">Explore</text>
</svg>
