<?xml version="1.0" encoding="utf-8"?>
<!-- Generator: Adobe Illustrator 23.0.3, SVG Export Plug-In . SVG Version: 6.00 Build 0)  -->
<svg version="1.1" id="Layer_1" xmlns="http://www.w3.org/2000/svg" xmlns:xlink="http://www.w3.org/1999/xlink" x="0px" y="0px"
	 viewBox="0 0 1200 1200" style="enable-background:new 0 0 1200 1200;" xml:space="preserve">
<style type="text/css">
	.st0{fill:#FFFFFF;}
	.st1{fill:#112F55;}
</style>
<rect y="17.8" class="st0" width="1182.2" height="1182.2"/>
<g transform="translate(600 600) scale(0.69 0.69) rotate(0) translate(-600 -600)">
	<circle class="st1" cx="603.2" cy="421.5" r="303.1"/>
	<path class="st1" d="M601.3-230C138.4-230-239,145.7-239,610.3s377.5,840.3,840.3,840.3s840.3-377.5,840.3-840.3
		S1064.2-230,601.3-230z M1095,1140.2C1033.3,975,899,799,601.3,799c-295.8,0-431.9,176-493.7,341.2
		c-141.5-132.5-232.2-321.2-232.2-530c0.1-399.2,325-725.9,726-725.9s726,324.9,726,725.9C1327.3,819,1236.6,1007.7,1095,1140.2z"/>
</g>
</svg>
