<svg height='300px' width='300px'  fill="#4ec48f" xmlns="http://www.w3.org/2000/svg" xmlns:xlink="http://www.w3.org/1999/xlink" version="1.1" x="0px" y="0px" viewBox="0 0 48 48" enable-background="new 0 0 48 48" xml:space="preserve"><g><g><path fill="none" stroke="#4ec48f" stroke-width="2" stroke-miterlimit="10" d="M5.7,37.4c-2.4-3.5-3.9-7.7-3.9-12.2    c0-10.8,8.1-19.7,18.7-21.5"></path><path fill="none" stroke="#4ec48f" stroke-width="2" stroke-miterlimit="10" d="M38.2,42.5c-3.8,2.8-8.6,4.5-13.8,4.5    c-5,0-9.6-1.6-13.3-4.2"></path><path fill="none" stroke="#4ec48f" stroke-width="2" stroke-miterlimit="10" d="M29.3,3.8C39.4,6,47,14.7,47,25.1    c0,4.8-1.6,9.2-4.3,12.9"></path><polyline fill="none" stroke="#4ec48f" stroke-width="2" stroke-miterlimit="10" points="33.2,1 29.1,3.7 31.9,7.8   "></polyline><polyline fill="none" stroke="#4ec48f" stroke-width="2" stroke-miterlimit="10" points="1,37.3 6,37.7 6.4,32.8   "></polyline><polyline fill="none" stroke="#4ec48f" stroke-width="2" stroke-miterlimit="10" points="37.8,46.9 38.6,42.1 33.6,41.3   "></polyline></g><g><polygon fill="none" stroke="#4ec48f" stroke-width="2" stroke-miterlimit="10" points="27.5,10.7 12.7,10.7 12.7,37.3 35.3,37.3     35.3,18.8   "></polygon><polyline fill="none" stroke="#4ec48f" stroke-width="2" stroke-miterlimit="10" points="27.5,10.7 27.5,18.8 35.3,18.8   "></polyline><line fill="none" stroke="#4ec48f" stroke-width="2" stroke-miterlimit="10" x1="17.2" y1="24.6" x2="31.4" y2="24.6"></line><line fill="none" stroke="#4ec48f" stroke-width="2" stroke-miterlimit="10" x1="17.2" y1="29.8" x2="31.4" y2="29.8"></line></g></g></svg>