<svg xmlns="http://www.w3.org/2000/svg" xmlns:xlink="http://www.w3.org/1999/xlink" width="1200" height="1200" viewBox="0 0 1200 1200"><rect width="100%" height="100%" fill="#ffffff"></rect><g transform="translate(600 600) scale(0.69 0.69) rotate(0) translate(-600 -600)" style="fill:#4ec48f"><svg fill="#4ec48f" xmlns="http://www.w3.org/2000/svg" data-name="Layer 1" viewBox="0 0 100 100" x="0px" y="0px"><title>Artboard 54</title><path d="M97.5,9.29H86.18C81.3,12.54,76.72,16,72.48,19.48h0l-.1.08A207.39,207.39,0,0,0,43.21,48.87L23.43,37.56l-5.66,5.65s17,19.84,25.44,33.93A319.78,319.78,0,0,1,70.36,38.25h0q3.33-4.16,6.78-8.14h0A199.46,199.46,0,0,1,97.5,9.29Z"></path><path d="M70.36,77.14a6.8,6.8,0,0,1-6.79,6.79H16.07a6.79,6.79,0,0,1-6.78-6.79V29.64a6.79,6.79,0,0,1,6.78-6.78H53.39c2.3-2.2,4.75-4.47,7.4-6.79H16.07A13.57,13.57,0,0,0,2.5,29.64v47.5A13.56,13.56,0,0,0,16.07,90.71h47.5A13.57,13.57,0,0,0,77.14,77.14V46c-2.32,2.92-4.58,5.84-6.78,8.79Z"></path></svg></g></svg>