<?xml version="1.0" encoding="utf-8"?>
<!-- Generator: Adobe Illustrator 23.0.3, SVG Export Plug-In . SVG Version: 6.00 Build 0)  -->
<svg version="1.1" id="Layer_1" xmlns="http://www.w3.org/2000/svg" xmlns:xlink="http://www.w3.org/1999/xlink" x="0px" y="0px"
	 viewBox="0 0 24 24" style="enable-background:new 0 0 24 24;" xml:space="preserve">
<style type="text/css">
	.st0{fill:#4EC48F;}
</style>
<path class="st0" d="M14.2,15.3c0.1,0.1,0.1,0.2,0,0.3c-0.5,0.5-1.2,0.7-2.2,0.7l0,0l0,0c-1,0-1.8-0.2-2.2-0.7
	c-0.1-0.1-0.1-0.2,0-0.3c0.1-0.1,0.2-0.1,0.3,0c0.4,0.4,1,0.6,1.9,0.6l0,0l0,0c0.9,0,1.5-0.2,1.9-0.6C14,15.3,14.2,15.3,14.2,15.3z
	 M10.8,12.9c0-0.5-0.4-0.9-0.9-0.9C9.4,12,9,12.4,9,12.9c0,0.5,0.4,0.9,0.9,0.9C10.4,13.8,10.8,13.4,10.8,12.9z M24,12
	c0,6.6-5.4,12-12,12S0,18.6,0,12S5.4,0,12,0S24,5.4,24,12z M19,11.9c0-0.9-0.7-1.5-1.5-1.5c-0.4,0-0.8,0.2-1.1,0.4
	c-1.1-0.7-2.5-1.1-4.1-1.2l0.9-2.7l2.3,0.5l0,0c0,0.7,0.6,1.3,1.3,1.3s1.3-0.6,1.3-1.3s-0.6-1.3-1.3-1.3c-0.5,0-1,0.3-1.2,0.8
	l-2.5-0.6c-0.1,0-0.2,0-0.3,0.1l-1,3c-1.7,0-3.2,0.5-4.3,1.2c-0.3-0.3-0.6-0.4-1-0.4C5.7,10.3,5,11,5,11.9c0,0.6,0.3,1.1,0.8,1.3
	c0,0.2-0.1,0.3-0.1,0.5c0,2.3,2.8,4.1,6.3,4.1s6.3-1.9,6.3-4.1c0-0.2,0-0.3,0-0.5C18.7,13,19,12.5,19,11.9z M14.1,12
	c-0.5,0-0.9,0.4-0.9,0.9c0,0.5,0.4,0.9,0.9,0.9s0.9-0.4,0.9-0.9C15.1,12.4,14.6,12,14.1,12z"/>
</svg>
