<svg xmlns="http://www.w3.org/2000/svg" xmlns:xlink="http://www.w3.org/1999/xlink" width="1200" height="1200" viewBox="0 0 1200 1200"><rect width="100%" height="100%" fill="#ffffff"></rect><g transform="translate(600 600) scale(0.69 0.69) rotate(0) translate(-600 -600)" style="fill:#4ec48f"><svg fill="#4ec48f" xmlns="http://www.w3.org/2000/svg" xmlns:xlink="http://www.w3.org/1999/xlink" version="1.1" x="0px" y="0px" viewBox="0 0 24 24" enable-background="new 0 0 24 24" xml:space="preserve"><g><path d="M21.151,23.829H2.85c-1.477,0-2.679-1.201-2.679-2.678V2.85c0-1.477,1.202-2.678,2.679-2.678h18.301   c1.477,0,2.678,1.201,2.678,2.678V21.15C23.829,22.627,22.628,23.829,21.151,23.829z M2.85,1.471c-0.76,0-1.379,0.619-1.379,1.378   V21.15c0,0.76,0.619,1.378,1.379,1.378h18.301c0.76,0,1.378-0.619,1.378-1.378V2.85c0-0.76-0.618-1.378-1.378-1.378H2.85z"></path><path d="M21.944,5.329H2.056c-1.04,0-1.885-0.845-1.885-1.884c0-0.359,0.291-0.65,0.65-0.65s0.65,0.291,0.65,0.65   c0,0.322,0.263,0.584,0.585,0.584h19.888c0.322,0,0.585-0.262,0.585-0.584c0-0.359,0.291-0.65,0.65-0.65s0.65,0.291,0.65,0.65   C23.829,4.483,22.984,5.329,21.944,5.329z"></path><g><path d="M6.587,23.651c-0.359,0-0.65-0.291-0.65-0.65V4.809c0-0.359,0.291-0.65,0.65-0.65s0.65,0.291,0.65,0.65v18.192    C7.237,23.36,6.946,23.651,6.587,23.651z"></path><path d="M12.006,23.651c-0.359,0-0.65-0.291-0.65-0.65V4.809c0-0.359,0.291-0.65,0.65-0.65s0.65,0.291,0.65,0.65v18.192    C12.656,23.36,12.365,23.651,12.006,23.651z"></path><path d="M17.426,23.651c-0.359,0-0.65-0.291-0.65-0.65V4.809c0-0.359,0.291-0.65,0.65-0.65s0.65,0.291,0.65,0.65v18.192    C18.075,23.36,17.784,23.651,17.426,23.651z"></path></g><g><path d="M22.722,19.273H1.278c-0.359,0-0.65-0.291-0.65-0.65s0.291-0.65,0.65-0.65h21.444c0.359,0,0.65,0.291,0.65,0.65    S23.081,19.273,22.722,19.273z"></path><path d="M22.722,14.534H1.278c-0.359,0-0.65-0.291-0.65-0.65s0.291-0.65,0.65-0.65h21.444c0.359,0,0.65,0.291,0.65,0.65    S23.081,14.534,22.722,14.534z"></path><path d="M22.722,9.794H1.278c-0.359,0-0.65-0.291-0.65-0.65s0.291-0.65,0.65-0.65h21.444c0.359,0,0.65,0.291,0.65,0.65    S23.081,9.794,22.722,9.794z"></path></g></g></svg></g></svg>