<?xml version="1.0" encoding="utf-8"?>
<!-- Generator: Adobe Illustrator 23.0.3, SVG Export Plug-In . SVG Version: 6.00 Build 0)  -->
<svg version="1.1" id="Layer_1" xmlns="http://www.w3.org/2000/svg" xmlns:xlink="http://www.w3.org/1999/xlink" x="0px" y="0px"
	 viewBox="0 0 1200 1200" style="enable-background:new 0 0 1200 1200;" xml:space="preserve">
<style type="text/css">
	.st0{fill:#FFFFFF;}
	.st1{fill:#4EC48F;}
</style>
<rect x="-100" y="-90" class="st0" width="1400" height="1400"/>
<g transform="translate(600 600) scale(0.69 0.69) rotate(0) translate(-600 -600)">
	<title>Chart</title>
	<g>
		<path class="st1" d="M1081.3,1052H162.5V133.2c0-24.2-19.6-43.8-43.8-43.8S75,109.1,75,133.2v962.5c0,24.2,19.6,43.8,43.8,43.8
			h962.5c24.2,0,43.8-19.6,43.8-43.8C1125,1071.6,1105.4,1052,1081.3,1052z"/>
		<path class="st1" d="M260.9,789.5c12.4,0.2,24.4-4.9,32.8-14l253.8-273l96.3,99.3c17,17.2,44.7,17.3,61.9,0.3
			c0.1-0.1,0.2-0.2,0.3-0.3l287.9-286.6V352c0,24.2,19.6,43.7,43.8,43.7c24.2,0,43.8-19.6,43.8-43.7V220.7
			c0-24.2-19.6-43.8-43.8-43.8h-4.8h-6.1H906.3c-24.2,0-43.8,19.6-43.8,43.8s19.6,43.8,43.8,43.8h14.9L676.6,509.1L576.4,408.4
			c-8.5-8.4-20-13-31.9-12.7c-11.8,0.3-23,5.3-31.1,14L229,716c-16.4,17.7-15.4,45.4,2.3,61.8C239.4,785.3,250,789.5,260.9,789.5z"
			/>
		<path class="st1" d="M337.5,833.2v131.3c0,24.2,19.6,43.8,43.8,43.8s43.8-19.6,43.8-43.8V833.2c0-24.2-19.6-43.8-43.8-43.8
			S337.5,809.1,337.5,833.2z"/>
		<path class="st1" d="M512.5,702v262.5c0,24.2,19.6,43.8,43.8,43.8s43.8-19.6,43.8-43.8V702c0-24.2-19.6-43.8-43.8-43.8
			S512.5,677.8,512.5,702z"/>
		<path class="st1" d="M687.5,745.7v218.8c0,24.2,19.6,43.8,43.8,43.8s43.8-19.6,43.8-43.8V745.7c0-24.2-19.6-43.8-43.8-43.8
			S687.5,721.6,687.5,745.7z"/>
		<path class="st1" d="M862.5,527v437.5c0,24.2,19.6,43.8,43.8,43.8s43.8-19.6,43.8-43.8V527c0-24.2-19.6-43.8-43.8-43.8
			S862.5,502.8,862.5,527z"/>
	</g>
</g>
</svg>
