<svg width="100" height="34" viewBox="0 0 100 34" fill="none" xmlns="http://www.w3.org/2000/svg">
<path d="M10.8431 33.3078C10.7365 33.1758 10.7365 33.1251 10.7365 30.658V28.1401L9.0359 26.4294L8.70594 26.4548C8.52319 26.47 7.44701 26.4801 6.3099 26.4801L4.24891 26.4852L4.18291 26.673C4.10169 26.9218 3.75142 27.2619 3.49761 27.338C3.03058 27.4751 2.59401 27.3685 2.26913 27.0385C2.04577 26.8101 1.95439 26.6324 1.91886 26.3431C1.86302 25.8507 2.12191 25.3887 2.58386 25.1704C2.85799 25.0334 3.31993 25.0283 3.60421 25.1603C3.82249 25.2567 4.15753 25.5918 4.21337 25.7694C4.24383 25.8761 4.25398 25.8761 6.32513 25.8761C7.46731 25.8761 8.40136 25.8608 8.40136 25.8354C8.40136 25.8151 8.178 25.5765 7.90895 25.3075L7.41147 24.8202L7.11197 24.8608C6.77185 24.9115 6.35051 24.8557 6.11193 24.7339C5.8175 24.5816 5.44692 24.1907 5.29971 23.8709C5.21849 23.7034 5.1525 23.5359 5.1525 23.5003C5.1525 23.4496 4.92914 23.4394 4.12707 23.4496L3.10673 23.4648L3.03566 23.678C2.93413 23.9826 2.56356 24.3735 2.21837 24.541C1.83256 24.7288 1.28432 24.7389 0.934048 24.5664C0.593933 24.3988 0.31981 24.145 0.152291 23.8404C0.0152291 23.5917 0 23.5206 0 23.1094C0 22.749 0.0253818 22.6018 0.106603 22.4241C0.248741 22.1246 0.52794 21.8454 0.852827 21.6779C1.08126 21.5612 1.17771 21.5408 1.57367 21.5358C1.9747 21.5358 2.061 21.551 2.28943 21.6728C2.60924 21.8404 2.87829 22.1449 3.0255 22.5054L3.14226 22.7795H5.17788L5.27433 22.5358C5.42154 22.1855 5.87334 21.7541 6.21853 21.6322C6.59926 21.5053 7.08151 21.5155 7.4267 21.6627C7.78204 21.815 8.20846 22.2769 8.32521 22.6323C8.41151 22.8861 8.41151 23.3785 8.32521 23.744C8.29983 23.8557 8.43689 24.013 9.51816 25.0892L10.7365 26.3075V23.3125L8.67041 21.2718L6.59926 19.2311L5.6246 19.226H4.64486L4.52303 19.4697C4.36058 19.7844 4.02555 20.1042 3.70574 20.2515C3.34531 20.4139 2.73615 20.4088 2.40111 20.2464C2.0813 20.0941 1.78688 19.7997 1.61428 19.4697C1.49245 19.2311 1.47214 19.1448 1.47214 18.7438C1.47214 18.3478 1.49245 18.2514 1.6092 18.0331C1.96455 17.3529 2.68031 16.9975 3.38593 17.1397C4.00524 17.2716 4.52303 17.764 4.64994 18.3427L4.71085 18.6169L5.50276 18.6067L6.29467 18.5915L6.3099 18.0229C6.32006 17.6625 6.30483 17.4493 6.27437 17.4493C6.24391 17.4493 6.14238 17.3782 6.04593 17.297C5.54337 16.8554 5.6449 16.0127 6.22868 15.7284C6.60941 15.5457 6.96983 15.6066 7.28964 15.9112C7.74143 16.3427 7.63483 17.1193 7.08151 17.3985L6.87845 17.5001V18.0737L6.87338 18.6423L8.79224 20.5408L10.7111 22.4444L10.7263 20.8606L10.7365 19.2768H12.2594L12.2695 20.8911L12.2848 22.5003L16.1682 18.6372V17.5001L16.0311 17.4442C15.5742 17.2716 15.3357 16.6676 15.5336 16.1955C15.6402 15.9416 15.7468 15.83 15.9905 15.7183C16.2392 15.6015 16.4677 15.5964 16.7164 15.698C17.0971 15.8604 17.3002 16.1548 17.3002 16.561C17.3002 16.9112 17.1784 17.165 16.9347 17.3326L16.7317 17.4747L16.7266 18.0483V18.6169H18.3358L18.3967 18.3427C18.5185 17.7945 18.9652 17.3275 19.5236 17.1752C19.8942 17.0686 20.1023 17.0737 20.4932 17.1955C20.9196 17.3275 21.1938 17.5661 21.407 17.9925C21.5542 18.292 21.5745 18.3834 21.5745 18.7438C21.5745 19.0839 21.5542 19.1956 21.4324 19.4342C21.1481 20.023 20.6151 20.3631 19.9754 20.3631C19.6404 20.3682 19.549 20.3479 19.2495 20.2007C18.8942 20.023 18.5947 19.7134 18.4576 19.3834L18.3916 19.226H16.4474L12.2594 23.4039V26.3075L14.7316 23.8354L14.6605 23.5765C14.3864 22.5713 15.1783 21.5408 16.2139 21.551C16.8839 21.5561 17.4576 21.9216 17.7368 22.5155L17.8586 22.7795H18.5033C18.8586 22.7795 19.3206 22.7947 19.5338 22.8099L19.9196 22.8455L19.9551 22.6983C20.0668 22.2414 20.3917 21.8454 20.813 21.6525C21.2039 21.4749 21.8283 21.485 22.2192 21.6779C23.1482 22.1348 23.3817 23.3734 22.6862 24.145C22.3562 24.5156 21.9806 24.6831 21.4983 24.6831C21.1836 24.6831 21.0669 24.6577 20.8283 24.541C20.4425 24.3481 20.1277 23.9978 19.9754 23.5815L19.9247 23.4394H18.884C17.9094 23.4394 17.8434 23.4445 17.8434 23.5308C17.8434 23.7085 17.5337 24.2415 17.3256 24.4293C16.9702 24.7542 16.6504 24.8659 16.1174 24.8659C15.8636 24.8659 15.6352 24.8506 15.6098 24.8354C15.5895 24.8202 15.3458 25.0435 15.0768 25.3278L14.5844 25.8507L16.7367 25.8659C18.1835 25.871 18.8891 25.8608 18.8993 25.8253C18.9602 25.6425 19.2698 25.2821 19.4424 25.1958C19.6861 25.0689 20.1988 25.0283 20.4577 25.1146C20.9907 25.2923 21.3156 25.8913 21.1887 26.4751C21.0313 27.2314 20.2242 27.6122 19.5236 27.267C19.2546 27.1299 18.9855 26.8355 18.9297 26.602L18.8993 26.4852H17.4931C16.7215 26.4852 15.6149 26.47 15.0311 26.4497L13.9752 26.4192L13.1173 27.3025L12.2645 28.1858L12.2594 30.6783C12.2594 33.7089 12.3305 33.4398 11.4979 33.4398C10.9649 33.4398 10.9446 33.4347 10.8431 33.3078ZM3.46715 26.5614C3.73619 26.2466 3.50776 25.7238 3.10165 25.7238C2.82753 25.7238 2.58894 25.9522 2.58894 26.2212C2.58894 26.6832 3.16257 26.9066 3.46715 26.5614ZM20.3308 26.6629C20.4323 26.6121 20.4983 26.5208 20.5389 26.3888C20.6912 25.8761 20.0922 25.5004 19.7165 25.871C19.478 26.1146 19.5236 26.5004 19.813 26.6578C19.9907 26.7593 20.148 26.7593 20.3308 26.6629ZM16.62 23.7491C16.8586 23.6171 16.955 23.1704 16.7976 22.8759C16.6961 22.678 16.3306 22.5054 16.1123 22.551C15.7418 22.6323 15.5082 23.013 15.6047 23.3785C15.7215 23.81 16.1885 23.9775 16.62 23.7491ZM7.20842 23.678C7.49777 23.3886 7.50792 23.013 7.2338 22.7338C6.93937 22.4394 6.46219 22.4851 6.22868 22.8302C6.13223 22.9775 6.11193 23.0536 6.13223 23.2567C6.15254 23.4648 6.18807 23.5359 6.34036 23.678C6.49773 23.8201 6.55864 23.8455 6.782 23.8455C7.00536 23.8455 7.0612 23.8252 7.20842 23.678ZM1.82749 23.6729C2.24375 23.5003 2.2742 22.7896 1.87825 22.5764C1.70058 22.48 1.38077 22.4901 1.21832 22.5967C0.730994 22.9165 0.954354 23.7237 1.53813 23.7389C1.59905 23.744 1.73104 23.7135 1.82749 23.6729ZM21.9197 23.5511C22.0364 23.4343 22.077 23.3379 22.0923 23.1501C22.1126 22.9368 22.0974 22.881 21.9857 22.7439C21.5034 22.1754 20.6252 22.6729 20.9095 23.3531C21.077 23.7592 21.6049 23.8658 21.9197 23.5511ZM3.43161 19.2616C3.76665 19.0382 3.80219 18.5407 3.50776 18.2666C3.33516 18.1042 2.95951 18.0635 2.73615 18.1854C2.42142 18.3529 2.31989 18.7742 2.52802 19.0788C2.74123 19.3936 3.11688 19.4748 3.43161 19.2616ZM20.2749 19.3073C20.4881 19.1956 20.5846 19.0128 20.5846 18.7133C20.5846 18.4849 20.5643 18.4341 20.412 18.2818C20.2648 18.1346 20.2039 18.1092 20.0059 18.1092C19.5592 18.1092 19.3155 18.3478 19.3155 18.7742C19.3155 18.9519 19.346 19.0179 19.5135 19.1803C19.6759 19.3479 19.7419 19.3783 19.9196 19.3783C20.0364 19.3783 20.1988 19.3428 20.2749 19.3073Z" fill="#E6E6E6"/>
<path d="M10.8431 33.3078C10.7365 33.1758 10.7365 33.1251 10.7365 30.658V28.1401L9.0359 26.4294L8.70594 26.4548C8.52319 26.47 7.44701 26.4801 6.3099 26.4801L4.24891 26.4852L4.18291 26.673C4.10169 26.9218 3.75142 27.2619 3.49761 27.338C3.03058 27.4751 2.59401 27.3685 2.26913 27.0385C2.04577 26.8101 1.95439 26.6324 1.91886 26.3431C1.86302 25.8507 2.12191 25.3887 2.58386 25.1704C2.85799 25.0334 3.31993 25.0283 3.60421 25.1603C3.82249 25.2567 4.15753 25.5918 4.21337 25.7694C4.24383 25.8761 4.25398 25.8761 6.32513 25.8761C7.46731 25.8761 8.40136 25.8608 8.40136 25.8354C8.40136 25.8151 8.178 25.5765 7.90895 25.3075L7.41147 24.8202L7.11197 24.8608C6.77185 24.9115 6.35051 24.8557 6.11193 24.7339C5.8175 24.5816 5.44692 24.1907 5.29971 23.8709C5.21849 23.7034 5.1525 23.5359 5.1525 23.5003C5.1525 23.4496 4.92914 23.4394 4.12707 23.4496L3.10673 23.4648L3.03566 23.678C2.93413 23.9826 2.56356 24.3735 2.21837 24.541C1.83256 24.7288 1.28432 24.7389 0.934048 24.5664C0.593933 24.3988 0.31981 24.145 0.152291 23.8404C0.0152291 23.5917 0 23.5206 0 23.1094C0 22.749 0.0253818 22.6018 0.106603 22.4241C0.248741 22.1246 0.52794 21.8454 0.852827 21.6779C1.08126 21.5612 1.17771 21.5408 1.57367 21.5358C1.9747 21.5358 2.061 21.551 2.28943 21.6728C2.60924 21.8404 2.87829 22.1449 3.0255 22.5054L3.14226 22.7795H5.17788L5.27433 22.5358C5.42154 22.1855 5.87334 21.7541 6.21853 21.6322C6.59926 21.5053 7.08151 21.5155 7.4267 21.6627C7.78204 21.815 8.20846 22.2769 8.32521 22.6323C8.41151 22.8861 8.41151 23.3785 8.32521 23.744C8.29983 23.8557 8.43689 24.013 9.51816 25.0892L10.7365 26.3075V23.3125L8.67041 21.2718L6.59926 19.2311L5.6246 19.226H4.64486L4.52303 19.4697C4.36058 19.7844 4.02555 20.1042 3.70574 20.2515C3.34531 20.4139 2.73615 20.4088 2.40111 20.2464C2.0813 20.0941 1.78688 19.7997 1.61428 19.4697C1.49245 19.2311 1.47214 19.1448 1.47214 18.7438C1.47214 18.3478 1.49245 18.2514 1.6092 18.0331C1.96455 17.3529 2.68031 16.9975 3.38593 17.1397C4.00524 17.2716 4.52303 17.764 4.64994 18.3427L4.71085 18.6169L5.50276 18.6067L6.29467 18.5915L6.3099 18.0229C6.32006 17.6625 6.30483 17.4493 6.27437 17.4493C6.24391 17.4493 6.14238 17.3782 6.04593 17.297C5.54337 16.8554 5.6449 16.0127 6.22868 15.7284C6.60941 15.5457 6.96983 15.6066 7.28964 15.9112C7.74143 16.3427 7.63483 17.1193 7.08151 17.3985L6.87845 17.5001V18.0737L6.87338 18.6423L8.79224 20.5408L10.7111 22.4444L10.7263 20.8606L10.7365 19.2768H12.2594L12.2695 20.8911L12.2848 22.5003L16.1682 18.6372V17.5001L16.0311 17.4442C15.5742 17.2716 15.3357 16.6676 15.5336 16.1955C15.6402 15.9416 15.7468 15.83 15.9905 15.7183C16.2392 15.6015 16.4677 15.5964 16.7164 15.698C17.0971 15.8604 17.3002 16.1548 17.3002 16.561C17.3002 16.9112 17.1784 17.165 16.9347 17.3326L16.7317 17.4747L16.7266 18.0483V18.6169H18.3358L18.3967 18.3427C18.5185 17.7945 18.9652 17.3275 19.5236 17.1752C19.8942 17.0686 20.1023 17.0737 20.4932 17.1955C20.9196 17.3275 21.1938 17.5661 21.407 17.9925C21.5542 18.292 21.5745 18.3834 21.5745 18.7438C21.5745 19.0839 21.5542 19.1956 21.4324 19.4342C21.1481 20.023 20.6151 20.3631 19.9754 20.3631C19.6404 20.3682 19.549 20.3479 19.2495 20.2007C18.8942 20.023 18.5947 19.7134 18.4576 19.3834L18.3916 19.226H16.4474L12.2594 23.4039V26.3075L14.7316 23.8354L14.6605 23.5765C14.3864 22.5713 15.1783 21.5408 16.2139 21.551C16.8839 21.5561 17.4576 21.9216 17.7368 22.5155L17.8586 22.7795H18.5033C18.8586 22.7795 19.3206 22.7947 19.5338 22.8099L19.9196 22.8455L19.9551 22.6983C20.0668 22.2414 20.3917 21.8454 20.813 21.6525C21.2039 21.4749 21.8283 21.485 22.2192 21.6779C23.1482 22.1348 23.3817 23.3734 22.6862 24.145C22.3562 24.5156 21.9806 24.6831 21.4983 24.6831C21.1836 24.6831 21.0669 24.6577 20.8283 24.541C20.4425 24.3481 20.1277 23.9978 19.9754 23.5815L19.9247 23.4394H18.884C17.9094 23.4394 17.8434 23.4445 17.8434 23.5308C17.8434 23.7085 17.5337 24.2415 17.3256 24.4293C16.9702 24.7542 16.6504 24.8659 16.1174 24.8659C15.8636 24.8659 15.6352 24.8506 15.6098 24.8354C15.5895 24.8202 15.3458 25.0435 15.0768 25.3278L14.5844 25.8507L16.7367 25.8659C18.1835 25.871 18.8891 25.8608 18.8993 25.8253C18.9602 25.6425 19.2698 25.2821 19.4424 25.1958C19.6861 25.0689 20.1988 25.0283 20.4577 25.1146C20.9907 25.2923 21.3156 25.8913 21.1887 26.4751C21.0313 27.2314 20.2242 27.6122 19.5236 27.267C19.2546 27.1299 18.9855 26.8355 18.9297 26.602L18.8993 26.4852H17.4931C16.7215 26.4852 15.6149 26.47 15.0311 26.4497L13.9752 26.4192L13.1173 27.3025L12.2645 28.1858L12.2594 30.6783C12.2594 33.7089 12.3305 33.4398 11.4979 33.4398C10.9649 33.4398 10.9446 33.4347 10.8431 33.3078ZM3.46715 26.5614C3.73619 26.2466 3.50776 25.7238 3.10165 25.7238C2.82753 25.7238 2.58894 25.9522 2.58894 26.2212C2.58894 26.6832 3.16257 26.9066 3.46715 26.5614ZM20.3308 26.6629C20.4323 26.6121 20.4983 26.5208 20.5389 26.3888C20.6912 25.8761 20.0922 25.5004 19.7165 25.871C19.478 26.1146 19.5236 26.5004 19.813 26.6578C19.9907 26.7593 20.148 26.7593 20.3308 26.6629ZM16.62 23.7491C16.8586 23.6171 16.955 23.1704 16.7976 22.8759C16.6961 22.678 16.3306 22.5054 16.1123 22.551C15.7418 22.6323 15.5082 23.013 15.6047 23.3785C15.7215 23.81 16.1885 23.9775 16.62 23.7491ZM7.20842 23.678C7.49777 23.3886 7.50792 23.013 7.2338 22.7338C6.93937 22.4394 6.46219 22.4851 6.22868 22.8302C6.13223 22.9775 6.11193 23.0536 6.13223 23.2567C6.15254 23.4648 6.18807 23.5359 6.34036 23.678C6.49773 23.8201 6.55864 23.8455 6.782 23.8455C7.00536 23.8455 7.0612 23.8252 7.20842 23.678ZM1.82749 23.6729C2.24375 23.5003 2.2742 22.7896 1.87825 22.5764C1.70058 22.48 1.38077 22.4901 1.21832 22.5967C0.730994 22.9165 0.954354 23.7237 1.53813 23.7389C1.59905 23.744 1.73104 23.7135 1.82749 23.6729ZM21.9197 23.5511C22.0364 23.4343 22.077 23.3379 22.0923 23.1501C22.1126 22.9368 22.0974 22.881 21.9857 22.7439C21.5034 22.1754 20.6252 22.6729 20.9095 23.3531C21.077 23.7592 21.6049 23.8658 21.9197 23.5511ZM3.43161 19.2616C3.76665 19.0382 3.80219 18.5407 3.50776 18.2666C3.33516 18.1042 2.95951 18.0635 2.73615 18.1854C2.42142 18.3529 2.31989 18.7742 2.52802 19.0788C2.74123 19.3936 3.11688 19.4748 3.43161 19.2616ZM20.2749 19.3073C20.4881 19.1956 20.5846 19.0128 20.5846 18.7133C20.5846 18.4849 20.5643 18.4341 20.412 18.2818C20.2648 18.1346 20.2039 18.1092 20.0059 18.1092C19.5592 18.1092 19.3155 18.3478 19.3155 18.7742C19.3155 18.9519 19.346 19.0179 19.5135 19.1803C19.6759 19.3479 19.7419 19.3783 19.9196 19.3783C20.0364 19.3783 20.1988 19.3428 20.2749 19.3073Z" fill="url(#paint0_linear_1243_12248)"/>
<path d="M78.5616 33.3687C78.5159 33.318 78.5058 32.6631 78.5159 30.8661C78.5311 28.6274 78.5413 28.4244 78.6276 28.2366C78.79 27.8863 79.0032 27.6629 79.3383 27.5005C79.6073 27.3634 79.7292 27.338 80.186 27.3127C81.3739 27.2467 81.978 27.5005 82.3079 28.2112C82.4349 28.4802 82.4399 28.5259 82.4399 29.4549C82.4399 30.2519 82.4247 30.4651 82.3486 30.6783C82.1455 31.2671 81.648 31.6073 80.9272 31.6479C80.4195 31.6834 80.0337 31.6022 79.8205 31.4245L79.6733 31.2976V32.3078C79.6733 33.0236 79.6581 33.3332 79.6124 33.3789C79.521 33.4703 78.6377 33.4601 78.5616 33.3687ZM81.1708 30.3635C81.2927 30.2316 81.2977 30.2011 81.2977 29.5259C81.2977 28.7746 81.2571 28.6122 81.0592 28.5208C80.8967 28.4447 80.054 28.4498 79.9119 28.5259C79.6936 28.6376 79.6784 28.7137 79.6733 29.4955C79.6733 30.2265 79.6784 30.2519 79.8002 30.3686C79.917 30.4905 79.9576 30.4955 80.4855 30.4955C81.0287 30.4955 81.0541 30.4905 81.1708 30.3635Z" fill="#E6E6E6"/>
<path d="M78.5616 33.3687C78.5159 33.318 78.5058 32.6631 78.5159 30.8661C78.5311 28.6274 78.5413 28.4244 78.6276 28.2366C78.79 27.8863 79.0032 27.6629 79.3383 27.5005C79.6073 27.3634 79.7292 27.338 80.186 27.3127C81.3739 27.2467 81.978 27.5005 82.3079 28.2112C82.4349 28.4802 82.4399 28.5259 82.4399 29.4549C82.4399 30.2519 82.4247 30.4651 82.3486 30.6783C82.1455 31.2671 81.648 31.6073 80.9272 31.6479C80.4195 31.6834 80.0337 31.6022 79.8205 31.4245L79.6733 31.2976V32.3078C79.6733 33.0236 79.6581 33.3332 79.6124 33.3789C79.521 33.4703 78.6377 33.4601 78.5616 33.3687ZM81.1708 30.3635C81.2927 30.2316 81.2977 30.2011 81.2977 29.5259C81.2977 28.7746 81.2571 28.6122 81.0592 28.5208C80.8967 28.4447 80.054 28.4498 79.9119 28.5259C79.6936 28.6376 79.6784 28.7137 79.6733 29.4955C79.6733 30.2265 79.6784 30.2519 79.8002 30.3686C79.917 30.4905 79.9576 30.4955 80.4855 30.4955C81.0287 30.4955 81.0541 30.4905 81.1708 30.3635Z" fill="url(#paint1_linear_1243_12248)"/>
<path d="M73.9878 31.5311C73.9218 31.3585 73.9218 30.7189 73.9878 30.592C74.0386 30.5006 74.1096 30.4955 75.328 30.4955C76.724 30.4955 76.7747 30.4854 76.7087 30.2214L76.6783 30.0996L75.729 30.0793C74.663 30.059 74.4802 30.0133 74.1452 29.6782C73.6325 29.1655 73.6325 28.2213 74.1452 27.7086C74.5005 27.3482 74.6122 27.3279 76.1503 27.3076C77.7951 27.2822 77.6935 27.2467 77.6935 27.8812C77.6935 28.1147 77.6783 28.3381 77.6631 28.3838C77.6377 28.4548 77.4702 28.465 76.3483 28.465C75.2467 28.465 75.0488 28.4751 74.9828 28.5462C74.8914 28.6376 74.8812 28.7087 74.9523 28.8203C74.9878 28.8812 75.1807 28.9016 75.9777 28.9219C77.0539 28.9472 77.1656 28.9777 77.4905 29.2924C78.2012 29.9828 77.9067 31.3077 76.9778 31.5819C76.7646 31.6479 76.4448 31.6631 75.3736 31.6631H74.0386L73.9878 31.5311Z" fill="#E6E6E6"/>
<path d="M73.9878 31.5311C73.9218 31.3585 73.9218 30.7189 73.9878 30.592C74.0386 30.5006 74.1096 30.4955 75.328 30.4955C76.724 30.4955 76.7747 30.4854 76.7087 30.2214L76.6783 30.0996L75.729 30.0793C74.663 30.059 74.4802 30.0133 74.1452 29.6782C73.6325 29.1655 73.6325 28.2213 74.1452 27.7086C74.5005 27.3482 74.6122 27.3279 76.1503 27.3076C77.7951 27.2822 77.6935 27.2467 77.6935 27.8812C77.6935 28.1147 77.6783 28.3381 77.6631 28.3838C77.6377 28.4548 77.4702 28.465 76.3483 28.465C75.2467 28.465 75.0488 28.4751 74.9828 28.5462C74.8914 28.6376 74.8812 28.7087 74.9523 28.8203C74.9878 28.8812 75.1807 28.9016 75.9777 28.9219C77.0539 28.9472 77.1656 28.9777 77.4905 29.2924C78.2012 29.9828 77.9067 31.3077 76.9778 31.5819C76.7646 31.6479 76.4448 31.6631 75.3736 31.6631H74.0386L73.9878 31.5311Z" fill="url(#paint2_linear_1243_12248)"/>
<path d="M84.2116 31.6072C83.841 31.521 83.4704 31.257 83.2928 30.9575C83.0694 30.5869 83.0491 30.3686 83.1405 29.3737C83.2065 28.668 83.242 28.465 83.3537 28.2213C83.5161 27.8609 83.775 27.5969 84.0948 27.4548C84.5974 27.2314 85.7142 27.272 86.1558 27.5259C86.435 27.6934 86.6584 27.9675 86.7853 28.3127C86.902 28.6274 87.0594 30.0894 87.0086 30.4194C86.9325 30.9118 86.6431 31.2874 86.171 31.5057C85.9172 31.6225 85.8259 31.6377 85.1558 31.6479C84.7497 31.6529 84.3283 31.6377 84.2116 31.6072ZM85.7497 30.3635C85.8665 30.2468 85.8766 30.2062 85.8462 29.9473C85.8309 29.7899 85.8005 29.4549 85.7852 29.2061C85.7345 28.5817 85.6634 28.5005 85.1355 28.4751C84.6837 28.4498 84.4755 28.5158 84.3994 28.7087C84.3537 28.8305 84.242 29.8204 84.242 30.13C84.242 30.196 84.2979 30.3026 84.3689 30.3686C84.4857 30.4904 84.5263 30.4955 85.0542 30.4955C85.5923 30.4955 85.6228 30.4904 85.7497 30.3635Z" fill="#E6E6E6"/>
<path d="M84.2116 31.6072C83.841 31.521 83.4704 31.257 83.2928 30.9575C83.0694 30.5869 83.0491 30.3686 83.1405 29.3737C83.2065 28.668 83.242 28.465 83.3537 28.2213C83.5161 27.8609 83.775 27.5969 84.0948 27.4548C84.5974 27.2314 85.7142 27.272 86.1558 27.5259C86.435 27.6934 86.6584 27.9675 86.7853 28.3127C86.902 28.6274 87.0594 30.0894 87.0086 30.4194C86.9325 30.9118 86.6431 31.2874 86.171 31.5057C85.9172 31.6225 85.8259 31.6377 85.1558 31.6479C84.7497 31.6529 84.3283 31.6377 84.2116 31.6072ZM85.7497 30.3635C85.8665 30.2468 85.8766 30.2062 85.8462 29.9473C85.8309 29.7899 85.8005 29.4549 85.7852 29.2061C85.7345 28.5817 85.6634 28.5005 85.1355 28.4751C84.6837 28.4498 84.4755 28.5158 84.3994 28.7087C84.3537 28.8305 84.242 29.8204 84.242 30.13C84.242 30.196 84.2979 30.3026 84.3689 30.3686C84.4857 30.4904 84.5263 30.4955 85.0542 30.4955C85.5923 30.4955 85.6228 30.4904 85.7497 30.3635Z" fill="url(#paint3_linear_1243_12248)"/>
<path d="M87.7295 31.6022C87.6483 31.5413 87.6432 31.3687 87.6533 29.4549L87.6686 27.3736L87.9376 27.3279C88.1001 27.3025 88.3234 27.3025 88.496 27.3279C88.76 27.3685 88.7854 27.3837 88.8006 27.5157C88.8158 27.6375 88.9123 27.7188 88.9123 27.6071C88.9123 27.4853 89.3691 27.3431 89.8616 27.3127C90.5926 27.272 90.5926 27.272 90.5773 27.9218L90.5621 28.4396L89.9022 28.4498C89.1306 28.465 89.0493 28.4802 88.9123 28.6274C88.8158 28.734 88.8108 28.8 88.8108 30.1503C88.8108 31.4905 88.8057 31.5616 88.7143 31.6123C88.5722 31.6834 87.8361 31.6783 87.7295 31.6022Z" fill="#E6E6E6"/>
<path d="M87.7295 31.6022C87.6483 31.5413 87.6432 31.3687 87.6533 29.4549L87.6686 27.3736L87.9376 27.3279C88.1001 27.3025 88.3234 27.3025 88.496 27.3279C88.76 27.3685 88.7854 27.3837 88.8006 27.5157C88.8158 27.6375 88.9123 27.7188 88.9123 27.6071C88.9123 27.4853 89.3691 27.3431 89.8616 27.3127C90.5926 27.272 90.5926 27.272 90.5773 27.9218L90.5621 28.4396L89.9022 28.4498C89.1306 28.465 89.0493 28.4802 88.9123 28.6274C88.8158 28.734 88.8108 28.8 88.8108 30.1503C88.8108 31.4905 88.8057 31.5616 88.7143 31.6123C88.5722 31.6834 87.8361 31.6783 87.7295 31.6022Z" fill="url(#paint4_linear_1243_12248)"/>
<path d="M92.4149 31.592C91.9479 31.4702 91.6687 31.2164 91.4403 30.7189C91.3235 30.4752 91.3235 30.4397 91.3083 28.1452L91.2931 25.8253L91.4251 25.7745C91.6027 25.7085 92.2423 25.7085 92.3693 25.7745C92.4556 25.8253 92.4657 25.8913 92.4657 26.5004C92.4657 26.871 92.486 27.1959 92.5063 27.2264C92.5266 27.267 92.7449 27.2924 93.0596 27.3025C93.3439 27.3127 93.5927 27.3431 93.613 27.3634C93.6688 27.4193 93.7043 28.064 93.6637 28.2822L93.6333 28.4548L93.0952 28.4751C92.6992 28.4904 92.552 28.5107 92.5165 28.5665C92.486 28.6071 92.4657 28.9828 92.4657 29.394C92.4657 30.4549 92.4911 30.4905 93.2678 30.4955C93.7805 30.4955 93.7906 30.4955 93.8363 30.6275C93.8668 30.6986 93.8871 30.9016 93.8871 31.0793C93.8871 31.257 93.8668 31.46 93.8363 31.5311C93.7906 31.6631 93.7856 31.6631 93.217 31.658C92.9023 31.658 92.5419 31.6276 92.4149 31.592Z" fill="#E6E6E6"/>
<path d="M92.4149 31.592C91.9479 31.4702 91.6687 31.2164 91.4403 30.7189C91.3235 30.4752 91.3235 30.4397 91.3083 28.1452L91.2931 25.8253L91.4251 25.7745C91.6027 25.7085 92.2423 25.7085 92.3693 25.7745C92.4556 25.8253 92.4657 25.8913 92.4657 26.5004C92.4657 26.871 92.486 27.1959 92.5063 27.2264C92.5266 27.267 92.7449 27.2924 93.0596 27.3025C93.3439 27.3127 93.5927 27.3431 93.613 27.3634C93.6688 27.4193 93.7043 28.064 93.6637 28.2822L93.6333 28.4548L93.0952 28.4751C92.6992 28.4904 92.552 28.5107 92.5165 28.5665C92.486 28.6071 92.4657 28.9828 92.4657 29.394C92.4657 30.4549 92.4911 30.4905 93.2678 30.4955C93.7805 30.4955 93.7906 30.4955 93.8363 30.6275C93.8668 30.6986 93.8871 30.9016 93.8871 31.0793C93.8871 31.257 93.8668 31.46 93.8363 31.5311C93.7906 31.6631 93.7856 31.6631 93.217 31.658C92.9023 31.658 92.5419 31.6276 92.4149 31.592Z" fill="url(#paint5_linear_1243_12248)"/>
<path d="M94.6587 31.6022C94.5775 31.521 94.5775 30.6377 94.6587 30.5564C94.7044 30.5108 95.075 30.4955 96.0039 30.4955H97.2933L97.3339 30.3838C97.3593 30.3179 97.3593 30.2316 97.3339 30.1808C97.2984 30.1097 97.1613 30.0945 96.3643 30.0793C95.5217 30.064 95.41 30.0488 95.1663 29.9422C94.5419 29.663 94.2526 28.9574 94.4709 28.2315C94.5673 27.8964 94.8364 27.5919 95.1663 27.4446C95.4303 27.3279 95.4709 27.3228 96.8415 27.3228C97.6131 27.3228 98.2629 27.3431 98.2832 27.3634C98.334 27.4142 98.3441 28.2569 98.2934 28.3787C98.2578 28.4548 98.1512 28.465 97.0091 28.465C96.2425 28.465 95.7197 28.4853 95.6587 28.5158C95.5521 28.5767 95.5268 28.7797 95.6283 28.8609C95.6638 28.8914 96.0852 28.9219 96.6537 28.932C97.5319 28.9472 97.6385 28.9574 97.8263 29.0589C98.3086 29.3178 98.532 29.7595 98.4964 30.3889C98.4761 30.729 98.4457 30.8356 98.3238 31.0387C98.1563 31.3128 97.7604 31.5819 97.4558 31.6326C97.0852 31.6935 94.7247 31.6682 94.6587 31.6022Z" fill="#E6E6E6"/>
<path d="M94.6587 31.6022C94.5775 31.521 94.5775 30.6377 94.6587 30.5564C94.7044 30.5108 95.075 30.4955 96.0039 30.4955H97.2933L97.3339 30.3838C97.3593 30.3179 97.3593 30.2316 97.3339 30.1808C97.2984 30.1097 97.1613 30.0945 96.3643 30.0793C95.5217 30.064 95.41 30.0488 95.1663 29.9422C94.5419 29.663 94.2526 28.9574 94.4709 28.2315C94.5673 27.8964 94.8364 27.5919 95.1663 27.4446C95.4303 27.3279 95.4709 27.3228 96.8415 27.3228C97.6131 27.3228 98.2629 27.3431 98.2832 27.3634C98.334 27.4142 98.3441 28.2569 98.2934 28.3787C98.2578 28.4548 98.1512 28.465 97.0091 28.465C96.2425 28.465 95.7197 28.4853 95.6587 28.5158C95.5521 28.5767 95.5268 28.7797 95.6283 28.8609C95.6638 28.8914 96.0852 28.9219 96.6537 28.932C97.5319 28.9472 97.6385 28.9574 97.8263 29.0589C98.3086 29.3178 98.532 29.7595 98.4964 30.3889C98.4761 30.729 98.4457 30.8356 98.3238 31.0387C98.1563 31.3128 97.7604 31.5819 97.4558 31.6326C97.0852 31.6935 94.7247 31.6682 94.6587 31.6022Z" fill="url(#paint6_linear_1243_12248)"/>
<path d="M33.5039 24.7745C33.179 24.7288 32.9861 24.6526 32.8643 24.5257L32.7425 24.3938V13.6471C32.7425 4.1645 32.7526 2.88526 32.8186 2.80404C33.0369 2.54007 32.7881 2.55022 39.1894 2.53499C44.3927 2.52484 45.1947 2.52992 45.6821 2.60099C48.2406 2.97664 50.0274 4.71275 50.4538 7.24077C50.5706 7.921 50.5706 10.4795 50.4538 11.1597C50.0934 13.3019 48.7482 14.8908 46.7278 15.5609C45.8953 15.8401 45.9257 15.8401 41.7022 15.8706C37.4939 15.9061 37.5345 15.9061 37.301 16.165L37.1843 16.2868V20.2616C37.1843 23.0384 37.169 24.2872 37.1284 24.3988C37.0117 24.7339 36.5903 24.81 34.8999 24.7999C34.2146 24.7999 33.5902 24.7846 33.5039 24.7745ZM45.2963 11.312C45.6313 11.1597 45.9207 10.8348 46.0323 10.4896C46.1542 10.1089 46.1542 8.29157 46.0323 7.91085C45.9207 7.56566 45.6313 7.24077 45.2963 7.08848L45.0272 6.96665H41.4484C37.6107 6.96665 37.5548 6.97172 37.3061 7.22046L37.1843 7.3423V9.17486C37.1843 10.3373 37.2046 11.043 37.235 11.1089C37.3112 11.2511 37.5599 11.3577 37.9102 11.4085C38.0828 11.4288 39.758 11.444 41.6261 11.4389L45.0272 11.4338L45.2963 11.312Z" fill="#E6E6E6"/>
<path d="M33.5039 24.7745C33.179 24.7288 32.9861 24.6526 32.8643 24.5257L32.7425 24.3938V13.6471C32.7425 4.1645 32.7526 2.88526 32.8186 2.80404C33.0369 2.54007 32.7881 2.55022 39.1894 2.53499C44.3927 2.52484 45.1947 2.52992 45.6821 2.60099C48.2406 2.97664 50.0274 4.71275 50.4538 7.24077C50.5706 7.921 50.5706 10.4795 50.4538 11.1597C50.0934 13.3019 48.7482 14.8908 46.7278 15.5609C45.8953 15.8401 45.9257 15.8401 41.7022 15.8706C37.4939 15.9061 37.5345 15.9061 37.301 16.165L37.1843 16.2868V20.2616C37.1843 23.0384 37.169 24.2872 37.1284 24.3988C37.0117 24.7339 36.5903 24.81 34.8999 24.7999C34.2146 24.7999 33.5902 24.7846 33.5039 24.7745ZM45.2963 11.312C45.6313 11.1597 45.9207 10.8348 46.0323 10.4896C46.1542 10.1089 46.1542 8.29157 46.0323 7.91085C45.9207 7.56566 45.6313 7.24077 45.2963 7.08848L45.0272 6.96665H41.4484C37.6107 6.96665 37.5548 6.97172 37.3061 7.22046L37.1843 7.3423V9.17486C37.1843 10.3373 37.2046 11.043 37.235 11.1089C37.3112 11.2511 37.5599 11.3577 37.9102 11.4085C38.0828 11.4288 39.758 11.444 41.6261 11.4389L45.0272 11.4338L45.2963 11.312Z" fill="url(#paint7_linear_1243_12248)"/>
<path d="M53.2509 24.7796C52.9565 24.7389 52.6925 24.6476 52.5808 24.541L52.4641 24.4394V8.83474L52.5808 8.73322C52.8194 8.50986 53.0123 8.48955 54.6215 8.48955C56.2917 8.48955 56.4846 8.51493 56.7384 8.76875L56.8805 8.91089V24.3633L56.7384 24.5054C56.4947 24.7491 56.312 24.7745 54.7992 24.7846C54.0327 24.7948 53.3372 24.7897 53.2509 24.7796Z" fill="#E6E6E6"/>
<path d="M53.2509 24.7796C52.9565 24.7389 52.6925 24.6476 52.5808 24.541L52.4641 24.4394V8.83474L52.5808 8.73322C52.8194 8.50986 53.0123 8.48955 54.6215 8.48955C56.2917 8.48955 56.4846 8.51493 56.7384 8.76875L56.8805 8.91089V24.3633L56.7384 24.5054C56.4947 24.7491 56.312 24.7745 54.7992 24.7846C54.0327 24.7948 53.3372 24.7897 53.2509 24.7796Z" fill="url(#paint8_linear_1243_12248)"/>
<path d="M60.5456 24.7542C60.1954 24.6933 59.9821 24.5816 59.9212 24.4242C59.8908 24.343 59.8806 21.4444 59.8857 16.5508L59.9009 8.80936L60.0177 8.71291C60.2664 8.51493 60.4999 8.48955 62.033 8.48955C63.6727 8.48955 63.9163 8.51493 64.1397 8.69768C64.292 8.82967 64.292 8.82967 64.292 9.39314C64.297 9.94646 64.297 9.95661 64.3833 9.83478C64.429 9.76879 64.6067 9.57081 64.7793 9.39822C65.4494 8.71799 66.3987 8.46417 68.3023 8.46417C69.7592 8.46417 70.6425 8.62153 71.5308 9.04287C72.2162 9.36776 72.6324 9.66219 73.1045 10.1495C73.932 11.0023 74.3888 11.9161 74.6325 13.1852C74.7188 13.6319 74.7239 14.0735 74.7239 18.9976C74.7239 25.0588 74.7645 24.5207 74.2822 24.6933C74.0436 24.7745 73.8406 24.7846 72.4903 24.7846C70.9014 24.7846 70.6729 24.7593 70.4242 24.5613L70.3074 24.4648L70.2821 19.1905C70.2516 13.3933 70.277 13.7842 69.947 13.3933C69.5612 12.9314 69.1805 12.8654 67.0383 12.8907C65.4951 12.906 65.424 12.9111 65.1803 13.0227C64.8504 13.175 64.5813 13.439 64.4341 13.7639L64.3174 14.0228L64.292 19.2311C64.2717 23.4242 64.2514 24.4547 64.2006 24.5207C64.1651 24.5613 64.028 24.6374 63.896 24.6882C63.693 24.7643 63.4391 24.7796 62.236 24.7897C61.4543 24.7948 60.6928 24.7796 60.5456 24.7542Z" fill="#E6E6E6"/>
<path d="M60.5456 24.7542C60.1954 24.6933 59.9821 24.5816 59.9212 24.4242C59.8908 24.343 59.8806 21.4444 59.8857 16.5508L59.9009 8.80936L60.0177 8.71291C60.2664 8.51493 60.4999 8.48955 62.033 8.48955C63.6727 8.48955 63.9163 8.51493 64.1397 8.69768C64.292 8.82967 64.292 8.82967 64.292 9.39314C64.297 9.94646 64.297 9.95661 64.3833 9.83478C64.429 9.76879 64.6067 9.57081 64.7793 9.39822C65.4494 8.71799 66.3987 8.46417 68.3023 8.46417C69.7592 8.46417 70.6425 8.62153 71.5308 9.04287C72.2162 9.36776 72.6324 9.66219 73.1045 10.1495C73.932 11.0023 74.3888 11.9161 74.6325 13.1852C74.7188 13.6319 74.7239 14.0735 74.7239 18.9976C74.7239 25.0588 74.7645 24.5207 74.2822 24.6933C74.0436 24.7745 73.8406 24.7846 72.4903 24.7846C70.9014 24.7846 70.6729 24.7593 70.4242 24.5613L70.3074 24.4648L70.2821 19.1905C70.2516 13.3933 70.277 13.7842 69.947 13.3933C69.5612 12.9314 69.1805 12.8654 67.0383 12.8907C65.4951 12.906 65.424 12.9111 65.1803 13.0227C64.8504 13.175 64.5813 13.439 64.4341 13.7639L64.3174 14.0228L64.292 19.2311C64.2717 23.4242 64.2514 24.4547 64.2006 24.5207C64.1651 24.5613 64.028 24.6374 63.896 24.6882C63.693 24.7643 63.4391 24.7796 62.236 24.7897C61.4543 24.7948 60.6928 24.7796 60.5456 24.7542Z" fill="url(#paint9_linear_1243_12248)"/>
<path d="M82.9983 24.7796C81.3993 24.5917 80.2266 24.0536 79.2926 23.079C78.6885 22.4444 78.3027 21.7845 78.0286 20.9063C77.7494 20.0281 77.7392 19.7844 77.7544 16.3833L77.7748 13.2613L77.9067 12.7791C78.2113 11.6521 78.5971 10.9313 79.2672 10.2257C80.0693 9.37791 81.0744 8.83982 82.3536 8.58092C82.7394 8.4997 83.0948 8.48955 85.1558 8.48955C87.7498 8.48955 88.0188 8.51493 88.9681 8.82459C89.9174 9.12917 90.6382 9.57589 91.2778 10.251C92.1865 11.2206 92.6231 12.4846 92.552 13.9466C92.42 16.4746 90.7499 18.2412 87.9985 18.7438C87.6026 18.8199 87.0797 18.8402 85.105 18.8656C83.0389 18.8961 82.6684 18.9113 82.511 18.9824C82.2419 19.0991 82.1607 19.2463 82.1607 19.6068C82.1607 19.9519 82.2318 20.0941 82.4805 20.2311C82.6328 20.3124 82.9831 20.3174 87.0391 20.3428C92.0495 20.3733 91.5875 20.3225 91.7347 20.8352C91.8007 21.0535 91.8109 21.3784 91.7956 22.7135C91.7804 24.2364 91.7753 24.3379 91.6738 24.5054C91.618 24.6019 91.5164 24.7136 91.4454 24.744C91.354 24.7948 90.3946 24.8049 87.2371 24.7999C84.9883 24.7999 83.0846 24.7846 82.9983 24.7796ZM87.5924 14.3477C87.7346 14.3172 87.9122 14.2411 87.9884 14.1751C88.1153 14.0685 88.1254 14.0278 88.1254 13.6776C88.1254 13.0989 87.9884 12.9973 87.0949 12.9314C86.3639 12.8704 83.8968 12.8704 83.1709 12.9263C82.3282 12.9923 82.1607 13.1192 82.1607 13.6928C82.1607 14.0685 82.2826 14.2309 82.643 14.3274C82.9729 14.4187 87.1965 14.434 87.5924 14.3477Z" fill="#E6E6E6"/>
<path d="M82.9983 24.7796C81.3993 24.5917 80.2266 24.0536 79.2926 23.079C78.6885 22.4444 78.3027 21.7845 78.0286 20.9063C77.7494 20.0281 77.7392 19.7844 77.7544 16.3833L77.7748 13.2613L77.9067 12.7791C78.2113 11.6521 78.5971 10.9313 79.2672 10.2257C80.0693 9.37791 81.0744 8.83982 82.3536 8.58092C82.7394 8.4997 83.0948 8.48955 85.1558 8.48955C87.7498 8.48955 88.0188 8.51493 88.9681 8.82459C89.9174 9.12917 90.6382 9.57589 91.2778 10.251C92.1865 11.2206 92.6231 12.4846 92.552 13.9466C92.42 16.4746 90.7499 18.2412 87.9985 18.7438C87.6026 18.8199 87.0797 18.8402 85.105 18.8656C83.0389 18.8961 82.6684 18.9113 82.511 18.9824C82.2419 19.0991 82.1607 19.2463 82.1607 19.6068C82.1607 19.9519 82.2318 20.0941 82.4805 20.2311C82.6328 20.3124 82.9831 20.3174 87.0391 20.3428C92.0495 20.3733 91.5875 20.3225 91.7347 20.8352C91.8007 21.0535 91.8109 21.3784 91.7956 22.7135C91.7804 24.2364 91.7753 24.3379 91.6738 24.5054C91.618 24.6019 91.5164 24.7136 91.4454 24.744C91.354 24.7948 90.3946 24.8049 87.2371 24.7999C84.9883 24.7999 83.0846 24.7846 82.9983 24.7796ZM87.5924 14.3477C87.7346 14.3172 87.9122 14.2411 87.9884 14.1751C88.1153 14.0685 88.1254 14.0278 88.1254 13.6776C88.1254 13.0989 87.9884 12.9973 87.0949 12.9314C86.3639 12.8704 83.8968 12.8704 83.1709 12.9263C82.3282 12.9923 82.1607 13.1192 82.1607 13.6928C82.1607 14.0685 82.2826 14.2309 82.643 14.3274C82.9729 14.4187 87.1965 14.434 87.5924 14.3477Z" fill="url(#paint10_linear_1243_12248)"/>
<path d="M97.2426 24.7288C96.8364 24.6222 96.5065 24.4242 96.1968 24.0943C95.1663 23.0181 95.4709 21.2718 96.7958 20.622C98.1665 19.952 99.7401 20.7642 99.9736 22.2718C100.217 23.7947 98.7299 25.1298 97.2426 24.7288Z" fill="#E6E6E6"/>
<path d="M97.2426 24.7288C96.8364 24.6222 96.5065 24.4242 96.1968 24.0943C95.1663 23.0181 95.4709 21.2718 96.7958 20.622C98.1665 19.952 99.7401 20.7642 99.9736 22.2718C100.217 23.7947 98.7299 25.1298 97.2426 24.7288Z" fill="url(#paint11_linear_1243_12248)"/>
<path d="M11.036 18.495C10.1781 18.1905 9.7669 17.2716 10.1324 16.4797C10.4065 15.8909 10.8583 15.6015 11.4979 15.6015C11.9345 15.6015 12.2239 15.7081 12.5284 15.9772C13.4168 16.7539 13.0767 18.2057 11.9447 18.5001C11.6147 18.5813 11.2746 18.5813 11.036 18.495Z" fill="#E6E6E6"/>
<path d="M11.036 18.495C10.1781 18.1905 9.7669 17.2716 10.1324 16.4797C10.4065 15.8909 10.8583 15.6015 11.4979 15.6015C11.9345 15.6015 12.2239 15.7081 12.5284 15.9772C13.4168 16.7539 13.0767 18.2057 11.9447 18.5001C11.6147 18.5813 11.2746 18.5813 11.036 18.495Z" fill="url(#paint12_linear_1243_12248)"/>
<path d="M8.51811 14.9111L7.44193 13.8502L7.12212 14.17C6.74139 14.5456 6.43173 14.6776 5.90887 14.6725C5.30478 14.6725 4.71593 14.2817 4.43673 13.708C4.27428 13.3832 4.24383 12.7892 4.36566 12.4288C4.47226 12.0988 4.84791 11.6826 5.20833 11.4846C5.58398 11.2815 6.12208 11.2511 6.53326 11.4085C7.13735 11.6318 7.58406 12.2105 7.62468 12.8248L7.65006 13.1598L9.99026 15.5101L9.79735 15.7437C9.69583 15.8706 9.60445 15.9772 9.59938 15.9772C9.59938 15.9721 9.11205 15.4949 8.51811 14.9111ZM6.27437 13.5659C6.77693 13.3019 6.72616 12.5506 6.19315 12.3425C5.84288 12.2105 5.52814 12.3374 5.35047 12.6826C5.23372 12.9212 5.22864 13.043 5.34032 13.2715C5.49768 13.6065 5.92917 13.7436 6.27437 13.5659Z" fill="#E6E6E6"/>
<path d="M8.51811 14.9111L7.44193 13.8502L7.12212 14.17C6.74139 14.5456 6.43173 14.6776 5.90887 14.6725C5.30478 14.6725 4.71593 14.2817 4.43673 13.708C4.27428 13.3832 4.24383 12.7892 4.36566 12.4288C4.47226 12.0988 4.84791 11.6826 5.20833 11.4846C5.58398 11.2815 6.12208 11.2511 6.53326 11.4085C7.13735 11.6318 7.58406 12.2105 7.62468 12.8248L7.65006 13.1598L9.99026 15.5101L9.79735 15.7437C9.69583 15.8706 9.60445 15.9772 9.59938 15.9772C9.59938 15.9721 9.11205 15.4949 8.51811 14.9111ZM6.27437 13.5659C6.77693 13.3019 6.72616 12.5506 6.19315 12.3425C5.84288 12.2105 5.52814 12.3374 5.35047 12.6826C5.23372 12.9212 5.22864 13.043 5.34032 13.2715C5.49768 13.6065 5.92917 13.7436 6.27437 13.5659Z" fill="url(#paint13_linear_1243_12248)"/>
<path d="M13.2493 15.7233L13.0513 15.5203L14.2239 14.3375L15.3966 13.1598L15.422 12.8552C15.4676 12.2816 15.7925 11.7993 16.3306 11.5049C16.6301 11.3425 16.6809 11.3323 17.1327 11.3323C17.6657 11.3323 17.8637 11.4034 18.2292 11.7232C19.1074 12.4948 18.9246 13.9822 17.8941 14.4999C17.153 14.8654 16.3408 14.6878 15.7925 14.038L15.6149 13.8197L14.559 14.8756C13.9752 15.4543 13.4879 15.9264 13.4726 15.9264C13.4574 15.9264 13.3559 15.835 13.2493 15.7233ZM17.4779 13.5405C17.7774 13.3578 17.8738 12.9415 17.6911 12.642C17.3205 12.0278 16.422 12.2664 16.422 12.9821C16.422 13.4999 17.0261 13.8146 17.4779 13.5405Z" fill="#E6E6E6"/>
<path d="M13.2493 15.7233L13.0513 15.5203L14.2239 14.3375L15.3966 13.1598L15.422 12.8552C15.4676 12.2816 15.7925 11.7993 16.3306 11.5049C16.6301 11.3425 16.6809 11.3323 17.1327 11.3323C17.6657 11.3323 17.8637 11.4034 18.2292 11.7232C19.1074 12.4948 18.9246 13.9822 17.8941 14.4999C17.153 14.8654 16.3408 14.6878 15.7925 14.038L15.6149 13.8197L14.559 14.8756C13.9752 15.4543 13.4879 15.9264 13.4726 15.9264C13.4574 15.9264 13.3559 15.835 13.2493 15.7233ZM17.4779 13.5405C17.7774 13.3578 17.8738 12.9415 17.6911 12.642C17.3205 12.0278 16.422 12.2664 16.422 12.9821C16.422 13.4999 17.0261 13.8146 17.4779 13.5405Z" fill="url(#paint14_linear_1243_12248)"/>
<path d="M10.7365 12.6522L8.57396 10.4896L8.30999 10.6267C7.80235 10.8907 7.30487 10.8399 6.89876 10.4795C6.57895 10.1952 6.45712 9.93631 6.45204 9.5302C6.44697 8.43879 7.73128 7.921 8.5435 8.68753C8.84808 8.97181 8.99022 9.38807 8.909 9.74849C8.87346 9.92616 8.87346 9.92616 9.80243 10.8551L10.7365 11.7892V9.10887L9.81259 8.17989L8.88361 7.25092L8.66533 7.29153C8.01556 7.41844 7.43685 6.96665 7.43685 6.3321C7.43685 5.53004 8.29983 5.1087 8.97499 5.5808C9.25419 5.77878 9.37602 6.20519 9.30495 6.6976C9.28972 6.7839 10.5943 8.21035 10.6908 8.21035C10.7162 8.21035 10.7365 7.53012 10.7365 6.54023V4.87011L10.4725 4.71782C9.65014 4.25588 9.16789 3.30152 9.31003 2.43854C9.39633 1.93598 9.61461 1.51972 9.97503 1.18976C11.1071 0.138956 12.8432 0.438461 13.5132 1.804C13.7011 2.17965 13.7061 2.20503 13.7061 2.75328C13.7061 3.30152 13.7011 3.3269 13.5132 3.70255C13.3 4.13404 12.899 4.5503 12.4929 4.75336L12.2594 4.86504V8.21543L12.63 7.88547C12.8279 7.69764 13.163 7.36768 13.3711 7.13924C13.7315 6.74329 13.7417 6.72806 13.7112 6.53008C13.5945 5.79909 14.2747 5.195 14.9549 5.42851C15.4169 5.5808 15.6301 5.91077 15.5996 6.40825C15.5641 7.00726 15.1478 7.33214 14.4778 7.28138L14.1224 7.256L12.2594 9.14948V10.4592C12.2594 11.1749 12.2746 11.7638 12.3 11.7638C12.3203 11.7638 12.7416 11.3577 13.234 10.8653L14.1275 9.96169L14.1478 9.52005C14.163 9.12917 14.1782 9.0581 14.3153 8.8652C14.4016 8.74337 14.5844 8.57585 14.7214 8.48955C14.9397 8.35249 15.0108 8.33726 15.3509 8.33726C15.8078 8.34234 16.0616 8.44894 16.3357 8.76875C16.9398 9.47436 16.5387 10.5607 15.5945 10.7587C15.2646 10.8298 14.9245 10.7688 14.6808 10.5912C14.5793 10.515 14.5184 10.5049 14.4473 10.5404C14.3965 10.5709 13.8838 11.0734 13.3102 11.6673L12.2594 12.7385L12.2492 13.7842L12.234 14.835L10.7365 14.8654V12.6522ZM8.07647 9.91601C8.26938 9.72311 8.29476 9.56066 8.17292 9.32715C7.85312 8.70784 6.91399 9.13933 7.18304 9.7891C7.26426 9.97692 7.45208 10.0835 7.71098 10.0886C7.86327 10.0886 7.93941 10.0531 8.07647 9.91601ZM15.6758 9.98708C16.0819 9.66726 15.8636 9.02257 15.3458 9.02257C15.2037 9.02257 15.1072 9.06318 14.9905 9.16978C14.8483 9.29669 14.8229 9.35253 14.8229 9.55559C14.8229 9.75864 14.8483 9.81448 14.9905 9.94139C15.1935 10.1241 15.4778 10.1394 15.6758 9.98708ZM11.7568 3.73301C12.2594 3.5858 12.5893 3.04263 12.4624 2.56545C12.3305 2.07305 11.9396 1.78877 11.4421 1.8243C11.0664 1.84969 10.7872 2.02736 10.64 2.33194C10.4319 2.76851 10.5436 3.28629 10.9091 3.56549C11.1984 3.78378 11.437 3.83454 11.7568 3.73301Z" fill="#E6E6E6"/>
<path d="M10.7365 12.6522L8.57396 10.4896L8.30999 10.6267C7.80235 10.8907 7.30487 10.8399 6.89876 10.4795C6.57895 10.1952 6.45712 9.93631 6.45204 9.5302C6.44697 8.43879 7.73128 7.921 8.5435 8.68753C8.84808 8.97181 8.99022 9.38807 8.909 9.74849C8.87346 9.92616 8.87346 9.92616 9.80243 10.8551L10.7365 11.7892V9.10887L9.81259 8.17989L8.88361 7.25092L8.66533 7.29153C8.01556 7.41844 7.43685 6.96665 7.43685 6.3321C7.43685 5.53004 8.29983 5.1087 8.97499 5.5808C9.25419 5.77878 9.37602 6.20519 9.30495 6.6976C9.28972 6.7839 10.5943 8.21035 10.6908 8.21035C10.7162 8.21035 10.7365 7.53012 10.7365 6.54023V4.87011L10.4725 4.71782C9.65014 4.25588 9.16789 3.30152 9.31003 2.43854C9.39633 1.93598 9.61461 1.51972 9.97503 1.18976C11.1071 0.138956 12.8432 0.438461 13.5132 1.804C13.7011 2.17965 13.7061 2.20503 13.7061 2.75328C13.7061 3.30152 13.7011 3.3269 13.5132 3.70255C13.3 4.13404 12.899 4.5503 12.4929 4.75336L12.2594 4.86504V8.21543L12.63 7.88547C12.8279 7.69764 13.163 7.36768 13.3711 7.13924C13.7315 6.74329 13.7417 6.72806 13.7112 6.53008C13.5945 5.79909 14.2747 5.195 14.9549 5.42851C15.4169 5.5808 15.6301 5.91077 15.5996 6.40825C15.5641 7.00726 15.1478 7.33214 14.4778 7.28138L14.1224 7.256L12.2594 9.14948V10.4592C12.2594 11.1749 12.2746 11.7638 12.3 11.7638C12.3203 11.7638 12.7416 11.3577 13.234 10.8653L14.1275 9.96169L14.1478 9.52005C14.163 9.12917 14.1782 9.0581 14.3153 8.8652C14.4016 8.74337 14.5844 8.57585 14.7214 8.48955C14.9397 8.35249 15.0108 8.33726 15.3509 8.33726C15.8078 8.34234 16.0616 8.44894 16.3357 8.76875C16.9398 9.47436 16.5387 10.5607 15.5945 10.7587C15.2646 10.8298 14.9245 10.7688 14.6808 10.5912C14.5793 10.515 14.5184 10.5049 14.4473 10.5404C14.3965 10.5709 13.8838 11.0734 13.3102 11.6673L12.2594 12.7385L12.2492 13.7842L12.234 14.835L10.7365 14.8654V12.6522ZM8.07647 9.91601C8.26938 9.72311 8.29476 9.56066 8.17292 9.32715C7.85312 8.70784 6.91399 9.13933 7.18304 9.7891C7.26426 9.97692 7.45208 10.0835 7.71098 10.0886C7.86327 10.0886 7.93941 10.0531 8.07647 9.91601ZM15.6758 9.98708C16.0819 9.66726 15.8636 9.02257 15.3458 9.02257C15.2037 9.02257 15.1072 9.06318 14.9905 9.16978C14.8483 9.29669 14.8229 9.35253 14.8229 9.55559C14.8229 9.75864 14.8483 9.81448 14.9905 9.94139C15.1935 10.1241 15.4778 10.1394 15.6758 9.98708ZM11.7568 3.73301C12.2594 3.5858 12.5893 3.04263 12.4624 2.56545C12.3305 2.07305 11.9396 1.78877 11.4421 1.8243C11.0664 1.84969 10.7872 2.02736 10.64 2.33194C10.4319 2.76851 10.5436 3.28629 10.9091 3.56549C11.1984 3.78378 11.437 3.83454 11.7568 3.73301Z" fill="url(#paint15_linear_1243_12248)"/>
<path d="M54.0631 6.87527C53.5555 6.70775 53.1088 6.37271 52.8194 5.9463C52.4184 5.3676 52.3473 4.48431 52.6519 3.83454C53.1189 2.8345 54.1799 2.33194 55.2307 2.60098C56.3576 2.89541 57.0886 4.08328 56.8247 5.21023C56.6774 5.86 56.185 6.46409 55.5759 6.74836C55.2764 6.8905 55.1698 6.91588 54.7484 6.92603C54.4489 6.93619 54.19 6.91588 54.0631 6.87527Z" fill="#E6E6E6"/>
<path d="M54.0631 6.87527C53.5555 6.70775 53.1088 6.37271 52.8194 5.9463C52.4184 5.3676 52.3473 4.48431 52.6519 3.83454C53.1189 2.8345 54.1799 2.33194 55.2307 2.60098C56.3576 2.89541 57.0886 4.08328 56.8247 5.21023C56.6774 5.86 56.185 6.46409 55.5759 6.74836C55.2764 6.8905 55.1698 6.91588 54.7484 6.92603C54.4489 6.93619 54.19 6.91588 54.0631 6.87527Z" fill="url(#paint16_linear_1243_12248)"/>
<defs>
<linearGradient id="paint0_linear_1243_12248" x1="-19" y1="24.8919" x2="135.221" y2="25.5851" gradientUnits="userSpaceOnUse">
<stop stop-color="#4CFFD4"/>
<stop offset="1" stop-color="#4076FF"/>
</linearGradient>
<linearGradient id="paint1_linear_1243_12248" x1="-19" y1="24.8919" x2="135.221" y2="25.5851" gradientUnits="userSpaceOnUse">
<stop stop-color="#4CFFD4"/>
<stop offset="1" stop-color="#4076FF"/>
</linearGradient>
<linearGradient id="paint2_linear_1243_12248" x1="-19" y1="24.8919" x2="135.221" y2="25.5851" gradientUnits="userSpaceOnUse">
<stop stop-color="#4CFFD4"/>
<stop offset="1" stop-color="#4076FF"/>
</linearGradient>
<linearGradient id="paint3_linear_1243_12248" x1="-19" y1="24.8919" x2="135.221" y2="25.5851" gradientUnits="userSpaceOnUse">
<stop stop-color="#4CFFD4"/>
<stop offset="1" stop-color="#4076FF"/>
</linearGradient>
<linearGradient id="paint4_linear_1243_12248" x1="-19" y1="24.8919" x2="135.221" y2="25.5851" gradientUnits="userSpaceOnUse">
<stop stop-color="#4CFFD4"/>
<stop offset="1" stop-color="#4076FF"/>
</linearGradient>
<linearGradient id="paint5_linear_1243_12248" x1="-19" y1="24.8919" x2="135.221" y2="25.5851" gradientUnits="userSpaceOnUse">
<stop stop-color="#4CFFD4"/>
<stop offset="1" stop-color="#4076FF"/>
</linearGradient>
<linearGradient id="paint6_linear_1243_12248" x1="-19" y1="24.8919" x2="135.221" y2="25.5851" gradientUnits="userSpaceOnUse">
<stop stop-color="#4CFFD4"/>
<stop offset="1" stop-color="#4076FF"/>
</linearGradient>
<linearGradient id="paint7_linear_1243_12248" x1="-19" y1="24.8919" x2="135.221" y2="25.5851" gradientUnits="userSpaceOnUse">
<stop stop-color="#4CFFD4"/>
<stop offset="1" stop-color="#4076FF"/>
</linearGradient>
<linearGradient id="paint8_linear_1243_12248" x1="-19" y1="24.8919" x2="135.221" y2="25.5851" gradientUnits="userSpaceOnUse">
<stop stop-color="#4CFFD4"/>
<stop offset="1" stop-color="#4076FF"/>
</linearGradient>
<linearGradient id="paint9_linear_1243_12248" x1="-19" y1="24.8919" x2="135.221" y2="25.5851" gradientUnits="userSpaceOnUse">
<stop stop-color="#4CFFD4"/>
<stop offset="1" stop-color="#4076FF"/>
</linearGradient>
<linearGradient id="paint10_linear_1243_12248" x1="-19" y1="24.8919" x2="135.221" y2="25.5851" gradientUnits="userSpaceOnUse">
<stop stop-color="#4CFFD4"/>
<stop offset="1" stop-color="#4076FF"/>
</linearGradient>
<linearGradient id="paint11_linear_1243_12248" x1="-19" y1="24.8919" x2="135.221" y2="25.5851" gradientUnits="userSpaceOnUse">
<stop stop-color="#4CFFD4"/>
<stop offset="1" stop-color="#4076FF"/>
</linearGradient>
<linearGradient id="paint12_linear_1243_12248" x1="-19" y1="24.8919" x2="135.221" y2="25.5851" gradientUnits="userSpaceOnUse">
<stop stop-color="#4CFFD4"/>
<stop offset="1" stop-color="#4076FF"/>
</linearGradient>
<linearGradient id="paint13_linear_1243_12248" x1="-19" y1="24.8919" x2="135.221" y2="25.5851" gradientUnits="userSpaceOnUse">
<stop stop-color="#4CFFD4"/>
<stop offset="1" stop-color="#4076FF"/>
</linearGradient>
<linearGradient id="paint14_linear_1243_12248" x1="-19" y1="24.8919" x2="135.221" y2="25.5851" gradientUnits="userSpaceOnUse">
<stop stop-color="#4CFFD4"/>
<stop offset="1" stop-color="#4076FF"/>
</linearGradient>
<linearGradient id="paint15_linear_1243_12248" x1="-19" y1="24.8919" x2="135.221" y2="25.5851" gradientUnits="userSpaceOnUse">
<stop stop-color="#4CFFD4"/>
<stop offset="1" stop-color="#4076FF"/>
</linearGradient>
<linearGradient id="paint16_linear_1243_12248" x1="-19" y1="24.8919" x2="135.221" y2="25.5851" gradientUnits="userSpaceOnUse">
<stop stop-color="#4CFFD4"/>
<stop offset="1" stop-color="#4076FF"/>
</linearGradient>
</defs>
</svg>
