<?xml version="1.0" encoding="utf-8"?>
<!-- Generator: Adobe Illustrator 23.0.3, SVG Export Plug-In . SVG Version: 6.00 Build 0)  -->
<svg version="1.1" id="Layer_1" xmlns="http://www.w3.org/2000/svg" xmlns:xlink="http://www.w3.org/1999/xlink" x="0px" y="0px"
	 viewBox="0 0 300 300" style="enable-background:new 0 0 300 300;" xml:space="preserve">
<style type="text/css">
	.st0{fill:#4EC48F;}
</style>
<path class="st0" d="M194.1,106.9H69.9c-3.9,0-7,3.1-7,7s3.1,7,7,7h124.2c3.9,0,7-3.1,7-7S198,106.9,194.1,106.9z"/>
<path class="st0" d="M194.1,66.7H69.9c-3.9,0-7,3.1-7,7s3.1,7,7,7h124.2c3.9,0,7-3.1,7-7S198,66.7,194.1,66.7z"/>
<path class="st0" d="M194.1,147H69.9c-3.9,0-7,3.1-7,7s3.1,7,7,7h124.2c3.9,0,7-3.1,7-7C201.2,150.2,198,147,194.1,147z"/>
<path class="st0" d="M217.1,8H46.9C28.8,8,14,26.1,14,48.4v129.9c0,22.3,14.8,40.4,32.9,40.4h87.8c0.5,0.1,1.7,0.7,2.1,1.1L181,274
	c3.4,4.1,6.6,5,8.7,5c3.4,0,6.4-2.2,8.2-5.7c1.2-2.4,1.8-5.3,1.8-8.7v-45.9h17.4c18.1,0,32.9-18.1,32.9-40.4V48.4
	C250,26.1,235.2,8,217.1,8z M235.3,178.3L235.3,178.3c0,12.3-8.2,22.3-18.2,22.3h-18.4c-7.6,0-13.8,7.6-13.8,16.9v35.7L147.3,207
	c-3-3.7-8.2-6.4-12.5-6.4H46.9c-10,0-18.2-10.1-18.2-22.3V48.4c0-12.3,8.2-22.3,18.2-22.3h170.2c10,0,18.2,10.1,18.2,22.3V178.3
	L235.3,178.3z"/>
</svg>
