<svg height='300px' width='300px'  fill="#66cc99" xmlns="http://www.w3.org/2000/svg" data-name="Layer 1" viewBox="0 0 100 100" x="0px" y="0px"><title>150all</title><rect x="47" y="40.51" width="6" height="31.28"></rect><path d="M81.58,20.89H63.3V19.25a8,8,0,0,0-8-8H44.7a8,8,0,0,0-8,8v1.64H18.42a3,3,0,0,0,0,6h4.31V75.75a13,13,0,0,0,13,13H64.27a13,13,0,0,0,13-13V26.89h4.31a3,3,0,0,0,0-6ZM42.7,19.25a2,2,0,0,1,2-2H55.3a2,2,0,0,1,2,2v1.64H42.7ZM71.27,75.75a7,7,0,0,1-7,7H35.73a7,7,0,0,1-7-7V26.89H71.27Z"></path><rect x="35" y="40.51" width="6" height="31.28"></rect><rect x="59" y="40.51" width="6" height="31.28"></rect></svg>