<?xml version="1.0" encoding="utf-8"?>
<!-- Generator: Adobe Illustrator 23.0.3, SVG Export Plug-In . SVG Version: 6.00 Build 0)  -->
<svg version="1.1" id="Layer_1" xmlns="http://www.w3.org/2000/svg" xmlns:xlink="http://www.w3.org/1999/xlink" x="0px" y="0px"
	 viewBox="0 0 300 300" style="enable-background:new 0 0 300 300;" xml:space="preserve">
<style type="text/css">
	.st0{fill:#66CC99;}
</style>
<title>icon/circle-home</title>
<desc>Created with Sketch.</desc>
<g>
	<path class="st0" d="M145,68.4c3-3,7.9-3,10.8,0l61.4,61.4c1.4,1.4,2.3,3.4,2.3,5.4V212c0,4.2-3.5,7.7-7.7,7.7h-46.1
		c-4.2,0-7.7-3.5-7.7-7.7v-30.7c0-4.2-3.5-7.7-7.7-7.7c-4.2,0-7.7,3.5-7.7,7.7V212c0,4.2-3.5,7.7-7.7,7.7H89c-4.2,0-7.7-3.5-7.7-7.7
		v-76.8c0-2,0.8-4,2.3-5.4L145,68.4z M96.7,138.4v65.9h30.7v-23c0-12.7,10.3-23,23-23c12.7,0,23,10.3,23,23v23h30.7v-65.9
		l-53.7-53.7L96.7,138.4z M280.9,150.6c0-72.1-58.4-130.5-130.5-130.5S19.9,78.6,19.9,150.6s58.4,130.5,130.5,130.5
		S280.9,222.7,280.9,150.6z M296.2,150.6c0,80.5-65.3,145.8-145.8,145.8S4.5,231.2,4.5,150.6S69.8,4.8,150.4,4.8
		S296.2,70.1,296.2,150.6z"/>
</g>
</svg>
