<?xml version="1.0" encoding="utf-8"?>
<!-- Generator: Adobe Illustrator 23.0.3, SVG Export Plug-In . SVG Version: 6.00 Build 0)  -->
<svg version="1.1" id="Layer_1" xmlns="http://www.w3.org/2000/svg" xmlns:xlink="http://www.w3.org/1999/xlink" x="0px" y="0px"
	 viewBox="0 0 300 300" style="enable-background:new 0 0 300 300;" xml:space="preserve">
<style type="text/css">
	.st0{fill:#4EC48F;}
</style>
<g>
	<g>
		<path class="st0" d="M240.3,103.6h10.8c23.1,0,41.9-16.2,41.9-36.2c0-9.6-4.4-18.7-12.3-25.6c-7.9-6.8-18.5-10.6-29.6-10.6h-10.6
			V13.9c0-3.5-3.3-6.4-7.4-6.4H98.3c-4.1,0-7.4,2.9-7.4,6.4v17.2H80.3c-11.2,0-21.7,3.8-29.6,10.6S38.4,57.6,38.4,67.3
			c0,20,18.8,36.2,41.9,36.2H91c0.9,18.1,10.3,34.8,26,46.3l-27.6,17.6H76.2v-7.1c0-3.5-3.3-6.4-7.4-6.4H15.4
			c-4.1,0-7.4,2.9-7.4,6.4V254c0,3.5,3.3,6.4,7.4,6.4h53.4c4.1,0,7.4-2.9,7.4-6.4v-7.6h17.6l18.4,11.8c0,0.1,0,0.1,0,0.2V286
			c0,3.5,3.3,6.4,7.4,6.4h85.2c4.1,0,7.4-2.9,7.4-6.4v-27.6c0-3.1-2.5-5.7-5.9-6.3c9.6-8.1,15.4-19.4,15.4-31.6v-20.3
			c0-15.4-14-27.9-31.5-28.8v-9.7C219.1,153.3,239,130.1,240.3,103.6z M251.1,43.9c7.2,0,14,2.4,19.1,6.8c5.1,4.5,8,10.4,8,16.6
			c0,12.9-12.2,23.4-27.1,23.4h-10.6V43.9H251.1z M53.2,67.4c0-6.3,2.8-12.1,7.9-16.6c5.1-4.4,12-6.8,19.2-6.8h10.6v46.8H80.3
			C65.4,90.8,53.2,80.3,53.2,67.4z M22.8,247.7v-80.8h38.6v7v0.1v0.1v73.7L22.8,247.7L22.8,247.7z M197.3,279.7H127v-14.8h43.6
			c1.4,0,2.8-0.1,4.2-0.2c0.4,0,0.8-0.1,1.2-0.1c1-0.1,1.9-0.2,2.9-0.3c0.2,0,0.4,0,0.6-0.1c1,0.4,2.1,0.7,3.3,0.7h14.6L197.3,279.7
			L197.3,279.7z M206.9,200.4v20.3c0,13.9-10.8,26.3-26.2,30.2c-3.2,0.8-6.7,1.2-10.2,1.2h-43.1l-26.7-17.2
			c-1.3-0.8-2.8-1.3-4.4-1.3H76.2v-53.3h15.7c1.6,0,3.1-0.4,4.4-1.2l33.6-21.4c0.2,0.1,0.5,0.2,0.7,0.3c1,0.5,2,0.9,3,1.3
			c0.4,0.2,0.8,0.3,1.1,0.5c1.3,0.5,2.7,1,4.1,1.5c3.3,1.1,6.7,2,10.2,2.7v14c0,3.5,3.3,6.4,7.4,6.4h26.4h5.5
			C198.5,184.3,206.9,191.5,206.9,200.4z"/>
	</g>
</g>
</svg>
