<?xml version="1.0" encoding="utf-8"?>
<!-- Generator: Adobe Illustrator 23.0.3, SVG Export Plug-In . SVG Version: 6.00 Build 0)  -->
<svg version="1.1" id="Layer_1" xmlns="http://www.w3.org/2000/svg" xmlns:xlink="http://www.w3.org/1999/xlink" x="0px" y="0px"
	 viewBox="0 0 300 300" style="enable-background:new 0 0 300 300;" xml:space="preserve">
<style type="text/css">
	.st0{fill:#4EC48F;}
</style>
<title>Artboard 10</title>
<path class="st0" d="M144.4,267.9c-31.5,0.1-61.6-12.6-83.5-35.2l-20.1,19.6c56,57.3,147.8,58.3,205,2.3s58.3-147.8,2.3-205
	s-147.8-58.3-205-2.3c-0.8,0.8-1.5,1.5-2.3,2.3l20.1,19.6c45.2-46.1,119.2-46.9,165.4-1.7c18.9,18.6,31,43,34.2,69.3H122.1
	l42.1-42.1L144.4,75l-66,66c-5.5,5.5-5.5,14.4,0,19.8l66,66l19.8-19.8L122.1,165h138.3C253.4,223.7,203.5,267.9,144.4,267.9z"/>
</svg>
