<?xml version="1.0" encoding="utf-8"?>
<!-- Generator: Adobe Illustrator 23.0.3, SVG Export Plug-In . SVG Version: 6.00 Build 0)  -->
<svg version="1.1" id="Layer_1" xmlns="http://www.w3.org/2000/svg" xmlns:xlink="http://www.w3.org/1999/xlink" x="0px" y="0px"
	 viewBox="0 0 1200 1200" style="enable-background:new 0 0 1200 1200;" xml:space="preserve">
<style type="text/css">
	.st0{fill:#FFFFFF;}
	.st1{fill:#112F55;}
</style>
<rect x="17.8" y="17.8" class="st0" width="1182.2" height="1182.2"/>
<g transform="translate(600 600) scale(0.69 0.69) rotate(0) translate(-600 -600)">
	<circle class="st1" cx="613.3" cy="421.5" r="303.1"/>
	<path class="st1" d="M611.4-230c-462.9,0-840.3,375.7-840.3,840.3s377.5,840.3,840.3,840.3s840.3-377.5,840.3-840.3
		S1074.3-230,611.4-230z M1105.1,1140.2C1043.4,975,909.1,799,611.4,799c-295.8,0-431.9,176-493.7,341.2
		C-23.8,1007.7-114.5,819-114.5,610.2c0.1-399.2,325-725.9,726-725.9s726,324.9,726,725.9C1337.4,819,1246.7,1007.7,1105.1,1140.2z"
		/>
</g>
</svg>
